<svg xmlns="http://www.w3.org/2000/svg" width="120.188" height="48.161" viewBox="0 0 120.188 48.161">
  <path id="RocketsLion_Logo_Rot" d="M87.655,58.155H90.57l4.2,4.2,3.008-3.008-1.662-1.662a6.206,6.206,0,0,0,1.859-.967,4.367,4.367,0,0,0,1.711-3.6c0-3.4-3.019-5.037-6.83-5.037H82.722V62.353h4.933Zm0-6.506h4.791c1.285,0,2.2.367,2.2,1.59s-.918,1.59-2.2,1.59H87.655Zm-1.673,19.5L82.72,74.407v6.975H96.076V78.568H85.983ZM97.748,81.381h3.263V67.11H97.748ZM98.91,58.217c1.261,2.981,4.526,4.607,8.929,4.607,5.73,0,9.523-2.733,9.523-7.606,0-4.03-2.6-6.6-6.735-7.363L115,42.129l-5.558,5.558h0l-4.6,4.6a5.335,5.335,0,0,1,3-.776c2.773,0,4.465,1.365,4.465,3.712s-1.692,3.712-4.465,3.712-4.465-1.365-4.465-3.712a3.617,3.617,0,0,1,.56-2.025Zm18.452-14.782L119.2,41.6V40.5l4.261-6.826-6.826,4.261h-1.1l-1.834,1.834h3.67Zm1.058,11.785c0,4.874,3.752,7.606,9.156,7.606a10.2,10.2,0,0,0,7.4-2.7l-3.256-3.256a4.443,4.443,0,0,1-4.017,2.058c-2.529,0-4.242-1.346-4.242-3.712s1.713-3.712,4.242-3.712a4.379,4.379,0,0,1,3.935,2.018l3.26-3.26a9.935,9.935,0,0,0-7.134-2.654C122.172,47.613,118.42,50.345,118.42,55.219Zm-6.033,11.441c-5.567,0-9.073,2.813-9.073,7.585s3.506,7.585,9.073,7.585,9.073-2.813,9.073-7.585S117.953,66.661,112.387,66.661Zm0,12.355c-3.549,0-5.749-1.713-5.749-4.772s2.222-4.772,5.749-4.772,5.749,1.713,5.749,4.772S115.914,79.016,112.387,79.016Zm82.364-25.959c-2.3-.184-3.589-.326-3.589-1.02,0-.774,1.673-.958,3.121-.958a10.219,10.219,0,0,1,5.321,1.285l2.692-2.692a14.918,14.918,0,0,0-8.013-2.058c-.35,0-.693.011-1.028.03l-6.146,6.146-.4.4c1.158,1.908,4.331,2.6,7.816,2.911,2.65.225,3.466.469,3.466,1.162,0,.714-1,1.06-3.038,1.06a11.7,11.7,0,0,1-6.627-1.9l-2.692,2.692a15.318,15.318,0,0,0,9.237,2.711c5.281,0,8.035-2,8.035-5.077C202.906,54.363,199.52,53.445,194.751,53.057Zm-35.539,3.731h8.626v-3.3h-8.626V51.67h10.583V48.081H159.212l-4.874,4.874v9.4h15.681V58.766H159.212V56.788Zm27.894-8.707H170.855V51.67h5.626V62.355h2.056l2.919-2.919V51.67H187.1V48.081ZM136.874,76.9l-9.625-9.786h-3.466V81.381h3.161V71.064l10.235,10.318h2.856V67.11h-3.161ZM153.28,48.081h-6.016l-6.2,6.2v-6.2H136.09V62.355h2.917l5.071-5.071,3.757,5.071h5.792l-6.275-8.346Z" transform="translate(-82.72 -33.67)" fill="#ff5a5a"/>
</svg>
