<svg xmlns="http://www.w3.org/2000/svg" width="120.466" height="48.272" viewBox="0 0 120.466 48.272">
  <path id="RocketsHome_Logo_Blau" d="M95.739,72.867H85.99V71.231L82.72,74.5v6.991h3.27V75.606h9.749v5.886h3.27v-14.3h-3.27ZM87.667,58.212h2.922L94.8,62.421l3.015-3.015L96.147,57.74a6.221,6.221,0,0,0,1.864-.969,4.377,4.377,0,0,0,1.715-3.61c0-3.412-3.026-5.049-6.846-5.049H82.722V62.419h4.945Zm0-6.521h4.8c1.288,0,2.208.368,2.208,1.594s-.92,1.594-2.208,1.594h-4.8Zm29.776-8.234,1.838-1.838V40.512l4.271-6.842-6.842,4.271H115.6l-1.838,1.838h3.678Zm26.777,13.882,3.765,5.083h5.805l-6.29-8.366,5.941-5.941h-6.03L141.2,54.328V48.115h-4.987V62.421h2.924Zm-26.777-2.07c0-4.039-2.6-6.61-6.751-7.38l4.381-5.739L109.5,47.722h0l-4.607,4.607a5.347,5.347,0,0,1,3-.778c2.779,0,4.475,1.368,4.475,3.721s-1.7,3.721-4.475,3.721-4.475-1.368-4.475-3.721a3.625,3.625,0,0,1,.561-2.029L98.95,58.278c1.264,2.988,4.537,4.617,8.95,4.617C113.641,62.891,117.442,60.152,117.442,55.269Zm69.905-7.154H171.058v3.6H176.7V62.421h2.061l2.926-2.926V51.712h5.661v-3.6Zm-27.959,8.727h8.646V53.531h-8.646V51.712H170v-3.6H159.389L154.5,53v9.422h15.717v-3.6H159.389ZM195.01,53.1c-2.31-.185-3.6-.327-3.6-1.022,0-.776,1.677-.96,3.128-.96a10.243,10.243,0,0,1,5.333,1.288l2.7-2.7a14.953,14.953,0,0,0-8.032-2.063c-.351,0-.695.011-1.031.03l-6.16,6.16-.4.4c1.16,1.912,4.341,2.609,7.834,2.917,2.656.225,3.474.47,3.474,1.164,0,.716-1,1.062-3.045,1.062a11.722,11.722,0,0,1-6.642-1.9l-2.7,2.7a15.354,15.354,0,0,0,9.258,2.718c5.293,0,8.053-2,8.053-5.089C203.184,54.411,199.791,53.491,195.01,53.1Zm-47.546,22.5h9.422V72.867h-9.422V69.924h11.281V67.185h-14.53v14.3h14.734V78.751H147.464ZM135.093,60.188l-3.264-3.264a4.453,4.453,0,0,1-4.027,2.063c-2.535,0-4.252-1.349-4.252-3.721s1.717-3.721,4.252-3.721a4.39,4.39,0,0,1,3.944,2.023l3.268-3.268a9.958,9.958,0,0,0-7.15-2.66c-5.6,0-9.36,2.739-9.36,7.624s3.761,7.624,9.177,7.624A10.213,10.213,0,0,0,135.093,60.188Zm-24.682,6.549c-5.58,0-9.094,2.82-9.094,7.6s3.515,7.6,9.094,7.6,9.094-2.82,9.094-7.6S115.991,66.737,110.411,66.737Zm0,12.384c-3.557,0-5.763-1.717-5.763-4.783s2.227-4.783,5.763-4.783,5.763,1.717,5.763,4.783S113.947,79.12,110.411,79.12Zm21.03-4.373-6.049-7.562h-3.557v14.3H125V71.537l6.275,7.664h.164l6.275-7.664V81.49h3.27v-14.3h-3.5Z" transform="translate(-82.72 -33.67)" fill="#00cbf4"/>
</svg>
