<svg xmlns="http://www.w3.org/2000/svg" width="121.765" height="48.289" viewBox="0 0 121.765 48.289">
  <path id="RocketsGreen_Logo_Green" d="M85.6,76.09H91v1.39c-1.022,1.226-2.78,1.7-4.927,1.7-3.8,0-6.051-1.635-6.051-4.825a5.007,5.007,0,0,1,.506-2.3L76.8,75.773c.636,3.917,3.977,6.185,9.127,6.185,3.883,0,6.706-1.411,8.137-3.352V73.435H85.6Zm.223-9.34-3.55,3.55a7.8,7.8,0,0,1,3.675-.772,6.36,6.36,0,0,1,4.865,1.8l2.555-1.86a10.542,10.542,0,0,0-7.442-2.719Zm26.969-11.474c0-4.041-2.6-6.613-6.753-7.382l4.383-5.741-5.573,5.573h0l-4.608,4.608a5.349,5.349,0,0,1,3.006-.778c2.78,0,4.476,1.369,4.476,3.722S106.027,59,103.246,59s-4.476-1.369-4.476-3.722a3.626,3.626,0,0,1,.561-2.03l-5.038,5.038c1.265,2.989,4.538,4.619,8.953,4.619C108.99,62.9,112.792,60.161,112.792,55.276Zm69.929-7.157H166.427v3.6h5.641V62.431h2.062l2.927-2.927V51.718h5.663v-3.6ZM112.792,43.46l1.839-1.839V40.514L118.9,33.67l-6.844,4.272h-1.107l-1.839,1.839h3.679ZM83.007,58.22h2.923l4.211,4.211,3.016-3.016L91.49,57.748a6.223,6.223,0,0,0,1.864-.969,4.379,4.379,0,0,0,1.715-3.611c0-3.414-3.027-5.05-6.849-5.05H78.06V62.429h4.946Zm0-6.523h4.8c1.288,0,2.208.368,2.208,1.594s-.92,1.594-2.208,1.594h-4.8Zm107.379,1.411c-2.31-.185-3.6-.327-3.6-1.022,0-.776,1.677-.961,3.129-.961a10.246,10.246,0,0,1,5.335,1.288l2.7-2.7a14.958,14.958,0,0,0-8.035-2.064c-.351,0-.7.011-1.031.03l-6.162,6.162-.4.4c1.161,1.913,4.343,2.61,7.837,2.918,2.657.225,3.475.47,3.475,1.165,0,.716-1,1.063-3.046,1.063a11.726,11.726,0,0,1-6.645-1.9l-2.7,2.7a15.359,15.359,0,0,0,9.261,2.719c5.295,0,8.056-2,8.056-5.091C198.563,54.418,195.169,53.5,190.386,53.108ZM135.466,75.62h9.425V72.88h-9.425V69.936H146.75V67.2H132.216V81.506h14.739v-2.74H135.466Zm19.287-18.771H163.4V53.538h-8.649V51.718h10.611v-3.6H154.753l-4.887,4.887v9.425h15.723v-3.6H154.753ZM112.558,71.92c0-3.108-2.638-4.723-6.132-4.723H96.553V81.506H99.8V76.641h5.171l4.109,4.865h3.9l-4.417-5.091C110.945,75.867,112.558,74.353,112.558,71.92ZM99.782,73.943V69.936h6.46c1.717,0,2.984.408,2.984,2s-1.267,2-2.984,2h-6.46ZM162.42,77.01,152.77,67.2h-3.475V81.508h3.169V71.163l10.262,10.345h2.863V67.2H162.42ZM148.806,48.12h-6.032l-6.215,6.215V48.12H131.57V62.431h2.925l5.084-5.084,3.767,5.084h5.807l-6.292-8.368ZM123.157,59c-2.536,0-4.253-1.35-4.253-3.722s1.717-3.722,4.253-3.722a4.391,4.391,0,0,1,3.945,2.024l3.269-3.269a9.961,9.961,0,0,0-7.153-2.661c-5.6,0-9.363,2.74-9.363,7.627s3.762,7.627,9.18,7.627a10.228,10.228,0,0,0,7.416-2.7l-3.265-3.265A4.46,4.46,0,0,1,123.157,59ZM118.38,75.62h9.425V72.88H118.38V69.936h11.285V67.2H115.13V81.506h14.739v-2.74H118.38Z" transform="translate(-76.8 -33.67)" fill="#00d98c"/>
</svg>
