<?xml version="1.0" encoding="utf-8"?>
<!-- Generator: Adobe Illustrator 23.1.0, SVG Export Plug-In . SVG Version: 6.00 Build 0)  -->
<svg version="1.1" id="Layer_1" xmlns="http://www.w3.org/2000/svg" xmlns:xlink="http://www.w3.org/1999/xlink" x="0px" y="0px"
	 viewBox="0 0 62.5 62.52" style="enable-background:new 0 0 62.5 62.52;" xml:space="preserve">
<style type="text/css">
	.st0{opacity:0.4;}
	.st1{fill:#3CB3F2;}
</style>
<g class="st0">
	<path class="st1" d="M31.16,62.52c-4.17,0-8.32-0.13-12.44-0.38c-0.69-0.04-1.41-0.13-2.25-0.29c-8.92-1.6-15.53-9.03-16.09-18.06
		c-0.36-5.77-0.46-11.72-0.31-17.7c0.07-2.75,0.17-5.15,0.31-7.36c0.28-4.6,2.22-8.98,5.44-12.33c3.43-3.57,8.01-5.71,12.9-6.01
		c8.32-0.51,16.75-0.51,25.06,0c1.88,0.12,3.74,0.51,5.54,1.18c2.45,0.91,4.68,2.29,6.62,4.11c3.68,3.45,5.88,8.09,6.18,13.06l0,0
		c0.41,6.65,0.48,13.52,0.21,20.42c-0.06,1.55-0.12,3.1-0.21,4.64c-0.11,1.84-0.49,3.67-1.13,5.42
		c-2.67,7.37-9.42,12.44-17.21,12.92l-0.5,0.02C39.25,62.4,35.2,62.52,31.16,62.52z M31.25,2c-4.15,0-8.29,0.13-12.41,0.38
		c-4.39,0.27-8.5,2.19-11.58,5.4c-2.9,3.02-4.63,6.95-4.89,11.07c-0.13,2.18-0.23,4.57-0.3,7.29c-0.15,5.92-0.05,11.82,0.3,17.53
		c0.5,8.11,6.44,14.77,14.45,16.21c0.76,0.14,1.41,0.22,2.02,0.26c8.03,0.49,16.21,0.5,24.32,0.02l0.5-0.02
		c6.99-0.43,13.06-4.99,15.45-11.6c0.57-1.58,0.91-3.22,1.01-4.87c0.09-1.53,0.15-3.06,0.21-4.59c0.26-6.84,0.19-13.64-0.21-20.23
		l0,0c-0.28-4.46-2.25-8.63-5.55-11.73c-1.74-1.63-3.75-2.88-5.95-3.69c-1.62-0.6-3.29-0.95-4.97-1.06C39.54,2.13,35.4,2,31.25,2z"
		/>
</g>
<g>
	<g>
		<path class="st1" d="M43.96,45.95H11.11l3.31-29.75h32.85L43.96,45.95z M13.35,43.95h28.82l2.86-25.75H16.21L13.35,43.95z"/>
	</g>
	<g>
		<polygon class="st1" points="50.35,45.95 43.06,45.95 43.06,43.95 48.11,43.95 45.15,17.31 47.14,17.09 		"/>
	</g>
	<g>
		<rect x="14.63" y="22.37" class="st1" width="30.83" height="2"/>
	</g>
	<g>
		<rect x="20.71" y="27.76" class="st1" width="1.54" height="2"/>
	</g>
	<g>
		<rect x="26.1" y="27.76" class="st1" width="1.54" height="2"/>
	</g>
	<g>
		<rect x="31.5" y="27.76" class="st1" width="1.54" height="2"/>
	</g>
	<g>
		<rect x="36.9" y="27.76" class="st1" width="1.54" height="2"/>
	</g>
	<g>
		<rect x="19.94" y="33.16" class="st1" width="1.54" height="2"/>
	</g>
	<g>
		<rect x="25.33" y="33.16" class="st1" width="1.54" height="2"/>
	</g>
	<g>
		<rect x="30.73" y="33.16" class="st1" width="1.54" height="2"/>
	</g>
	<g>
		<rect x="36.12" y="33.16" class="st1" width="1.54" height="2"/>
	</g>
	<g>
		<rect x="19.17" y="38.56" class="st1" width="1.54" height="2"/>
	</g>
	<g>
		<rect x="24.56" y="38.56" class="st1" width="1.54" height="2"/>
	</g>
	<g>
		<rect x="29.96" y="38.56" class="st1" width="1.54" height="2"/>
	</g>
	<g>
		<path class="st1" d="M30.73,21.29c-1.86,0-3.31-1.79-3.31-4.08c0-2.29,1.46-4.08,3.31-4.08c1.86,0,3.31,1.79,3.31,4.08h-2
			c0-1.23-0.69-2.08-1.31-2.08s-1.31,0.86-1.31,2.08c0,1.23,0.69,2.08,1.31,2.08V21.29z"/>
	</g>
	<g>
		<path class="st1" d="M22.25,21.29c-1.86,0-3.31-1.79-3.31-4.08c0-2.29,1.46-4.08,3.31-4.08c1.83,0,3.31,1.83,3.31,4.08h-2
			c0-1.23-0.69-2.08-1.31-2.08s-1.31,0.86-1.31,2.08c0,1.23,0.69,2.08,1.31,2.08V21.29z"/>
	</g>
	<g>
		<path class="st1" d="M39.21,21.29c-1.86,0-3.31-1.79-3.31-4.08c0-2.29,1.46-4.08,3.31-4.08s3.31,1.79,3.31,4.08h-2
			c0-1.23-0.69-2.08-1.31-2.08s-1.31,0.86-1.31,2.08c0,1.23,0.69,2.08,1.31,2.08V21.29z"/>
	</g>
</g>
</svg>
