<?xml version="1.0" encoding="utf-8"?>
<!-- Generator: Adobe Illustrator 23.1.0, SVG Export Plug-In . SVG Version: 6.00 Build 0)  -->
<svg version="1.1" id="Layer_1" xmlns="http://www.w3.org/2000/svg" xmlns:xlink="http://www.w3.org/1999/xlink" x="0px" y="0px"
	 viewBox="0 0 62.5 62.52" style="enable-background:new 0 0 62.5 62.52;" xml:space="preserve">
<style type="text/css">
	.st0{fill:#3CB3F2;}
	.st1{opacity:0.4;}
</style>
<g>
	<g>
		<path class="st0" d="M33.63,47.63c-0.49,0-1.03-0.06-1.6-0.18c-1.83-0.38-3.91-1.35-5.86-2.71c-0.22-0.15-0.43-0.31-0.64-0.46
			l1.21-1.59c0.19,0.14,0.38,0.28,0.57,0.42c1.74,1.22,3.56,2.07,5.13,2.4c1.21,0.25,2.18,0.14,2.47-0.27
			c0.29-0.42,0.06-1.36-0.59-2.41c-0.84-1.36-2.27-2.78-4-4c-3.72-2.6-6.98-3-7.59-2.12c-0.34,0.48-0.04,1.79,1.4,3.53l-1.54,1.28
			c-1.96-2.35-2.5-4.52-1.5-5.95c1.72-2.46,6.63-0.99,10.38,1.63c1.96,1.37,3.57,3,4.56,4.58c1.14,1.83,1.32,3.47,0.53,4.61
			C35.97,47.2,34.96,47.63,33.63,47.63z"/>
	</g>
	<g>
		<path class="st0" d="M31.36,50.92c-2.21,0-5.09-1.21-7.5-2.89c-1.96-1.37-3.57-3-4.56-4.58c-1.14-1.83-1.33-3.47-0.53-4.61
			l2.44-3.48l1.64,1.15l-2.44,3.48c-0.29,0.42-0.06,1.36,0.59,2.41c0.84,1.36,2.27,2.78,4,4c3.72,2.6,6.98,3,7.59,2.12l2.3-3.29
			l1.64,1.15l-2.3,3.29C33.63,50.54,32.6,50.92,31.36,50.92z"/>
	</g>
	<g>
		<path class="st0" d="M36.58,35.25c-0.5,0-0.96-0.12-1.37-0.36c-1.21-0.7-1.73-2.26-1.47-4.4c0.22-1.85,1-4.01,2.19-6.08
			c1.19-2.07,2.67-3.82,4.17-4.94c1.73-1.29,3.34-1.62,4.55-0.93c1.51,0.87,1.93,3.07,1.16,6.03l-1.93-0.51
			c0.57-2.19,0.29-3.5-0.22-3.79c-0.44-0.25-1.36,0.06-2.35,0.8c-1.28,0.96-2.57,2.5-3.63,4.34s-1.75,3.72-1.94,5.31
			c-0.15,1.22,0.04,2.18,0.49,2.43c0.44,0.25,1.36-0.06,2.35-0.8c1.28-0.96,2.57-2.5,3.63-4.34c0.13-0.22,0.25-0.44,0.36-0.66
			l1.77,0.93c-0.13,0.24-0.26,0.48-0.4,0.73c-1.19,2.07-2.67,3.82-4.17,4.94C38.62,34.82,37.54,35.25,36.58,35.25z"/>
	</g>
	<g>
		<path class="st0" d="M40.06,37.26c-0.5,0-0.96-0.12-1.37-0.36l-3.48-2.01l1-1.73l3.48,2.01c0.44,0.26,1.36-0.06,2.35-0.8
			c1.28-0.96,2.57-2.5,3.63-4.34s1.75-3.73,1.94-5.32c0.15-1.22-0.04-2.18-0.49-2.43l-3.48-2.01l1-1.73l3.48,2.01
			c1.21,0.7,1.73,2.26,1.47,4.4c-0.22,1.85-1,4.01-2.19,6.08s-2.67,3.82-4.17,4.94C42.1,36.83,41.02,37.26,40.06,37.26z"/>
	</g>
	<g>
		<path class="st0" d="M28.74,29.19c-2.45,0-5.43-2.92-7.34-6.23c-0.15-0.26-0.29-0.51-0.42-0.77l1.77-0.93
			c0.12,0.23,0.25,0.46,0.38,0.7c2.27,3.93,5.07,5.66,5.98,5.13c0.92-0.53,0.82-3.82-1.45-7.75c-2.27-3.93-5.05-5.67-5.99-5.13
			c-0.51,0.29-0.79,1.6-0.22,3.79l-1.93,0.51c-0.78-2.96-0.36-5.16,1.16-6.03c2.6-1.5,6.43,1.9,8.72,5.87
			c2.29,3.96,3.32,8.98,0.72,10.48C29.69,29.07,29.23,29.19,28.74,29.19z"/>
	</g>
	<g>
		<path class="st0" d="M25.26,31.19c-2.45,0-5.43-2.92-7.34-6.23c-1.19-2.07-1.97-4.22-2.19-6.08c-0.26-2.14,0.27-3.71,1.47-4.4
			l3.48-2.01l1,1.73l-3.48,2.01c-0.44,0.25-0.63,1.21-0.49,2.43c0.19,1.59,0.88,3.48,1.94,5.31c2.27,3.93,5.07,5.66,5.98,5.13
			l3.48-2.01l1,1.73l-3.48,2.01C26.21,31.08,25.75,31.19,25.26,31.19z"/>
	</g>
</g>
<g class="st1">
	<path class="st0" d="M31.16,62.52c-4.17,0-8.32-0.13-12.44-0.38c-0.69-0.04-1.41-0.13-2.25-0.29C7.55,60.25,0.93,52.82,0.38,43.79
		c-0.36-5.77-0.46-11.72-0.31-17.7c0.07-2.73,0.17-5.14,0.31-7.36c0.28-4.6,2.22-8.98,5.44-12.33c3.43-3.57,8.01-5.71,12.9-6.01
		c8.31-0.51,16.75-0.51,25.06,0c1.88,0.12,3.74,0.51,5.54,1.18c2.46,0.91,4.68,2.29,6.62,4.11c3.68,3.45,5.87,8.09,6.18,13.06l0,0
		c0.41,6.66,0.48,13.53,0.21,20.42l0,0.13c-0.06,1.5-0.12,3.01-0.21,4.52c-0.11,1.84-0.49,3.67-1.13,5.42
		c-2.67,7.37-9.42,12.44-17.21,12.92l-0.5,0.02C39.25,62.4,35.2,62.52,31.16,62.52z M31.25,2c-4.15,0-8.29,0.13-12.41,0.38
		c-4.39,0.27-8.5,2.19-11.58,5.4c-2.9,3.02-4.63,6.95-4.89,11.07c-0.14,2.2-0.24,4.58-0.3,7.29c-0.15,5.92-0.05,11.82,0.3,17.53
		c0.5,8.1,6.44,14.77,14.45,16.21c0.77,0.14,1.41,0.22,2.02,0.26c8.03,0.5,16.21,0.5,24.32,0.02l0.5-0.02
		c6.99-0.43,13.06-4.99,15.45-11.6c0.57-1.58,0.91-3.21,1.01-4.87c0.09-1.49,0.15-2.98,0.21-4.47l0-0.13
		c0.27-6.82,0.19-13.63-0.21-20.22l0,0c-0.28-4.46-2.25-8.63-5.55-11.73c-1.74-1.63-3.74-2.87-5.95-3.69
		c-1.62-0.6-3.29-0.95-4.97-1.06C39.54,2.13,35.4,2,31.25,2z"/>
</g>
</svg>
