<?xml version="1.0" encoding="utf-8"?>
<!-- Generator: Adobe Illustrator 23.1.0, SVG Export Plug-In . SVG Version: 6.00 Build 0)  -->
<svg version="1.1" id="Layer_1" xmlns="http://www.w3.org/2000/svg" xmlns:xlink="http://www.w3.org/1999/xlink" x="0px" y="0px"
	 viewBox="0 0 62.5 62.52" style="enable-background:new 0 0 62.5 62.52;" xml:space="preserve">
<style type="text/css">
	.st0{opacity:0.4;}
	.st1{fill:#3CB3F2;}
</style>
<g>
	<g class="st0">
		<path class="st1" d="M31.16,62.52c-4.17,0-8.32-0.13-12.44-0.38c-0.69-0.04-1.41-0.13-2.25-0.29c-8.92-1.6-15.53-9.03-16.09-18.06
			c-0.36-5.77-0.46-11.72-0.31-17.7c0.07-2.75,0.17-5.15,0.31-7.36c0.28-4.6,2.22-8.98,5.44-12.33c3.43-3.57,8.01-5.71,12.9-6.01
			c8.32-0.51,16.75-0.51,25.06,0c1.88,0.12,3.74,0.51,5.54,1.18c2.45,0.91,4.68,2.29,6.62,4.11c3.68,3.45,5.88,8.09,6.18,13.06l0,0
			c0.41,6.65,0.48,13.52,0.21,20.42c-0.06,1.55-0.12,3.1-0.21,4.64c-0.11,1.84-0.49,3.67-1.13,5.42
			c-2.67,7.37-9.42,12.44-17.21,12.92l-0.5,0.02C39.25,62.4,35.2,62.52,31.16,62.52z M31.25,2c-4.15,0-8.29,0.13-12.41,0.38
			c-4.39,0.27-8.5,2.19-11.58,5.4c-2.9,3.02-4.63,6.95-4.89,11.07c-0.13,2.18-0.23,4.57-0.3,7.29c-0.15,5.92-0.05,11.82,0.3,17.53
			c0.5,8.11,6.44,14.77,14.45,16.21c0.76,0.14,1.41,0.22,2.02,0.26c8.03,0.49,16.21,0.5,24.32,0.02l0.5-0.02
			c6.99-0.43,13.06-4.99,15.45-11.6c0.57-1.58,0.91-3.22,1.01-4.87c0.09-1.53,0.15-3.06,0.21-4.59c0.26-6.84,0.19-13.64-0.21-20.23
			l0,0c-0.28-4.46-2.25-8.63-5.55-11.73c-1.74-1.63-3.75-2.88-5.95-3.69c-1.62-0.6-3.29-0.95-4.97-1.06C39.54,2.13,35.4,2,31.25,2z"
			/>
	</g>
	<g>
		<g>
			<g>
				<g>
					<g>
						<path class="st1" d="M45.33,44.21l-4.64-4.64v-4.63h-2.43c-1.46,0-2.82-0.79-3.54-2.05l-2.41-4.22
							c-0.21-0.36-0.31-0.77-0.31-1.18c0-1.31,1.07-2.38,2.38-2.38h6.94c0.62,0,1.12-0.5,1.12-1.12v-2.23c0-0.24-0.12-0.46-0.3-0.59
							l-1.64,2.46h-6.15c-1.29,0-2.34-1.05-2.34-2.34v-1.67c0-1.29,1.05-2.34,2.34-2.34h2.88v-1.48h-0.15
							c-1.83,0-3.33-1.49-3.33-3.33v-1.15h2v1.15c0,0.73,0.6,1.33,1.33,1.33h2.15v5.48h-4.88c-0.19,0-0.34,0.15-0.34,0.34v1.67
							c0,0.19,0.15,0.34,0.34,0.34h5.08l1.74-2.61h0.54c1.51,0,2.74,1.23,2.74,2.74v2.23c0,1.72-1.4,3.12-3.12,3.12h-6.94
							c-0.21,0-0.38,0.17-0.38,0.38c0,0.06,0.02,0.13,0.05,0.18l2.41,4.22c0.37,0.65,1.06,1.05,1.8,1.05h4.43v5.8l4.05,4.05
							L45.33,44.21z"/>
					</g>
					<g>
						<path class="st1" d="M30.51,47.11h-3.15l-6.15-6.15c-0.9-0.9-1.4-2.1-1.4-3.37v-2.66h-1.11c-1.14,0-2.22-0.43-3.05-1.2
							l-4.86-4.55l1.37-1.46l4.86,4.55c0.46,0.43,1.06,0.67,1.68,0.67h3.11v4.66c0,0.73,0.3,1.44,0.81,1.96l5.56,5.56h0.33V34.1
							c0-1.46-1.18-2.64-2.64-2.64h-3.8c-1.24,0-2.26-1.01-2.26-2.26v-2.64l4.53-4.53c0.45-0.45,0.69-1.04,0.7-1.67l0.05-9.04
							l2,0.01l-0.05,9.04c-0.01,1.16-0.46,2.25-1.28,3.08l-3.94,3.94v1.81c0,0.14,0.12,0.26,0.26,0.26h3.8
							c2.56,0,4.64,2.08,4.64,4.64V47.11z"/>
					</g>
				</g>
				<g>
					<g>
						<path class="st1" d="M47.9,42h-2v-4.58c0-2.47,2.01-4.48,4.48-4.48v2c-1.37,0-2.48,1.11-2.48,2.48V42z"/>
					</g>
				</g>
			</g>
		</g>
		<g>
			<path class="st1" d="M31.25,51.46c-11.58,0-21-9.42-21-21c0-11.58,9.42-21,21-21c11.58,0,21,9.42,21,21
				C52.25,42.04,42.83,51.46,31.25,51.46z M31.25,11.46c-10.48,0-19,8.52-19,19c0,10.48,8.52,19,19,19c10.48,0,19-8.52,19-19
				C50.25,19.99,41.73,11.46,31.25,11.46z"/>
		</g>
	</g>
</g>
</svg>
