<?xml version="1.0" encoding="utf-8"?>
<!-- Generator: Adobe Illustrator 23.1.0, SVG Export Plug-In . SVG Version: 6.00 Build 0)  -->
<svg version="1.1" id="Layer_1" xmlns="http://www.w3.org/2000/svg" xmlns:xlink="http://www.w3.org/1999/xlink" x="0px" y="0px"
	 viewBox="0 0 62.5 62.52" style="enable-background:new 0 0 62.5 62.52;" xml:space="preserve">
<style type="text/css">
	.st0{opacity:0.4;}
	.st1{fill:#3CB3F2;}
</style>
<g>
	<g class="st0">
		<path class="st1" d="M31.33,62.52c-4.17,0-8.32-0.13-12.44-0.38c-0.69-0.04-1.41-0.13-2.25-0.29C7.72,60.25,1.1,52.82,0.54,43.79
			c-0.36-5.77-0.46-11.72-0.31-17.7c0.07-2.75,0.17-5.15,0.31-7.36c0.28-4.6,2.22-8.98,5.44-12.33C9.42,2.82,14,0.69,18.89,0.39
			c8.32-0.51,16.75-0.51,25.06,0c1.88,0.12,3.74,0.51,5.54,1.18c2.45,0.91,4.68,2.29,6.62,4.11c3.68,3.45,5.88,8.09,6.18,13.06l0,0
			c0.41,6.65,0.48,13.52,0.21,20.42c-0.06,1.55-0.12,3.1-0.21,4.64c-0.11,1.84-0.49,3.67-1.13,5.42
			c-2.67,7.37-9.42,12.44-17.21,12.92l-0.5,0.02C39.42,62.4,35.37,62.52,31.33,62.52z M31.42,2c-4.15,0-8.29,0.13-12.41,0.38
			c-4.39,0.27-8.5,2.19-11.58,5.4c-2.9,3.02-4.63,6.95-4.89,11.07c-0.13,2.18-0.23,4.57-0.3,7.29c-0.15,5.92-0.05,11.82,0.3,17.53
			c0.5,8.11,6.44,14.77,14.45,16.21c0.76,0.14,1.41,0.22,2.02,0.26c8.03,0.49,16.21,0.5,24.32,0.02l0.5-0.02
			c6.99-0.43,13.06-4.99,15.45-11.6c0.57-1.58,0.91-3.22,1.01-4.87c0.09-1.53,0.15-3.06,0.21-4.59c0.26-6.84,0.19-13.64-0.21-20.23
			l0,0c-0.28-4.46-2.25-8.63-5.55-11.73C53,5.49,51,4.25,48.8,3.44c-1.62-0.6-3.29-0.95-4.97-1.06C39.71,2.13,35.57,2,31.42,2z"/>
	</g>
	<g>
		<g>
			<polygon class="st1" points="17.85,45.84 15.85,45.84 15.85,40.73 20.96,40.73 20.96,42.73 17.85,42.73 			"/>
		</g>
		<g>
			<path class="st1" d="M31.18,49.6c-4.84,0-8.79-1.44-12.41-4.52c-0.6-0.51-2.44-2.43-2.65-2.64l1.44-1.38
				c0.54,0.57,2.05,2.12,2.5,2.5c3.34,2.84,6.82,4.09,11.34,4.05c4.58-0.04,8.83-1.8,11.97-4.94c3.26-3.26,5.04-7.54,5.04-12.06
				c-0.01-2.33-0.53-4.72-1.53-6.9l1.82-0.83c1.11,2.44,1.7,5.11,1.71,7.73c0.01,5.06-1.99,9.84-5.62,13.48
				c-3.51,3.51-8.26,5.47-13.37,5.52C31.35,49.6,31.27,49.6,31.18,49.6z"/>
		</g>
		<g>
			<path class="st1" d="M14.13,38.33c-1.11-2.44-1.7-5.11-1.71-7.73c-0.01-5.06,1.99-9.84,5.62-13.48
				c3.51-3.51,8.26-5.48,13.37-5.53c4.91-0.07,8.97,1.39,12.66,4.52c0.6,0.51,2.44,2.43,2.65,2.64l-1.45,1.38
				c-0.54-0.57-2.05-2.12-2.5-2.5c-3.34-2.84-6.81-4.1-11.34-4.05c-4.58,0.05-8.84,1.8-11.98,4.94c-3.26,3.26-5.04,7.54-5.03,12.06
				c0,2.33,0.53,4.72,1.53,6.9L14.13,38.33z"/>
		</g>
		<g>
			<polygon class="st1" points="46.99,20.45 41.88,20.45 41.88,18.45 44.99,18.45 44.99,15.34 46.99,15.34 			"/>
		</g>
		<g>
			<polygon class="st1" points="23.45,30.55 22.25,28.95 29.8,23.29 33.23,26.71 39.39,22.09 40.59,23.69 33.04,29.35 29.61,25.93 
							"/>
		</g>
		<g>
			<rect x="21.85" y="33.18" class="st1" width="2" height="5.14"/>
		</g>
		<g>
			<rect x="25.28" y="31.46" class="st1" width="2" height="6.86"/>
		</g>
		<g>
			<rect x="28.7" y="28.89" class="st1" width="2" height="9.43"/>
		</g>
		<g>
			<rect x="32.13" y="31.46" class="st1" width="2" height="6.86"/>
		</g>
		<g>
			<rect x="35.56" y="29.75" class="st1" width="2" height="8.57"/>
		</g>
		<g>
			<rect x="38.99" y="27.18" class="st1" width="2" height="11.14"/>
		</g>
	</g>
</g>
</svg>
