<?xml version="1.0" encoding="utf-8"?>
<!-- Generator: Adobe Illustrator 23.1.0, SVG Export Plug-In . SVG Version: 6.00 Build 0)  -->
<svg version="1.1" id="Layer_1" xmlns="http://www.w3.org/2000/svg" xmlns:xlink="http://www.w3.org/1999/xlink" x="0px" y="0px"
	 viewBox="0 0 62.5 62.52" style="enable-background:new 0 0 62.5 62.52;" xml:space="preserve">
<style type="text/css">
	.st0{opacity:0.4;}
	.st1{fill:#3CB3F2;}
</style>
<g>
	<g class="st0">
		<path class="st1" d="M31.16,62.52c-4.17,0-8.32-0.13-12.44-0.38c-0.69-0.04-1.41-0.13-2.25-0.29c-8.92-1.6-15.53-9.03-16.09-18.06
			c-0.36-5.77-0.46-11.72-0.31-17.7c0.07-2.75,0.17-5.15,0.31-7.36c0.28-4.6,2.22-8.98,5.44-12.33c3.43-3.57,8.01-5.71,12.9-6.01
			c8.32-0.51,16.75-0.51,25.06,0c1.88,0.12,3.74,0.51,5.54,1.18c2.45,0.91,4.68,2.29,6.62,4.11c3.68,3.45,5.88,8.09,6.18,13.06l0,0
			c0.41,6.65,0.48,13.52,0.21,20.42c-0.06,1.55-0.12,3.1-0.21,4.64c-0.11,1.84-0.49,3.67-1.13,5.42
			c-2.67,7.37-9.42,12.44-17.21,12.92l-0.5,0.02C39.25,62.4,35.2,62.52,31.16,62.52z M31.25,2c-4.15,0-8.29,0.13-12.41,0.38
			c-4.39,0.27-8.5,2.19-11.58,5.4c-2.9,3.02-4.63,6.95-4.89,11.07c-0.13,2.18-0.23,4.57-0.3,7.29c-0.15,5.92-0.05,11.82,0.3,17.53
			c0.5,8.11,6.44,14.77,14.45,16.21c0.76,0.14,1.41,0.22,2.02,0.26c8.03,0.49,16.21,0.5,24.32,0.02l0.5-0.02
			c6.99-0.43,13.06-4.99,15.45-11.6c0.57-1.58,0.91-3.22,1.01-4.87c0.09-1.53,0.15-3.06,0.21-4.59c0.26-6.84,0.19-13.64-0.21-20.23
			l0,0c-0.28-4.46-2.25-8.63-5.55-11.73c-1.74-1.63-3.75-2.88-5.95-3.69c-1.62-0.6-3.29-0.95-4.97-1.06C39.54,2.13,35.4,2,31.25,2z"
			/>
	</g>
	<g>
		<g>
			<path class="st1" d="M43.95,40.11c-3.69,0-6.7-3-6.7-6.7c0-3.69,3-6.7,6.7-6.7c3.69,0,6.7,3,6.7,6.7
				C50.65,37.1,47.64,40.11,43.95,40.11z M43.95,28.71c-2.59,0-4.7,2.11-4.7,4.7s2.11,4.7,4.7,4.7s4.7-2.11,4.7-4.7
				S46.54,28.71,43.95,28.71z"/>
		</g>
		<g>
			<path class="st1" d="M11.18,43.02l-1.07-1.69l3.79-2.39c3.09-4.24,6.92-10,7.93-11.73c0.43-0.74,1.22-1.71,2.12-2.61
				c1.79-1.79,3.73-4.64,4.66-6.01l0.33-0.48c0.3-0.43,0.7-0.79,1.27-1.12c0.07-0.04,6.49-3.74,8.57-5.03
				c0.53-0.33,1.17-0.34,1.71-0.01c0.84,0.51,1.3,1.72,1.18,3.08c-0.09,1.02-0.68,3.51-4.15,4.95c-0.94,0.96-5.09,5.07-5.66,5.49
				l-1.17-1.62c0.48-0.37,5-4.82,5.53-5.4l0.16-0.17l0.21-0.08c2.35-0.92,2.93-2.35,3.06-3.11c0.1-0.58,0-1.02-0.1-1.26
				c-2.33,1.43-8.07,4.74-8.33,4.88c-0.3,0.18-0.51,0.35-0.64,0.53l-0.32,0.46c-0.97,1.42-2.98,4.37-4.9,6.3
				c-0.77,0.77-1.46,1.62-1.81,2.21c-1.16,2-5.24,8.07-8.16,12.06l-0.11,0.15L11.18,43.02z"/>
		</g>
		<g>
			<path class="st1" d="M24.94,26.32l-1.91-0.59l2.45-7.98c0.1-0.4,0.29-0.81,0.55-1.19l0.31-0.45c0.98-1.41,2.88-4.13,3.64-5.25
				c0.63-0.91,1.62-1.2,2.51-0.74c1.27,0.66,1.93,2.6,1.38,4.08c-0.45,1.21-1.45,3.52-1.49,3.61l-1.83-0.8
				c0.01-0.02,1.02-2.35,1.45-3.51c0.21-0.57-0.1-1.31-0.34-1.55c-0.01,0.01-0.02,0.02-0.03,0.04c-0.77,1.11-2.67,3.85-3.65,5.25
				l-0.31,0.45c-0.13,0.18-0.22,0.38-0.27,0.59L24.94,26.32z"/>
		</g>
		<g>
			<path class="st1" d="M21.79,50.41l-1.24-1.57l3.3-2.6c0.87-0.69,2-1.02,3.14-0.93c2.83,0.21,4.8-0.69,7.09-1.74l0.64-0.27
				c1.23-0.32,4.09-0.81,5.37-0.81c1.05,0,3.38,0.38,4.74,0.6c0.14-0.32,0.18-0.68,0.12-1.06c-0.09-0.57-0.39-1.06-0.81-1.31
				c-1.08-0.65-3.25-1.37-4.87-1.38c-0.42,0-0.88,0.02-1.34,0.04c-1.84,0.08-3.93,0.17-5.44-1.09l-0.08-0.07
				c-0.82-0.85-2.2-2.44-2.21-3.54c-0.02-1.46,1.6-4.51,1.92-5.1l0.12-0.21l4.29-2.9l5.28-0.24L42,26.28
				c2.68,0.95,3.96,0.12,4.38-0.28c0.33-0.31,0.43-0.61,0.45-0.77c-1.95-0.71-4.34-1.5-4.97-1.71l-6.46,0.12l-5.23,2.72l-0.92-1.77
				l5.64-2.94l7.27-0.14l0.16,0.05c0.03,0.01,3.13,1.03,5.45,1.88l0.18,0.09c0.89,0.55,1.13,1.72,0.59,2.85
				c-0.65,1.36-2.86,3.24-7.03,1.84l-4.33,0.2l-3.42,2.31c-0.78,1.47-1.57,3.32-1.56,3.91c0.06,0.28,0.83,1.31,1.61,2.13
				c0.92,0.73,2.5,0.66,4.03,0.6c0.5-0.02,0.98-0.04,1.44-0.04c2.06,0.02,4.57,0.87,5.89,1.67c0.92,0.56,1.58,1.58,1.75,2.72
				c0.18,1.15-0.14,2.28-0.87,3.11l-0.36,0.41l-1.04-0.17c-1.18-0.19-3.64-0.59-4.57-0.59c-1.05,0-3.63,0.44-4.79,0.73l-0.39,0.18
				c-2.43,1.11-4.72,2.17-8.07,1.91c-0.65-0.05-1.27,0.13-1.75,0.5L21.79,50.41z"/>
		</g>
	</g>
</g>
</svg>
