<?xml version="1.0" encoding="utf-8"?>
<!-- Generator: Adobe Illustrator 23.1.0, SVG Export Plug-In . SVG Version: 6.00 Build 0)  -->
<svg version="1.1" id="Layer_1" xmlns="http://www.w3.org/2000/svg" xmlns:xlink="http://www.w3.org/1999/xlink" x="0px" y="0px"
	 viewBox="0 0 62.5 62.52" style="enable-background:new 0 0 62.5 62.52;" xml:space="preserve">
<style type="text/css">
	.st0{opacity:0.4;}
	.st1{fill:#3CB3F2;}
</style>
<g class="st0">
	<path class="st1" d="M31.16,62.52c-4.17,0-8.32-0.13-12.44-0.38c-0.69-0.04-1.41-0.13-2.25-0.29c-8.92-1.6-15.53-9.03-16.09-18.06
		c-0.36-5.77-0.46-11.72-0.31-17.7c0.07-2.75,0.17-5.15,0.31-7.36c0.28-4.6,2.22-8.98,5.44-12.33c3.43-3.57,8.01-5.71,12.9-6.01
		c8.32-0.51,16.75-0.51,25.06,0c1.88,0.12,3.74,0.51,5.54,1.18c2.45,0.91,4.68,2.29,6.62,4.11c3.68,3.45,5.88,8.09,6.18,13.06l0,0
		c0.41,6.65,0.48,13.52,0.21,20.42c-0.06,1.55-0.12,3.1-0.21,4.64c-0.11,1.84-0.49,3.67-1.13,5.42
		c-2.67,7.37-9.42,12.44-17.21,12.92l-0.5,0.02C39.25,62.4,35.2,62.52,31.16,62.52z M31.25,2c-4.15,0-8.29,0.13-12.41,0.38
		c-4.39,0.27-8.5,2.19-11.58,5.4c-2.9,3.02-4.63,6.95-4.89,11.07c-0.13,2.18-0.23,4.57-0.3,7.29c-0.15,5.92-0.05,11.82,0.3,17.53
		c0.5,8.11,6.44,14.77,14.45,16.21c0.76,0.14,1.41,0.22,2.02,0.26c8.03,0.49,16.21,0.5,24.32,0.02l0.5-0.02
		c6.99-0.43,13.06-4.99,15.45-11.6c0.57-1.58,0.91-3.22,1.01-4.87c0.09-1.53,0.15-3.06,0.21-4.59c0.26-6.84,0.19-13.64-0.21-20.23
		l0,0c-0.28-4.46-2.25-8.63-5.55-11.73c-1.74-1.63-3.75-2.88-5.95-3.69c-1.62-0.6-3.29-0.95-4.97-1.06C39.54,2.13,35.4,2,31.25,2z"
		/>
</g>
<g>
	<g>
		<g>
			<g>
				<g>
					<g>
						<g>
							<path class="st1" d="M25.17,48.02h-7.84v-2h7.56l14.37-4.12l8.3-5.38c0.26-0.17,0.33-0.43,0.34-0.57
								c0.01-0.14,0-0.41-0.23-0.64c-0.26-0.27-0.68-0.31-1-0.1l-5.79,3.9c-0.48,0.32-1.04,0.49-1.62,0.49H30.2v-2h9.06
								c0.18,0,0.35-0.05,0.5-0.15l5.79-3.9c1.11-0.74,2.59-0.59,3.53,0.35c0.59,0.59,0.89,1.42,0.8,2.25s-0.53,1.58-1.23,2.05
								l-8.7,5.58L25.17,48.02z"/>
						</g>
					</g>
				</g>
			</g>
		</g>
		<g>
			<path class="st1" d="M18.21,40.74h-2.08v-2h1.48l5.75-3.78c0.86-0.69,1.94-1.07,3.05-1.07h10.37c0.84,0,1.53,0.69,1.53,1.53v0.6
				c0,1.98-1.61,3.59-3.59,3.59H30.2v-2h4.53c0.88,0,1.59-0.71,1.59-1.59v-0.13h-9.9c-0.66,0-1.31,0.23-1.82,0.65l-0.08,0.06
				L18.21,40.74z"/>
		</g>
		<g>
			<polygon class="st1" points="19.38,49.64 10.9,49.64 10.9,47.64 16.88,47.64 15.33,40.74 10.93,40.74 10.93,38.74 16.93,38.74 
							"/>
		</g>
	</g>
	<g>
		<path class="st1" d="M29.46,28.88c-2.75,0-4.99-2.24-4.99-4.99s2.24-4.99,4.99-4.99s4.99,2.24,4.99,4.99S32.21,28.88,29.46,28.88z
			 M29.46,20.91c-1.65,0-2.99,1.34-2.99,2.99c0,1.65,1.34,2.99,2.99,2.99s2.99-1.34,2.99-2.99C32.45,22.25,31.11,20.91,29.46,20.91z
			"/>
	</g>
	<g>
		<path class="st1" d="M39.52,20.83c-2.75,0-4.99-2.24-4.99-4.99c0-2.75,2.24-4.99,4.99-4.99s4.99,2.24,4.99,4.99
			C44.5,18.59,42.27,20.83,39.52,20.83z M39.52,12.85c-1.65,0-2.99,1.34-2.99,2.99c0,1.65,1.34,2.99,2.99,2.99s2.99-1.34,2.99-2.99
			C42.5,14.19,41.16,12.85,39.52,12.85z"/>
	</g>
	<g>
		<path class="st1" d="M40.8,33.15c-2.75,0-4.99-2.24-4.99-4.99s2.24-4.99,4.99-4.99s4.99,2.24,4.99,4.99S43.55,33.15,40.8,33.15z
			 M40.8,25.17c-1.65,0-2.99,1.34-2.99,2.99s1.34,2.99,2.99,2.99s2.99-1.34,2.99-2.99S42.45,25.17,40.8,25.17z"/>
	</g>
</g>
</svg>
