<?xml version="1.0" encoding="utf-8"?>
<!-- Generator: Adobe Illustrator 23.1.0, SVG Export Plug-In . SVG Version: 6.00 Build 0)  -->
<svg version="1.1" id="Layer_1" xmlns="http://www.w3.org/2000/svg" xmlns:xlink="http://www.w3.org/1999/xlink" x="0px" y="0px"
	 viewBox="0 0 62.5 62.52" style="enable-background:new 0 0 62.5 62.52;" xml:space="preserve">
<style type="text/css">
	.st0{opacity:0.4;}
	.st1{fill:#3CB3F2;}
</style>
<g class="st0">
	<path class="st1" d="M31.16,62.52c-4.17,0-8.32-0.13-12.44-0.38c-0.69-0.04-1.41-0.13-2.25-0.29C7.55,60.25,0.93,52.82,0.38,43.79
		c-0.36-5.77-0.46-11.72-0.31-17.7c0.07-2.73,0.17-5.14,0.31-7.36c0.28-4.6,2.22-8.98,5.44-12.33c3.43-3.57,8.01-5.71,12.9-6.01
		c8.31-0.51,16.75-0.51,25.06,0c1.88,0.12,3.74,0.51,5.54,1.18c2.46,0.91,4.68,2.29,6.62,4.11c3.68,3.45,5.87,8.09,6.18,13.06l0,0
		c0.41,6.66,0.48,13.53,0.21,20.42l0,0.13c-0.06,1.5-0.12,3.01-0.21,4.52c-0.11,1.84-0.49,3.67-1.13,5.42
		c-2.67,7.37-9.42,12.44-17.21,12.92l-0.5,0.02C39.25,62.4,35.2,62.52,31.16,62.52z M31.25,2c-4.15,0-8.29,0.13-12.41,0.38
		c-4.39,0.27-8.5,2.19-11.58,5.4c-2.9,3.02-4.63,6.95-4.89,11.07c-0.14,2.2-0.24,4.58-0.3,7.29c-0.15,5.92-0.05,11.82,0.3,17.53
		c0.5,8.1,6.44,14.77,14.45,16.21c0.77,0.14,1.41,0.22,2.02,0.26c8.03,0.5,16.22,0.5,24.32,0.02l0.5-0.02
		c6.99-0.43,13.06-4.99,15.45-11.6c0.57-1.58,0.91-3.21,1.01-4.87c0.09-1.49,0.15-2.98,0.21-4.47l0-0.13
		c0.27-6.82,0.19-13.63-0.21-20.22l0,0c-0.28-4.46-2.25-8.63-5.55-11.73c-1.74-1.63-3.74-2.87-5.95-3.69
		c-1.62-0.6-3.29-0.95-4.97-1.06C39.54,2.13,35.4,2,31.25,2z"/>
</g>
<g>
	<g>
		<g>
			<polygon class="st1" points="21.13,26.05 19.13,26.05 19.13,16.05 24.68,16.05 24.68,22.49 22.68,22.49 22.68,18.05 21.13,18.05 
							"/>
		</g>
		<g>
			<polygon class="st1" points="45.38,45.85 17.13,45.85 17.13,33.6 19.13,33.6 19.13,43.85 43.38,43.85 43.38,33.6 45.38,33.6 			
				"/>
		</g>
		<g>
			<polygon class="st1" points="47.04,32 31.25,16.21 15.46,32 14.04,30.59 31.25,13.38 48.46,30.59 			"/>
		</g>
		<g>
			<polygon class="st1" points="44.04,35.06 31.25,22.26 18.46,35.06 17.04,33.64 31.25,19.44 45.46,33.64 			"/>
		</g>
		<g>
			<rect x="13.25" y="43.85" class="st1" width="36" height="2"/>
		</g>
	</g>
	<g>
		<g>
			<rect x="24.25" y="34.02" class="st1" width="2" height="6"/>
		</g>
		<g>
			<rect x="30.25" y="34.02" class="st1" width="2" height="6"/>
		</g>
		<g>
			<rect x="36.25" y="34.02" class="st1" width="2" height="6"/>
		</g>
	</g>
</g>
</svg>
