<?xml version="1.0" encoding="utf-8"?>
<!-- Generator: Adobe Illustrator 23.1.0, SVG Export Plug-In . SVG Version: 6.00 Build 0)  -->
<svg version="1.1" id="Layer_1" xmlns="http://www.w3.org/2000/svg" x="0px" y="0px"
	 viewBox="20.5 9 1.5 24" style="enable-background:new 0 0 42.5 42.5;" xml:space="preserve">
<style type="text/css">
	.st0{fill:#F4F9FB;}
	.st1{fill:#3CB3F2;}
</style>
<g>
	<g>
		<path class="st1" d="M28.3,32.68H14.19c-2.5,0-4.54-2.04-4.54-4.54V14.02c0-2.5,2.04-4.54,4.54-4.54H28.3
			c2.5,0,4.54,2.04,4.54,4.54v14.11C32.85,30.64,30.81,32.68,28.3,32.68z M14.19,11.48c-1.4,0-2.54,1.14-2.54,2.54v14.11
			c0,1.4,1.14,2.54,2.54,2.54H28.3c1.4,0,2.54-1.14,2.54-2.54V14.02c0-1.4-1.14-2.54-2.54-2.54H14.19z M21.25,27.52
			c-1.72,0-3.34-0.67-4.55-1.89c-1.22-1.21-1.89-2.83-1.89-4.55c0-1.72,0.67-3.34,1.89-4.55c1.22-1.22,2.83-1.89,4.55-1.89
			c1.72,0,3.34,0.67,4.55,1.89s1.89,2.83,1.89,4.55c0,1.72-0.67,3.34-1.89,4.55C24.59,26.85,22.97,27.52,21.25,27.52z M21.25,16.64
			c-1.19,0-2.3,0.46-3.14,1.3c-0.84,0.84-1.3,1.95-1.3,3.14s0.46,2.3,1.3,3.14c0.84,0.84,1.95,1.3,3.14,1.3
			c1.19,0,2.3-0.46,3.14-1.3l0,0c0.84-0.84,1.3-1.95,1.3-3.14s-0.46-2.3-1.3-3.14S22.44,16.64,21.25,16.64z M28,16.23
			c-0.99,0-1.8-0.81-1.8-1.8s0.81-1.8,1.8-1.8s1.8,0.81,1.8,1.8S28.99,16.23,28,16.23z"/>
	</g>
</g>
</svg>
