<?xml version="1.0" encoding="utf-8"?>
<!-- Generator: Adobe Illustrator 23.1.0, SVG Export Plug-In . SVG Version: 6.00 Build 0)  -->
<svg version="1.1" id="Layer_1" xmlns="http://www.w3.org/2000/svg" xmlns:xlink="http://www.w3.org/1999/xlink" x="0px" y="0px"
	 viewBox="0 0 62.5 62.52" style="enable-background:new 0 0 62.5 62.52;" xml:space="preserve">
<style type="text/css">
	.st0{opacity:0.4;}
	.st1{fill:#3CB3F2;}
</style>
<g class="st0">
	<path class="st1" d="M31.16,62.52c-4.17,0-8.32-0.13-12.44-0.38c-0.69-0.04-1.41-0.13-2.25-0.29C7.55,60.25,0.93,52.82,0.38,43.79
		c-0.36-5.77-0.46-11.72-0.31-17.7c0.07-2.73,0.17-5.14,0.31-7.36c0.28-4.6,2.22-8.98,5.44-12.33c3.43-3.57,8.01-5.71,12.9-6.01
		c8.31-0.51,16.75-0.51,25.06,0c1.88,0.12,3.74,0.51,5.54,1.18c2.46,0.91,4.68,2.29,6.62,4.11c3.68,3.45,5.87,8.09,6.18,13.06l0,0
		c0.41,6.66,0.48,13.53,0.21,20.42l0,0.13c-0.06,1.5-0.12,3.01-0.21,4.52c-0.11,1.84-0.49,3.67-1.13,5.42
		c-2.67,7.37-9.42,12.44-17.21,12.92l-0.5,0.02C39.25,62.4,35.2,62.52,31.16,62.52z M31.25,2c-4.15,0-8.29,0.13-12.41,0.38
		c-4.39,0.27-8.5,2.19-11.58,5.4c-2.9,3.02-4.63,6.95-4.89,11.07c-0.14,2.2-0.24,4.58-0.3,7.29c-0.15,5.92-0.05,11.82,0.3,17.53
		c0.5,8.1,6.44,14.77,14.45,16.21c0.77,0.14,1.41,0.22,2.02,0.26c8.03,0.5,16.21,0.5,24.32,0.02l0.5-0.02
		c6.99-0.43,13.06-4.99,15.45-11.6c0.57-1.58,0.91-3.21,1.01-4.87c0.09-1.49,0.15-2.98,0.21-4.47l0-0.13
		c0.27-6.82,0.19-13.63-0.21-20.22l0,0c-0.28-4.46-2.25-8.63-5.55-11.73c-1.74-1.63-3.74-2.87-5.95-3.69
		c-1.62-0.6-3.29-0.95-4.97-1.06C39.54,2.13,35.4,2,31.25,2z"/>
</g>
<g>
	<g>
		<path class="st1" d="M15.14,43.07l-0.77-1.84c0.15-0.06,14.85-6.3,24.03-16.76l1.5,1.32C30.41,36.59,15.76,42.81,15.14,43.07z"/>
	</g>
	<g>
		<path class="st1" d="M29.62,38.02c-2.41,0-4.15-0.5-4.29-0.54l0.57-1.92c0.06,0.01,5.9,1.67,10.71-1.51l1.1,1.67
			C34.95,37.54,31.97,38.02,29.62,38.02z"/>
	</g>
	<g>
		<path class="st1" d="M29.52,34.5l-1.99-0.18c0.03-0.27,0.64-6.76,3.36-10l1.53,1.29C30.11,28.36,29.52,34.44,29.52,34.5z"/>
	</g>
	<g>
		<path class="st1" d="M30.14,46.64c-3.7,0-7.44-1.83-11.14-5.47l-0.15-0.18c-0.15-0.24-3.63-5.85-2.22-11.33
			c0.71-2.78,2.55-5.01,5.45-6.61c4.78-2.65,8.92-3.99,12.56-5.18c4.13-1.34,7.39-2.4,9.63-4.86l1.09-1.2l0.58,1.51
			c3.15,8.18,2.22,17.01-2.54,24.25c-3.63,5.51-7.69,8.55-12.07,9.01C30.93,46.62,30.54,46.64,30.14,46.64z M20.49,39.83
			c3.62,3.52,7.19,5.13,10.63,4.76c3.76-0.4,7.33-3.13,10.61-8.12c4.12-6.27,5.13-13.84,2.85-20.99c-2.44,2.06-5.54,3.06-9.32,4.29
			c-3.56,1.16-7.59,2.47-12.21,5.03c-2.4,1.33-3.9,3.13-4.48,5.35C17.46,34.44,20.07,39.12,20.49,39.83z"/>
	</g>
</g>
</svg>
