<?xml version="1.0" encoding="utf-8"?>
<!-- Generator: Adobe Illustrator 23.1.0, SVG Export Plug-In . SVG Version: 6.00 Build 0)  -->
<svg version="1.1" id="Layer_1" xmlns="http://www.w3.org/2000/svg" xmlns:xlink="http://www.w3.org/1999/xlink" x="0px" y="0px"
	 viewBox="20.5 9 1.5 24" style="enable-background:new 0 0 42.5 42.5;" xml:space="preserve">
<style type="text/css">
	.st0{fill:#F4F9FB;}
	.st1{fill:#3CB3F2;}
</style>
<g>
	<rect x="13.07" y="16.76" class="st1" width="3.97" height="12.67"/>
	<path class="st1" d="M27.78,16.47c-0.15-0.02-0.3-0.03-0.46-0.03c-2.22-0.09-3.48,1.23-3.92,1.79c-0.12,0.15-0.17,0.25-0.17,0.25
		v-1.7h-3.8v12.67h3.8h0.17c0-1.29,0-2.57,0-3.86c0-0.7,0-1.39,0-2.09c0-0.86-0.07-1.78,0.36-2.56c0.36-0.66,1.02-0.99,1.77-0.99
		c2.19,0,2.25,1.98,2.25,2.17c0,0.01,0,0.01,0,0.01v7.37h3.97v-8.26C31.75,18.42,30.31,16.75,27.78,16.47z"/>
	<circle class="st1" cx="15.05" cy="12.81" r="2.3"/>
</g>
</svg>
