<?xml version="1.0" encoding="utf-8"?>
<!-- Generator: Adobe Illustrator 23.1.0, SVG Export Plug-In . SVG Version: 6.00 Build 0)  -->
<svg version="1.1" id="Layer_1" xmlns="http://www.w3.org/2000/svg" xmlns:xlink="http://www.w3.org/1999/xlink" x="0px" y="0px"
	 viewBox="0 0 231 31" style="enable-background:new 0 0 231 31;" xml:space="preserve">
<style type="text/css">
	.st0{fill:#A0CC5A;}
	.st1{fill:#B0BAC1;}
	.st2{fill:#3CB3F2;}
	.st3{fill:#3C50BE;}
</style>
<path d="M52.43,26.8c-3.43,0-6.18-1.02-8.25-3.07c-2.06-2.04-3.1-4.81-3.1-8.31c0-3.48,1.03-6.21,3.08-8.2
	c2.05-1.99,4.81-2.99,8.26-2.99c4.07,0,7.24,1.39,9.5,4.17l-3.37,2.85c-1.39-1.94-3.39-2.91-6.01-2.91c-2.11,0-3.79,0.63-5.06,1.9
	c-1.27,1.27-1.9,3-1.9,5.18c0,2.23,0.63,4,1.9,5.3c1.27,1.31,2.95,1.96,5.06,1.96c2.64,0,4.64-0.96,6.01-2.88l3.37,2.85
	C59.67,25.42,56.5,26.8,52.43,26.8z"/>
<path d="M65.21,26.37V9.63h4.08v2.18c1.29-1.7,3.02-2.54,5.21-2.54c0.51,0,0.9,0.05,1.17,0.15v4.57c-0.78-0.2-1.45-0.31-2.02-0.31
	c-1.25,0-2.26,0.41-3.03,1.23c-0.78,0.82-1.17,2-1.17,3.56v7.91H65.21z"/>
<path d="M86.8,26.74c-2.78,0-5.01-0.79-6.7-2.38c-1.69-1.58-2.53-3.71-2.53-6.39c0-2.64,0.85-4.75,2.55-6.33
	c1.7-1.58,3.92-2.38,6.68-2.38s4.98,0.79,6.65,2.38c1.67,1.58,2.51,3.69,2.51,6.33c0,2.68-0.84,4.81-2.51,6.39
	C91.78,25.95,89.56,26.74,86.8,26.74z M86.8,22.88c1.43,0,2.59-0.45,3.48-1.35c0.89-0.9,1.33-2.09,1.33-3.56
	c0-1.45-0.45-2.62-1.33-3.51c-0.89-0.89-2.05-1.33-3.48-1.33c-1.45,0-2.62,0.44-3.51,1.33c-0.89,0.89-1.33,2.06-1.33,3.51
	c0,1.47,0.44,2.66,1.33,3.56C84.18,22.43,85.35,22.88,86.8,22.88z"/>
<path d="M117.49,9.63h4.32l-5.86,16.83h-2.36l-4.29-10.12l-4.2,10.12h-2.36L96.88,9.63h4.42l3,9.84l3.95-9.9h2.15l4.02,9.96
	L117.49,9.63z"/>
<path d="M131.41,26.74c-2.45,0-4.41-0.79-5.88-2.38c-1.47-1.58-2.21-3.71-2.21-6.39c0-2.66,0.73-4.78,2.18-6.36
	c1.45-1.58,3.36-2.38,5.73-2.38c2.19,0,3.9,0.61,5.15,1.84V3.13h4.17v23.24h-4.11v-1.62C135.33,26.08,133.66,26.74,131.41,26.74z
	 M132.33,22.94c1.92,0,3.29-0.74,4.11-2.21v-5.55c-0.41-0.67-1-1.2-1.78-1.58c-0.78-0.38-1.58-0.57-2.42-0.57
	c-1.37,0-2.47,0.44-3.31,1.3c-0.84,0.87-1.26,2.08-1.26,3.63c0,1.53,0.42,2.74,1.26,3.63C129.76,22.49,130.9,22.94,132.33,22.94z"/>
<path d="M154.18,4.63c2.88,0,5.07,0.66,6.56,1.99c1.49,1.33,2.24,3.27,2.24,5.83c0,5.36-3.09,8.03-9.26,8.03h-3.86v5.88h-4.32V4.63
	H154.18z M153.56,16.68c3.29,0,4.94-1.37,4.94-4.11c0-2.72-1.53-4.08-4.6-4.08h-4.05v8.19H153.56z"/>
<path d="M166.35,26.37V3.13h4.23v23.24H166.35z"/>
<path d="M182.16,26.74c-2.45,0-4.42-0.79-5.89-2.38c-1.47-1.58-2.21-3.71-2.21-6.39c0-2.66,0.73-4.78,2.18-6.36
	c1.45-1.58,3.36-2.38,5.73-2.38c2.19,0,3.9,0.61,5.15,1.84V9.63h4.17v16.74h-4.11v-1.62C186.09,26.08,184.41,26.74,182.16,26.74z
	 M183.08,22.94c1.92,0,3.29-0.74,4.11-2.21v-5.55c-0.41-0.67-1-1.2-1.78-1.58c-0.78-0.38-1.58-0.57-2.42-0.57
	c-1.37,0-2.47,0.44-3.31,1.3c-0.84,0.87-1.26,2.08-1.26,3.63c0,1.53,0.42,2.74,1.26,3.63C180.52,22.49,181.65,22.94,183.08,22.94z"
	/>
<path d="M203.66,26.71c-2.82,0-5.03-0.79-6.62-2.36c-1.59-1.57-2.39-3.7-2.39-6.38c0-2.57,0.81-4.66,2.42-6.27
	c1.61-1.6,3.8-2.41,6.56-2.41c1.57,0,2.99,0.3,4.26,0.89c1.27,0.59,2.28,1.41,3.03,2.45l-2.94,2.64c-0.43-0.63-1.01-1.14-1.75-1.53
	c-0.74-0.39-1.53-0.58-2.39-0.58c-1.47,0-2.65,0.43-3.54,1.3c-0.89,0.87-1.33,2.03-1.33,3.48c0,1.49,0.44,2.68,1.32,3.57
	c0.88,0.89,2.06,1.33,3.53,1.33c0.92,0,1.76-0.2,2.51-0.6c0.76-0.4,1.36-0.91,1.81-1.52l2.88,2.64
	C209.36,25.59,206.91,26.71,203.66,26.71z"/>
<path d="M230.02,18c0,0.61-0.01,1.03-0.03,1.26h-13c0.23,1.25,0.76,2.21,1.61,2.88c0.85,0.67,1.96,1.01,3.33,1.01
	c2.09,0,3.7-0.71,4.84-2.15l2.67,2.27c-1.66,2.29-4.26,3.43-7.82,3.43c-2.78,0-4.96-0.79-6.55-2.36c-1.58-1.57-2.38-3.71-2.38-6.41
	c0-2.64,0.81-4.76,2.42-6.36c1.61-1.6,3.71-2.41,6.28-2.41c2.8,0,4.94,0.8,6.41,2.41C229.28,13.18,230.02,15.32,230.02,18z
	 M221.41,12.7c-1.12,0-2.08,0.29-2.85,0.87c-0.78,0.58-1.29,1.46-1.53,2.62h8.86c-0.14-1-0.58-1.83-1.32-2.5
	C223.83,13.03,222.77,12.7,221.41,12.7z"/>
<g>
	<path class="st0" d="M13.49,9.39c4.12-1.94,7.77-4.7,10.73-8.08c-1-0.47-2.1-0.76-3.26-0.83c-4.07-0.25-8.15-0.25-12.22,0
		C7.25,0.57,5.87,1.02,4.66,1.74c1.81,1.6,3.67,3.14,5.6,4.61C11.47,7.27,12.54,8.29,13.49,9.39z"/>
	<path class="st1" d="M29.48,9.01c-0.12-1.96-0.87-3.75-2.04-5.19c-3.76,4.37-5.71,9.73-5.85,15.14h8
		C29.72,15.65,29.69,12.33,29.48,9.01z"/>
	<path class="st2" d="M18.34,19.21c-0.74-3.56-2.36-6.95-4.86-9.83c-4.08,1.92-8.62,3.03-13.43,3.14c-0.08,2.9-0.03,5.81,0.15,8.71
		c0.26,4.21,3.41,7.67,7.48,8.4l2.69-4.67C12.11,21.96,15.03,19.9,18.34,19.21z"/>
	<path class="st0" d="M10.26,6.35c-1.93-1.47-3.8-3.01-5.6-4.61C2.14,3.24,0.4,5.92,0.21,9.01c-0.07,1.17-0.12,2.34-0.15,3.51
		c4.81-0.1,9.35-1.22,13.43-3.14C12.54,8.29,11.47,7.27,10.26,6.35z"/>
	<path class="st2" d="M10.26,6.35c-1.93-1.47-3.8-3.01-5.6-4.61C2.14,3.24,0.4,5.92,0.21,9.01c-0.07,1.17-0.12,2.34-0.15,3.51
		c4.81-0.1,9.35-1.22,13.43-3.14C12.54,8.29,11.47,7.27,10.26,6.35z"/>
	<path class="st3" d="M23.57,29.2c-1.41-3.26-2.07-6.75-1.97-10.23h-0.83c-0.82,0-1.63,0.09-2.42,0.25
		c0.73,3.53,0.59,7.21-0.42,10.68c1.01-0.03,2.02-0.08,3.03-0.14C21.87,29.7,22.75,29.51,23.57,29.2z"/>
	<path class="st1" d="M23.57,29.2c3.29-1.23,5.69-4.31,5.92-7.97c0.05-0.75,0.08-1.51,0.11-2.26h-8
		C21.5,22.45,22.16,25.94,23.57,29.2z"/>
	<path class="st3" d="M23.57,29.2c3.29-1.23,5.69-4.31,5.92-7.97c0.05-0.75,0.08-1.51,0.11-2.26h-8
		C21.5,22.45,22.16,25.94,23.57,29.2z"/>
	<path class="st2" d="M18.34,19.21c-3.32,0.68-6.23,2.75-7.96,5.75l-2.69,4.67c0.34,0.06,0.69,0.11,1.05,0.13
		c3.06,0.19,6.12,0.24,9.19,0.14C18.94,26.43,19.07,22.75,18.34,19.21z"/>
	<path class="st3" d="M18.34,19.21c-3.32,0.68-6.23,2.75-7.96,5.75l-2.69,4.67c0.34,0.06,0.69,0.11,1.05,0.13
		c3.06,0.19,6.12,0.24,9.19,0.14C18.94,26.43,19.07,22.75,18.34,19.21z"/>
</g>
</svg>
