<?xml version="1.0" encoding="utf-8"?>
<!-- Generator: Adobe Illustrator 23.1.0, SVG Export Plug-In . SVG Version: 6.00 Build 0)  -->
<svg version="1.1" id="Layer_1" xmlns="http://www.w3.org/2000/svg" x="0px" y="0px"
	 viewBox="0 0 62.5 62.52" style="enable-background:new 0 0 62.5 62.52;" xml:space="preserve">
<style type="text/css">
	.st0{opacity:0.4;}
	.st1{fill:#3CB3F2;}
</style>
<g class="st0">
	<path class="st1" d="M31.16,62.65c-4.17,0-8.32-0.13-12.44-0.38c-0.69-0.04-1.41-0.13-2.25-0.29C7.55,60.38,0.93,52.95,0.38,43.93
		c-0.36-5.77-0.46-11.72-0.31-17.7c0.07-2.73,0.17-5.14,0.31-7.36c0.28-4.6,2.22-8.98,5.44-12.33c3.43-3.57,8.01-5.71,12.9-6.01
		c8.31-0.51,16.75-0.51,25.06,0c1.88,0.12,3.74,0.51,5.54,1.18c2.46,0.91,4.68,2.29,6.62,4.11c3.68,3.45,5.87,8.09,6.18,13.06l0,0
		c0.41,6.66,0.48,13.53,0.21,20.42l0,0.13c-0.06,1.5-0.12,3.01-0.21,4.52c-0.11,1.84-0.49,3.67-1.13,5.42
		c-2.67,7.37-9.42,12.44-17.21,12.92l-0.5,0.02C39.25,62.53,35.2,62.65,31.16,62.65z M31.25,2.13c-4.15,0-8.29,0.13-12.41,0.38
		c-4.39,0.27-8.5,2.19-11.58,5.4c-2.9,3.02-4.63,6.95-4.89,11.07c-0.14,2.2-0.24,4.58-0.3,7.29C1.92,32.2,2.02,38.09,2.37,43.8
		c0.5,8.1,6.44,14.77,14.45,16.21c0.77,0.14,1.41,0.22,2.02,0.26c8.03,0.5,16.22,0.5,24.32,0.02l0.5-0.02
		c6.99-0.43,13.06-4.99,15.45-11.6c0.57-1.58,0.91-3.21,1.01-4.87c0.09-1.49,0.15-2.98,0.21-4.47l0-0.13
		c0.27-6.82,0.19-13.63-0.21-20.22l0,0c-0.28-4.46-2.25-8.63-5.55-11.73c-1.74-1.63-3.74-2.87-5.95-3.69
		c-1.62-0.6-3.29-0.95-4.97-1.06C39.54,2.26,35.4,2.13,31.25,2.13z"/>
</g>
<g>
	<g>
		<path class="st1" d="M29.84,38.76c-4.82,0-8.46-1.86-8.46-4.32s3.64-4.32,8.46-4.32s8.46,1.86,8.46,4.32S34.66,38.76,29.84,38.76z
			 M29.84,32.13c-3.89,0-6.46,1.39-6.46,2.32c0,0.92,2.58,2.32,6.46,2.32c3.89,0,6.46-1.39,6.46-2.32
			C36.3,33.52,33.72,32.13,29.84,32.13z"/>
	</g>
	<g>
		<path class="st1" d="M29.84,48.71c-4.82,0-8.46-1.86-8.46-4.32v-4.98h2v4.98c0,0.92,2.58,2.32,6.46,2.32
			c3.89,0,6.46-1.39,6.46-2.32v-4.98h2v4.98C38.3,46.86,34.66,48.71,29.84,48.71z"/>
	</g>
	<g>
		<path class="st1" d="M29.84,43.74c-4.82,0-8.46-1.86-8.46-4.32v-4.98h2v4.98c0,0.92,2.58,2.32,6.46,2.32
			c3.89,0,6.46-1.39,6.46-2.32v-4.98h2v4.98C38.3,41.88,34.66,43.74,29.84,43.74z"/>
	</g>
	<g>
		<path class="st1" d="M39.79,38.76v-2c3.88,0,6.46-1.39,6.46-2.32v-4.98h2v4.98C48.25,36.9,44.61,38.76,39.79,38.76z"/>
	</g>
	<g>
		<path class="st1" d="M19.84,39.57c-4.47-0.22-7.59-1.99-7.59-4.3V30.3h2v4.98c0,0.84,2.16,2.13,5.68,2.3L19.84,39.57z"/>
	</g>
	<g>
		<path class="st1" d="M19.84,34.59c-4.47-0.22-7.59-1.99-7.59-4.3v-4.98h2v4.98c0,0.84,2.16,2.12,5.68,2.3L19.84,34.59z"/>
	</g>
	<g>
		<path class="st1" d="M39.79,43.74v-2c3.88,0,6.46-1.39,6.46-2.32v-4.98h2v4.98C48.25,41.88,44.61,43.74,39.79,43.74z"/>
	</g>
	<g>
		<path class="st1" d="M39.79,33.78v-2c3.88,0,6.46-1.39,6.46-2.32v-4.98h2v4.98C48.25,31.93,44.61,33.78,39.79,33.78z"/>
	</g>
	<g>
		<rect x="31.32" y="24.49" class="st1" width="2" height="4.3"/>
	</g>
	<g>
		<path class="st1" d="M39.79,28.81c-4.83,0-8.46-1.86-8.46-4.32v-4.98h2v4.98c0,0.92,2.58,2.32,6.46,2.32
			c3.88,0,6.46-1.4,6.46-2.32v-4.98h2v4.98C48.25,26.95,44.61,28.81,39.79,28.81z"/>
	</g>
	<g>
		<path class="st1" d="M39.79,23.83c-4.83,0-8.46-1.86-8.46-4.32c0-2.46,3.64-4.32,8.46-4.32c4.82,0,8.46,1.86,8.46,4.32
			C48.25,21.98,44.61,23.83,39.79,23.83z M39.79,17.2c-3.89,0-6.46,1.39-6.46,2.32s2.58,2.32,6.46,2.32c3.88,0,6.46-1.4,6.46-2.32
			S43.67,17.2,39.79,17.2z"/>
	</g>
	<g>
		<path class="st1" d="M20.71,29.64c-4.82,0-8.46-1.86-8.46-4.32c0-2.46,3.64-4.32,8.46-4.32s8.46,1.86,8.46,4.32
			C29.18,27.78,25.54,29.64,20.71,29.64z M20.71,23c-3.89,0-6.46,1.4-6.46,2.32s2.58,2.32,6.46,2.32s6.46-1.39,6.46-2.32
			S24.6,23,20.71,23z"/>
	</g>
	<g>
		<rect x="27.18" y="25.32" class="st1" width="2" height="3.47"/>
	</g>
</g>
</svg>
