<?xml version="1.0" encoding="utf-8"?>
<!-- Generator: Adobe Illustrator 23.1.0, SVG Export Plug-In . SVG Version: 6.00 Build 0)  -->
<svg version="1.1" id="Layer_1" xmlns="http://www.w3.org/2000/svg" xmlns:xlink="http://www.w3.org/1999/xlink" x="0px" y="0px"
	 viewBox="0 0 62.5 62.52" style="enable-background:new 0 0 62.5 62.52;" xml:space="preserve">
<style type="text/css">
	.st0{opacity:0.4;}
	.st1{fill:#3CB3F2;}
</style>
<g class="st0">
	<path class="st1" d="M31.16,62.52c-4.17,0-8.32-0.13-12.44-0.38c-0.69-0.04-1.41-0.13-2.25-0.29C7.55,60.25,0.93,52.82,0.38,43.79
		c-0.36-5.77-0.46-11.72-0.31-17.7c0.07-2.73,0.17-5.14,0.31-7.36c0.28-4.6,2.22-8.98,5.44-12.33c3.43-3.57,8.01-5.71,12.9-6.01
		c8.31-0.51,16.75-0.51,25.06,0c1.88,0.12,3.74,0.51,5.54,1.18c2.46,0.91,4.68,2.29,6.62,4.11c3.68,3.45,5.87,8.09,6.18,13.06l0,0
		c0.41,6.66,0.48,13.53,0.21,20.42l0,0.13c-0.06,1.5-0.12,3.01-0.21,4.52c-0.11,1.84-0.49,3.67-1.13,5.42
		c-2.67,7.37-9.42,12.44-17.21,12.92l-0.5,0.02C39.25,62.4,35.2,62.52,31.16,62.52z M31.25,2c-4.15,0-8.29,0.13-12.41,0.38
		c-4.39,0.27-8.5,2.19-11.58,5.4c-2.9,3.02-4.63,6.95-4.89,11.07c-0.14,2.2-0.24,4.58-0.3,7.29c-0.15,5.92-0.05,11.82,0.3,17.53
		c0.5,8.1,6.44,14.77,14.45,16.21c0.77,0.14,1.41,0.22,2.02,0.26c8.03,0.5,16.22,0.5,24.32,0.02l0.5-0.02
		c6.99-0.43,13.06-4.99,15.45-11.6c0.57-1.58,0.91-3.21,1.01-4.87c0.09-1.49,0.15-2.98,0.21-4.47l0-0.13
		c0.27-6.82,0.19-13.63-0.21-20.22l0,0c-0.28-4.46-2.25-8.63-5.55-11.73c-1.74-1.63-3.74-2.87-5.95-3.69
		c-1.62-0.6-3.29-0.95-4.97-1.06C39.54,2.13,35.4,2,31.25,2z"/>
</g>
<g>
	<g>
		<g>
			<path class="st1" d="M31.25,19.55c-2.23,0-4.04-1.81-4.04-4.04v-1.52c0-2.23,1.81-4.04,4.04-4.04s4.04,1.81,4.04,4.04v1.52
				C35.29,17.73,33.48,19.55,31.25,19.55z M31.25,11.94c-1.13,0-2.04,0.92-2.04,2.04v1.52c0,1.13,0.92,2.04,2.04,2.04
				c1.13,0,2.04-0.92,2.04-2.04v-1.52C33.29,12.86,32.38,11.94,31.25,11.94z"/>
		</g>
		<g>
			<path class="st1" d="M31.25,27.17c-2.05,0-4.1-0.25-6.09-0.75l-1-0.25v-2.12c0-2.36,1.69-4.35,4.01-4.74l0.55-0.09v-0.67h2v2.37
				l-2.22,0.37c-1.36,0.23-2.34,1.39-2.34,2.77v0.56c3.34,0.75,6.83,0.75,10.17,0v-0.56c0-1.38-0.99-2.54-2.34-2.77l-2.22-0.37
				v-2.37h2v0.67l0.55,0.09c2.33,0.39,4.01,2.38,4.01,4.74v2.12l-1,0.25C35.35,26.92,33.3,27.17,31.25,27.17z"/>
		</g>
	</g>
	<g>
		<g>
			<path class="st1" d="M31.25,19.55c-2.23,0-4.04-1.81-4.04-4.04v-1.52c0-2.23,1.81-4.04,4.04-4.04s4.04,1.81,4.04,4.04v1.52
				C35.29,17.73,33.48,19.55,31.25,19.55z M31.25,11.94c-1.13,0-2.04,0.92-2.04,2.04v1.52c0,1.13,0.92,2.04,2.04,2.04
				c1.13,0,2.04-0.92,2.04-2.04v-1.52C33.29,12.86,32.38,11.94,31.25,11.94z"/>
		</g>
		<g>
			<path class="st1" d="M31.25,27.17c-2.05,0-4.1-0.25-6.09-0.75l-1-0.25v-2.12c0-2.36,1.69-4.35,4.01-4.74l0.55-0.09v-1.05h2v2.75
				l-2.22,0.37c-1.36,0.23-2.34,1.39-2.34,2.77v0.56c3.34,0.75,6.83,0.75,10.17,0v-0.56c0-1.38-0.99-2.54-2.34-2.77l-2.22-0.37
				v-2.75h2v1.05l0.55,0.09c2.33,0.39,4.01,2.38,4.01,4.74v2.12l-1,0.25C35.35,26.92,33.3,27.17,31.25,27.17z"/>
		</g>
	</g>
	<g>
		<g>
			<path class="st1" d="M43.66,39.33c-2.23,0-4.04-1.81-4.04-4.04v-1.52c0-2.23,1.81-4.04,4.04-4.04s4.04,1.81,4.04,4.04v1.52
				C47.71,37.52,45.89,39.33,43.66,39.33z M43.66,31.72c-1.13,0-2.04,0.92-2.04,2.04v1.52c0,1.13,0.92,2.04,2.04,2.04
				s2.04-0.92,2.04-2.04v-1.52C45.71,32.64,44.79,31.72,43.66,31.72z"/>
		</g>
		<g>
			<path class="st1" d="M43.66,46.96c-2.05,0-4.09-0.25-6.09-0.75l-1-0.25v-2.12c0-2.36,1.69-4.35,4.01-4.74l0.55-0.09v-0.67h2v2.37
				l-2.22,0.37c-1.36,0.23-2.34,1.39-2.34,2.77v0.56c3.34,0.75,6.84,0.75,10.17,0v-0.56c0-1.38-0.99-2.54-2.34-2.77l-2.22-0.37
				v-2.37h2v0.67l0.55,0.09c2.33,0.39,4.01,2.38,4.01,4.74v2.12l-1,0.25C47.76,46.71,45.71,46.96,43.66,46.96z"/>
		</g>
	</g>
	<g>
		<g>
			<path class="st1" d="M43.66,39.33c-2.23,0-4.04-1.81-4.04-4.04v-1.52c0-2.23,1.81-4.04,4.04-4.04s4.04,1.81,4.04,4.04v1.52
				C47.71,37.52,45.89,39.33,43.66,39.33z M43.66,31.72c-1.13,0-2.04,0.92-2.04,2.04v1.52c0,1.13,0.92,2.04,2.04,2.04
				s2.04-0.92,2.04-2.04v-1.52C45.71,32.64,44.79,31.72,43.66,31.72z"/>
		</g>
		<g>
			<path class="st1" d="M43.66,46.96c-2.05,0-4.09-0.25-6.09-0.75l-1-0.25v-2.12c0-2.36,1.69-4.35,4.01-4.74l0.55-0.09v-1.06h2v2.75
				l-2.22,0.37c-1.36,0.23-2.34,1.39-2.34,2.77v0.56c3.34,0.75,6.84,0.75,10.17,0v-0.56c0-1.38-0.99-2.54-2.34-2.77l-2.22-0.37
				v-2.75h2v1.06l0.55,0.09c2.33,0.39,4.01,2.38,4.01,4.74v2.12l-1,0.25C47.76,46.71,45.71,46.96,43.66,46.96z"/>
		</g>
	</g>
	<g>
		<g>
			<path class="st1" d="M18.84,39.33c-2.23,0-4.04-1.81-4.04-4.04v-1.52c0-2.23,1.81-4.04,4.04-4.04s4.04,1.81,4.04,4.04v1.52
				C22.88,37.52,21.07,39.33,18.84,39.33z M18.84,31.72c-1.13,0-2.04,0.92-2.04,2.04v1.52c0,1.13,0.92,2.04,2.04,2.04
				s2.04-0.92,2.04-2.04v-1.52C20.88,32.64,19.96,31.72,18.84,31.72z"/>
		</g>
		<g>
			<path class="st1" d="M18.84,46.96c-2.05,0-4.1-0.25-6.09-0.75l-1-0.25v-2.12c0-2.36,1.69-4.35,4.01-4.74l0.55-0.09v-1.06h2v2.75
				l-2.22,0.37c-1.36,0.23-2.34,1.39-2.34,2.77v0.56c3.34,0.75,6.83,0.75,10.17,0v-0.56c0-1.38-0.99-2.54-2.34-2.77l-2.22-0.37
				v-2.75h2v1.06l0.55,0.09c2.33,0.39,4.01,2.38,4.01,4.74v2.12l-1,0.25C22.93,46.71,20.88,46.96,18.84,46.96z"/>
		</g>
	</g>
	<g>
		<polygon class="st1" points="36.03,38.72 31.25,35.62 26.47,38.72 25.38,37.05 31.25,33.23 37.12,37.05 		"/>
	</g>
	<g>
		<rect x="30.25" y="28.89" class="st1" width="2" height="5.54"/>
	</g>
</g>
</svg>
