<?xml version="1.0" encoding="utf-8"?>
<!-- Generator: Adobe Illustrator 23.1.0, SVG Export Plug-In . SVG Version: 6.00 Build 0)  -->
<svg version="1.1" id="Layer_1" xmlns="http://www.w3.org/2000/svg" xmlns:xlink="http://www.w3.org/1999/xlink" x="0px" y="0px"
	 viewBox="0 0 62.5 62.52" style="enable-background:new 0 0 62.5 62.52;" xml:space="preserve">
<style type="text/css">
	.st0{fill:#3CB3F2;}
	.st1{opacity:0.4;}
</style>
<g>
	<g>
		<path class="st0" d="M27.96,44.89c-0.59,0-1.2-0.24-1.67-0.71l-7.98-7.98c-0.84-0.84-0.94-2.15-0.23-2.97
			c4.27-5.42,4.35-5.5,4.41-5.56c6.38-6.38,12.35-10.82,17.28-12.85c4.43-1.83,7.13-1.35,8.19-0.3c1.71,1.71,2.69,9.63-13.15,25.47
			l0,0c-0.05,0.05-0.14,0.14-5.59,4.43C28.87,44.74,28.43,44.89,27.96,44.89z M45.05,15.59c-1.01,0-2.52,0.26-4.51,1.08
			c-3.27,1.35-8.8,4.59-16.63,12.42c-0.15,0.17-2.65,3.34-4.28,5.42c-0.03,0.05-0.01,0.17,0.1,0.28l7.98,7.98
			c0.11,0.11,0.23,0.13,0.26,0.12c2.05-1.62,5.13-4.05,5.46-4.33c14.76-14.77,13.9-21.83,13.12-22.62
			C46.37,15.76,45.87,15.59,45.05,15.59z"/>
	</g>
	<g>
		<path class="st0" d="M40.68,24.78c-0.76,0-1.51-0.29-2.09-0.87c-1.15-1.15-1.15-3.03,0-4.18c1.15-1.15,3.03-1.15,4.18,0
			c1.15,1.15,1.15,3.03,0,4.18h0C42.19,24.49,41.43,24.78,40.68,24.78z M40.68,20.86c-0.25,0-0.49,0.09-0.68,0.28
			c-0.37,0.37-0.37,0.98,0,1.36c0.37,0.37,0.98,0.37,1.35,0c0.37-0.37,0.37-0.98,0-1.36C41.17,20.96,40.92,20.86,40.68,20.86z"/>
	</g>
	<g>
		<path class="st0" d="M35.76,29.7c-0.76,0-1.52-0.29-2.09-0.87c-1.15-1.15-1.15-3.03,0-4.18c1.15-1.15,3.03-1.15,4.18,0
			c1.15,1.15,1.15,3.03,0,4.18C37.27,29.41,36.51,29.7,35.76,29.7z M35.76,25.78c-0.25,0-0.49,0.09-0.68,0.28
			c-0.37,0.37-0.37,0.98,0,1.36c0.37,0.37,0.98,0.37,1.36,0c0.37-0.37,0.37-0.98,0-1.36C36.25,25.88,36,25.78,35.76,25.78z"/>
	</g>
	<g>
		<path class="st0" d="M30.84,34.62c-0.76,0-1.52-0.29-2.09-0.87c-1.15-1.15-1.15-3.03,0-4.18c1.15-1.15,3.03-1.15,4.18,0
			c1.15,1.15,1.15,3.03,0,4.18C32.35,34.33,31.59,34.62,30.84,34.62z M30.84,30.7c-0.25,0-0.49,0.09-0.68,0.28
			c-0.37,0.37-0.37,0.98,0,1.35c0.37,0.37,0.98,0.37,1.36,0c0.37-0.37,0.37-0.98,0-1.35C31.33,30.8,31.08,30.7,30.84,30.7z"/>
	</g>
	<g>
		<g>
			
				<rect x="19.39" y="34.01" transform="matrix(0.7071 -0.7071 0.7071 0.7071 -18.4609 25.4418)" class="st0" width="4.18" height="2"/>
		</g>
		<g>
			
				<rect x="22.4" y="37.01" transform="matrix(0.7071 -0.7071 0.7071 0.7071 -19.706 28.4475)" class="st0" width="4.18" height="2"/>
		</g>
		<g>
			
				<rect x="25.4" y="40.02" transform="matrix(0.7071 -0.7071 0.7071 0.7071 -20.9507 31.4524)" class="st0" width="4.18" height="2"/>
		</g>
	</g>
	<g>
		<g>
			
				<rect x="14.31" y="39.18" transform="matrix(0.7071 -0.7071 0.7071 0.7071 -23.6385 23.2975)" class="st0" width="4" height="2"/>
		</g>
		<g>
			
				<rect x="12.49" y="44.19" transform="matrix(0.7071 -0.7071 0.7071 0.7071 -26.8804 25.4755)" class="st0" width="9.64" height="2"/>
		</g>
		<g>
			
				<rect x="18.29" y="46.03" transform="matrix(0.7071 -0.7071 0.7071 0.7071 -26.9663 28.9606)" class="st0" width="6.37" height="2"/>
		</g>
	</g>
	<g>
		<g>
			<path class="st0" d="M21.81,33l-3.94-3.94c-0.4-0.4-0.59-0.99-0.51-1.6c0.1-0.77,0.61-1.51,1.32-1.93
				c1.78-1.04,4.1-1.79,6.55-2.58c1.3-0.42,2.64-0.85,3.99-1.36l0.7,1.88c-1.39,0.52-2.75,0.96-4.07,1.38
				c-2.35,0.76-4.57,1.48-6.16,2.41c-0.23,0.13-0.33,0.34-0.34,0.44l3.88,3.88L21.81,33z"/>
		</g>
		<g>
			<path class="st0" d="M34.76,45.16c-0.51,0-0.98-0.19-1.32-0.53l-3.94-3.94l1.41-1.41l3.88,3.88c0.1-0.02,0.31-0.12,0.44-0.34
				c0.93-1.59,1.65-3.81,2.41-6.17c0.42-1.32,0.87-2.67,1.38-4.06l1.88,0.7c-0.5,1.35-0.93,2.69-1.35,3.98
				c-0.79,2.46-1.55,4.78-2.58,6.56c-0.42,0.71-1.16,1.22-1.93,1.32C34.94,45.15,34.85,45.16,34.76,45.16z"/>
		</g>
	</g>
	<g>
		
			<rect x="25.39" y="28.76" transform="matrix(0.7071 -0.7071 0.7071 0.7071 -17.8005 29.2362)" class="st0" width="2" height="14.69"/>
	</g>
</g>
<g class="st1">
	<path class="st0" d="M31.16,62.65c-4.17,0-8.32-0.13-12.44-0.38c-0.69-0.04-1.41-0.13-2.25-0.29C7.55,60.37,0.93,52.95,0.38,43.92
		c-0.36-5.77-0.46-11.72-0.31-17.7c0.07-2.73,0.17-5.14,0.31-7.36c0.28-4.6,2.22-8.98,5.44-12.33c3.43-3.57,8.01-5.71,12.9-6.01
		C27.03,0,35.47,0,43.78,0.51c1.88,0.12,3.74,0.51,5.54,1.18c2.46,0.91,4.68,2.29,6.62,4.11c3.68,3.45,5.87,8.09,6.18,13.06l0,0
		c0.41,6.66,0.48,13.53,0.21,20.42l0,0.13c-0.06,1.5-0.12,3.01-0.21,4.52c-0.11,1.84-0.49,3.67-1.13,5.42
		c-2.67,7.37-9.42,12.44-17.21,12.92l-0.5,0.02C39.25,62.53,35.2,62.65,31.16,62.65z M31.25,2.13c-4.15,0-8.29,0.13-12.41,0.38
		c-4.39,0.27-8.5,2.19-11.58,5.4c-2.9,3.02-4.63,6.95-4.89,11.07c-0.14,2.2-0.24,4.58-0.3,7.29c-0.15,5.92-0.05,11.82,0.3,17.53
		c0.5,8.1,6.44,14.77,14.45,16.21c0.77,0.14,1.41,0.22,2.02,0.26c8.03,0.5,16.22,0.5,24.32,0.02l0.5-0.02
		c6.99-0.43,13.06-4.99,15.45-11.6c0.57-1.58,0.91-3.21,1.01-4.87c0.09-1.49,0.15-2.98,0.21-4.47l0-0.13
		c0.27-6.82,0.19-13.63-0.21-20.22l0,0c-0.28-4.46-2.25-8.63-5.55-11.73c-1.74-1.63-3.74-2.87-5.95-3.69
		c-1.62-0.6-3.29-0.95-4.97-1.06C39.54,2.26,35.4,2.13,31.25,2.13z"/>
</g>
</svg>
