<?xml version="1.0" encoding="utf-8"?>
<!-- Generator: Adobe Illustrator 23.1.0, SVG Export Plug-In . SVG Version: 6.00 Build 0)  -->
<svg version="1.1" id="Layer_1" xmlns="http://www.w3.org/2000/svg" xmlns:xlink="http://www.w3.org/1999/xlink" x="0px" y="0px"
	 viewBox="0 0 46 46" style="enable-background:new 0 0 46 46;" xml:space="preserve">
<style type="text/css">
	.st0{fill:#3CB3F2;}
	.st1{opacity:0.4;}
</style>
<g>
	<g>
		<path class="st0" d="M21.49,31.48c-2.56,0-5.12-0.97-7.07-2.92c-3.9-3.9-3.9-10.24,0-14.14c1.89-1.89,4.4-2.93,7.07-2.93
			c2.67,0,5.18,1.04,7.07,2.93l0,0l0,0c3.9,3.9,3.9,10.24,0,14.14C26.61,30.51,24.05,31.48,21.49,31.48z M21.49,13.49
			c-2.14,0-4.15,0.83-5.66,2.34c-3.12,3.12-3.12,8.19,0,11.31c3.12,3.12,8.19,3.12,11.31,0c3.12-3.12,3.12-8.19,0-11.31l0,0
			C25.64,14.32,23.63,13.49,21.49,13.49z"/>
	</g>
	<g>
		<rect x="29.68" y="26.68" transform="matrix(0.7071 -0.7071 0.7071 0.7071 -12.709 30.6821)" class="st0" width="2" height="8"/>
	</g>
</g>
<g class="st1">
	<path class="st0" d="M31.15,46h-16.3C6.66,46,0,39.34,0,31.15v-16.3C0,6.66,6.66,0,14.85,0h16.3C39.34,0,46,6.66,46,14.85v16.3
		C46,39.34,39.34,46,31.15,46z M14.85,2C7.76,2,2,7.76,2,14.85v16.3C2,38.24,7.76,44,14.85,44h16.3C38.24,44,44,38.24,44,31.15
		v-16.3C44,7.76,38.24,2,31.15,2H14.85z"/>
</g>
</svg>
