<?xml version="1.0" encoding="utf-8"?>
<!-- Generator: Adobe Illustrator 23.1.0, SVG Export Plug-In . SVG Version: 6.00 Build 0)  -->
<svg version="1.1" id="Layer_1" xmlns="http://www.w3.org/2000/svg" xmlns:xlink="http://www.w3.org/1999/xlink" x="0px" y="0px"
	 viewBox="20 10 4 26" style="enable-background:new 0 0 46 46;" xml:space="preserve">
<style type="text/css">
	.st0{fill:#FFFFFF;}
	.st1{opacity:0.4;}
</style>
<g>
	<g>
		<path class="st0" d="M21.49,31.48c-2.56,0-5.12-0.97-7.07-2.92c-3.9-3.9-3.9-10.24,0-14.14c1.89-1.89,4.4-2.93,7.07-2.93
			s5.18,1.04,7.07,2.93l0,0l0,0c3.9,3.9,3.9,10.24,0,14.14C26.61,30.51,24.05,31.48,21.49,31.48z M21.49,13.49
			c-2.14,0-4.15,0.83-5.66,2.34c-3.12,3.12-3.12,8.19,0,11.31s8.19,3.12,11.31,0s3.12-8.19,0-11.31l0,0
			C25.64,14.32,23.63,13.49,21.49,13.49z"/>
	</g>
	<g>
		<rect x="29.68" y="26.68" transform="matrix(0.7071 -0.7071 0.7071 0.7071 -12.71 30.6797)" class="st0" width="2" height="8"/>
	</g>
</g>
</svg>
