<?xml version="1.0" encoding="utf-8"?>
<!-- Generator: Adobe Illustrator 23.1.0, SVG Export Plug-In . SVG Version: 6.00 Build 0)  -->
<svg version="1.1" id="Layer_1" xmlns="http://www.w3.org/2000/svg" xmlns:xlink="http://www.w3.org/1999/xlink" x="0px" y="0px"
	 viewBox="0 0 26 20" style="enable-background:new 0 0 26 20;" xml:space="preserve">
<style type="text/css">
	.st0{fill:#FFFFFF;}
	.st1{fill:#4E5B31;}
	.st2{fill:#D57800;}
</style>
<rect class="st0" width="26" height="20"/>
<path id="branch" class="st1" d="M13.35,16.3c0,0-0.01,0-0.01-0.01l0,0c-0.02-0.02-0.03-0.03-0.05-0.05
	c-0.04-0.05-0.1-0.11-0.14-0.17c-0.1-0.12-0.17-0.22-0.19-0.24l-0.02-0.03l-0.24-0.07l-0.17-0.08l0.09-0.1l0.32,0.14l0.24,0.05
	l0.44,0.32l0,0c0,0-0.06,0.05-0.13,0.11c-0.03,0.03-0.06,0.06-0.09,0.08c-0.01,0.01-0.02,0.02-0.03,0.03
	C13.36,16.28,13.35,16.29,13.35,16.3 M11.72,15.81c-0.21,0-0.42-0.06-0.61-0.17h0v0c0.02-0.04,0.05-0.07,0.09-0.09
	c0.06-0.04,0.17-0.1,0.34-0.1h0c0.2,0,0.45,0.07,0.74,0.21C12.12,15.76,11.92,15.81,11.72,15.81L11.72,15.81L11.72,15.81z
	 M10.83,15.61c-0.04,0-0.07-0.01-0.1-0.04c-0.02-0.03-0.04-0.06-0.04-0.09c-0.01-0.04-0.01-0.09-0.01-0.13
	c0.02-0.01,0.03-0.01,0.05-0.01h0c0.08,0,0.14,0.07,0.16,0.13c0.01,0.03,0.02,0.06,0.01,0.09C10.88,15.6,10.86,15.61,10.83,15.61
	L10.83,15.61z M12.4,15.43c-0.53-0.08-0.75-0.27-0.85-0.41c-0.06-0.09-0.09-0.2-0.08-0.3v0h0c0.03-0.01,0.05-0.01,0.08-0.01
	C11.7,14.7,12.06,14.77,12.4,15.43L12.4,15.43L12.4,15.43L12.4,15.43z M11.32,15.32c-0.23,0-0.4-0.04-0.51-0.12
	c-0.05-0.03-0.09-0.07-0.11-0.13c-0.01-0.02-0.02-0.04-0.02-0.06c0.08-0.03,0.16-0.05,0.24-0.05c0.01,0,0.02,0,0.04,0
	c0.17,0,0.44,0.06,0.72,0.33l0,0h0C11.55,15.31,11.43,15.32,11.32,15.32L11.32,15.32z M10.22,15.28c-0.24,0-0.57-0.07-0.77-0.28l0,0
	h0c0.16-0.04,0.31-0.06,0.47-0.06c0.01,0,0.03,0,0.04,0c0.22,0,0.39,0.04,0.51,0.13c0.03,0.02,0.06,0.05,0.07,0.08
	c0,0.03-0.01,0.05-0.03,0.07c-0.05,0.04-0.14,0.06-0.27,0.06L10.22,15.28L10.22,15.28z M9.45,14.88c-0.03,0-0.06-0.01-0.08-0.04
	c-0.02-0.02-0.03-0.05-0.03-0.08c-0.01-0.04-0.01-0.07-0.01-0.11v0c0.01-0.01,0.02-0.01,0.04-0.01l0,0c0.03,0,0.06,0.01,0.08,0.04
	c0.02,0.02,0.04,0.05,0.05,0.08c0.01,0.03,0.01,0.05,0.01,0.08C9.49,14.87,9.47,14.88,9.45,14.88L9.45,14.88z M11.23,14.84
	c-0.04,0-0.07-0.01-0.1-0.04c-0.02-0.03-0.04-0.06-0.04-0.09c-0.01-0.04-0.01-0.09-0.01-0.13c0.02-0.01,0.03-0.01,0.05-0.01h0
	c0.08,0,0.14,0.07,0.16,0.13c0.01,0.03,0.02,0.06,0.01,0.09C11.29,14.83,11.26,14.85,11.23,14.84L11.23,14.84z M10.36,14.81
	c-0.48-0.02-0.73-0.15-0.85-0.26c-0.05-0.05-0.1-0.1-0.13-0.17c-0.01-0.02-0.02-0.05-0.03-0.07l0,0c0.04-0.01,0.08-0.02,0.12-0.02
	h0.01C9.65,14.28,9.98,14.35,10.36,14.81L10.36,14.81L10.36,14.81z M10.89,14.76c-0.39-0.06-0.6-0.22-0.72-0.35
	c-0.07-0.08-0.13-0.17-0.16-0.27c0.04-0.01,0.08-0.01,0.12-0.01c0.01,0,0.01,0,0.02,0c0.01,0,0.01,0,0.02,0
	C10.35,14.13,10.71,14.22,10.89,14.76L10.89,14.76L10.89,14.76z M8.9,14.57c-0.12,0-0.25-0.01-0.36-0.04
	c-0.2-0.05-0.29-0.13-0.33-0.18c-0.02-0.02-0.03-0.05-0.03-0.08c0-0.01,0-0.02,0-0.03l0,0c0.1-0.03,0.21-0.04,0.32-0.04
	c0.01,0,0.01,0,0.02,0c0.09,0,0.18,0.01,0.26,0.03c0.2,0.04,0.37,0.15,0.49,0.31v0h0C9.15,14.56,9.03,14.57,8.9,14.57L8.9,14.57z
	 M9.8,14.25c-0.04,0-0.07-0.01-0.1-0.04c-0.02-0.03-0.04-0.06-0.04-0.09c-0.01-0.04-0.01-0.08-0.01-0.13
	c0.02-0.01,0.03-0.01,0.05-0.01h0c0.08,0,0.14,0.07,0.16,0.13c0.01,0.03,0.02,0.06,0.01,0.09C9.86,14.23,9.83,14.25,9.8,14.25
	L9.8,14.25z M9.13,14.16C9,14.12,8.87,14.07,8.76,14c-0.17-0.1-0.38-0.29-0.4-0.57l0,0h0c0.01,0,0.03,0,0.04,0c0,0,0.01,0,0.01,0
	c0.05,0,0.15,0.01,0.28,0.11C8.85,13.65,8.99,13.86,9.13,14.16L9.13,14.16z M9.57,14.14c-0.1-0.05-0.2-0.11-0.29-0.19
	c-0.22-0.19-0.4-0.44-0.51-0.71c0.03-0.01,0.06-0.02,0.09-0.02c0,0,0.01,0,0.01,0c0,0,0.01,0,0.01,0c0.07,0,0.19,0.03,0.31,0.17
	C9.33,13.54,9.46,13.79,9.57,14.14L9.57,14.14L9.57,14.14L9.57,14.14z M8.43,14.11c-0.15,0-0.2-0.08-0.21-0.11
	c-0.01-0.04-0.02-0.07-0.02-0.11v0c0.02-0.01,0.05-0.01,0.07-0.01h0.01c0.1,0,0.19,0.04,0.25,0.12c0.01,0.01,0.03,0.05,0.01,0.08
	C8.52,14.09,8.48,14.11,8.43,14.11L8.43,14.11z M8.1,13.7c-0.11,0-0.23-0.01-0.34-0.03c-0.13-0.02-0.21-0.14-0.24-0.22
	c-0.03-0.06-0.04-0.13-0.05-0.19h0c0.41,0.01,0.6,0.13,0.69,0.23c0.06,0.06,0.09,0.13,0.1,0.21h0C8.24,13.69,8.19,13.7,8.1,13.7
	L8.1,13.7z M8.52,13.27c0,0-0.05-0.06-0.09-0.13c-0.05-0.07-0.09-0.15-0.09-0.22c0-0.06-0.01-0.19-0.02-0.26
	c-0.01-0.09-0.02-0.17-0.02-0.18h0c0.01,0,0.25,0.09,0.25,0.32C8.54,13.04,8.52,13.27,8.52,13.27L8.52,13.27L8.52,13.27L8.52,13.27z
	 M8.21,13.25C8.2,13.25,8.2,13.25,8.21,13.25C8.13,13.24,8,13.18,7.86,13.1c-0.16-0.09-0.28-0.18-0.35-0.27
	c-0.07-0.08-0.11-0.2-0.12-0.36c-0.01-0.07,0-0.15,0-0.22c0.01,0,0.03-0.01,0.04-0.01c0.05,0,0.11,0.03,0.19,0.08
	c0.07,0.05,0.14,0.11,0.2,0.17c0.08,0.08,0.15,0.16,0.22,0.24l0,0c0.01,0.01,0.08,0.14,0.13,0.26c0.03,0.06,0.05,0.11,0.06,0.18
	c0.01,0.02,0.01,0.04,0,0.05c0,0.01-0.01,0.01-0.01,0.01C8.22,13.25,8.21,13.25,8.21,13.25L8.21,13.25z"/>
<g transform="matrix(-1,0,0,1,900,0)">
	<path class="st1" d="M12.55,16.3c0,0,0.01,0,0.01-0.01l0,0c0.02-0.02,0.03-0.03,0.05-0.05c0.04-0.05,0.1-0.11,0.14-0.17
		c0.1-0.12,0.17-0.22,0.19-0.24l0.02-0.03l0.24-0.07l0.17-0.08l-0.09-0.1l-0.32,0.14l-0.24,0.05l-0.44,0.32l0,0
		c0,0,0.06,0.05,0.13,0.11c0.03,0.03,0.06,0.06,0.09,0.08c0.01,0.01,0.02,0.02,0.03,0.03C12.54,16.28,12.55,16.29,12.55,16.3
		 M14.18,15.81c0.21,0,0.42-0.06,0.61-0.17h0v0c-0.02-0.04-0.05-0.07-0.09-0.09c-0.06-0.04-0.17-0.1-0.34-0.1h0
		c-0.2,0-0.45,0.07-0.74,0.21C13.78,15.76,13.98,15.81,14.18,15.81L14.18,15.81L14.18,15.81z M15.07,15.61
		c0.04,0,0.07-0.01,0.1-0.04c0.02-0.03,0.04-0.06,0.04-0.09c0.01-0.04,0.01-0.09,0.01-0.13c-0.02-0.01-0.03-0.01-0.05-0.01h0
		c-0.08,0-0.14,0.07-0.16,0.13C15,15.5,14.99,15.54,15,15.57C15.01,15.6,15.04,15.61,15.07,15.61L15.07,15.61z M13.5,15.43
		c0.53-0.08,0.75-0.27,0.85-0.41c0.06-0.09,0.09-0.2,0.08-0.3v0h0c-0.03-0.01-0.05-0.01-0.08-0.01C14.2,14.7,13.84,14.77,13.5,15.43
		L13.5,15.43L13.5,15.43L13.5,15.43z M14.58,15.32c0.23,0,0.4-0.04,0.51-0.12c0.05-0.03,0.09-0.07,0.11-0.13
		c0.01-0.02,0.02-0.04,0.02-0.06c-0.08-0.03-0.16-0.05-0.24-0.05c-0.01,0-0.02,0-0.04,0c-0.17,0-0.44,0.06-0.72,0.33l0,0h0
		C14.35,15.31,14.46,15.32,14.58,15.32L14.58,15.32z M15.68,15.28c0.24,0,0.57-0.07,0.77-0.28l0,0h0c-0.16-0.04-0.31-0.06-0.47-0.06
		c-0.01,0-0.03,0-0.04,0c-0.22,0-0.39,0.04-0.51,0.13c-0.03,0.02-0.06,0.05-0.07,0.08c0,0.03,0.01,0.05,0.03,0.07
		c0.05,0.04,0.14,0.06,0.27,0.06L15.68,15.28L15.68,15.28z M16.45,14.88c0.03,0,0.06-0.01,0.08-0.04c0.02-0.02,0.03-0.05,0.03-0.08
		c0.01-0.04,0.01-0.07,0.01-0.11v0c-0.01-0.01-0.02-0.01-0.04-0.01l0,0c-0.03,0-0.06,0.01-0.08,0.04c-0.02,0.02-0.04,0.05-0.05,0.08
		c-0.01,0.03-0.01,0.05-0.01,0.08C16.4,14.87,16.43,14.88,16.45,14.88L16.45,14.88z M14.66,14.84c0.04,0,0.07-0.01,0.1-0.04
		c0.02-0.03,0.04-0.06,0.04-0.09c0.01-0.04,0.01-0.09,0.01-0.13c-0.02-0.01-0.03-0.01-0.05-0.01h0c-0.08,0-0.14,0.07-0.16,0.13
		c-0.01,0.03-0.02,0.06-0.01,0.09C14.61,14.83,14.63,14.85,14.66,14.84L14.66,14.84z M15.53,14.81c0.48-0.02,0.73-0.15,0.85-0.26
		c0.05-0.05,0.1-0.1,0.13-0.17c0.01-0.02,0.02-0.05,0.03-0.07l0,0c-0.04-0.01-0.08-0.02-0.12-0.02h-0.01
		C16.25,14.28,15.92,14.35,15.53,14.81L15.53,14.81L15.53,14.81z M15.01,14.76c0.39-0.06,0.6-0.22,0.72-0.35
		c0.07-0.08,0.13-0.17,0.16-0.27c-0.04-0.01-0.08-0.01-0.12-0.01c-0.01,0-0.01,0-0.02,0c-0.01,0-0.01,0-0.02,0
		C15.55,14.13,15.19,14.22,15.01,14.76L15.01,14.76L15.01,14.76z M17,14.57c0.12,0,0.25-0.01,0.36-0.04
		c0.2-0.05,0.29-0.13,0.33-0.18c0.02-0.02,0.03-0.05,0.03-0.08c0-0.01,0-0.02,0-0.03l0,0c-0.1-0.03-0.21-0.04-0.32-0.04
		c-0.01,0-0.01,0-0.02,0c-0.09,0-0.18,0.01-0.26,0.03c-0.2,0.04-0.37,0.15-0.49,0.31v0h0C16.75,14.56,16.87,14.57,17,14.57L17,14.57
		z M16.1,14.25c0.04,0,0.07-0.01,0.1-0.04c0.02-0.03,0.04-0.06,0.04-0.09c0.01-0.04,0.01-0.08,0.01-0.13
		c-0.02-0.01-0.03-0.01-0.05-0.01h0c-0.08,0-0.14,0.07-0.16,0.13c-0.01,0.03-0.02,0.06-0.01,0.09
		C16.04,14.23,16.07,14.25,16.1,14.25L16.1,14.25z M16.77,14.16c0.13-0.04,0.25-0.09,0.37-0.16c0.17-0.1,0.38-0.29,0.4-0.57l0,0h0
		c-0.01,0-0.03,0-0.04,0c0,0-0.01,0-0.01,0c-0.05,0-0.15,0.01-0.28,0.11C17.05,13.65,16.9,13.86,16.77,14.16L16.77,14.16z
		 M16.33,14.14c0.1-0.05,0.2-0.11,0.29-0.19c0.22-0.19,0.4-0.44,0.51-0.71c-0.03-0.01-0.06-0.02-0.09-0.02c0,0-0.01,0-0.01,0
		c0,0-0.01,0-0.01,0c-0.07,0-0.19,0.03-0.31,0.17C16.57,13.54,16.44,13.79,16.33,14.14L16.33,14.14L16.33,14.14L16.33,14.14z
		 M17.47,14.11c0.15,0,0.2-0.08,0.21-0.11c0.01-0.04,0.02-0.07,0.02-0.11v0c-0.02-0.01-0.05-0.01-0.07-0.01h-0.01
		c-0.1,0-0.19,0.04-0.25,0.12c-0.01,0.01-0.03,0.05-0.01,0.08C17.38,14.09,17.42,14.11,17.47,14.11L17.47,14.11z M17.8,13.7
		c0.11,0,0.23-0.01,0.34-0.03c0.13-0.02,0.21-0.14,0.24-0.22c0.03-0.06,0.04-0.13,0.05-0.19h0c-0.41,0.01-0.6,0.13-0.69,0.23
		c-0.06,0.06-0.09,0.13-0.1,0.21h0C17.66,13.69,17.71,13.7,17.8,13.7L17.8,13.7z M17.38,13.27c0,0,0.05-0.06,0.09-0.13
		c0.05-0.07,0.09-0.15,0.09-0.22c0-0.06,0.01-0.19,0.02-0.26c0.01-0.09,0.02-0.17,0.02-0.18h0c-0.01,0-0.25,0.09-0.25,0.32
		C17.35,13.04,17.38,13.27,17.38,13.27L17.38,13.27L17.38,13.27L17.38,13.27z M17.69,13.25C17.69,13.25,17.7,13.25,17.69,13.25
		c0.08-0.01,0.21-0.07,0.35-0.15c0.16-0.09,0.28-0.18,0.35-0.27c0.07-0.08,0.11-0.2,0.12-0.36c0.01-0.07,0-0.15,0-0.22
		c-0.01,0-0.03-0.01-0.04-0.01c-0.05,0-0.11,0.03-0.19,0.08c-0.07,0.05-0.14,0.11-0.2,0.17c-0.08,0.08-0.15,0.16-0.22,0.24l0,0
		c-0.01,0.01-0.08,0.14-0.13,0.26c-0.03,0.06-0.05,0.11-0.06,0.18c-0.01,0.02-0.01,0.04,0,0.05c0,0.01,0.01,0.01,0.01,0.01
		C17.68,13.25,17.69,13.25,17.69,13.25L17.69,13.25z"/>
</g>
<path class="st2" d="M21.4,4.01l-0.07,0.03L21.3,4.05l-0.09,0l-0.08,0.04l-0.14,0.1l-0.01,0L20.93,4.2l-0.05-0.02l-0.03,0.01
	l-0.01,0.06L20.81,4.3l-0.03,0.02l-0.12,0.01l-0.1,0.05l-0.13-0.03l-0.06,0.02l-0.13,0.11l-0.06,0.03l-0.02,0l-0.08,0l-0.04,0.01
	L20,4.57l-0.1,0.01L19.86,4.6l-0.05,0.1l-0.05,0.06l-0.03,0.01L19.7,4.75l-0.02,0l-0.01,0.06l-0.02,0.03l-0.07,0.02l-0.05,0.05
	l-0.05,0.02l-0.06,0h-0.01l-0.06,0.03l-0.12,0.01l-0.05,0.05l-0.01,0.01l-0.02,0.01l-0.04,0.02l-0.01,0.01l-0.05-0.01l-0.05,0.02
	l-0.02-0.03l-0.04,0.02l-0.05,0l-0.06-0.03l-0.05-0.02l-0.03,0L18.72,5.1l0,0.01l-0.04,0.05l-0.07,0.04l-0.01,0.01l-0.08,0.1
	l-0.14,0.15l-0.12,0.06l-0.13,0.04l-0.09,0.07l-0.23,0.11l-0.37,0.18l-0.07,0.02l-0.11,0.02l-0.19,0.07l-0.17,0.05l-0.01,0
	L16.87,6.1l-0.24,0.07l-0.11-0.01l-0.07,0.02l-0.17-0.02l-0.12,0l-0.08,0.02l-0.14,0.07l-0.24,0.11l-0.08,0.07L15.5,6.5l-0.14,0.05
	l0-0.06l0,0L15.31,6.5l-0.04,0.01l-0.12,0.02h-0.06l-0.04-0.01l-0.01,0L14.81,6.6l-0.27,0.03l-0.13,0.04l-0.1,0l-0.06,0.02
	L14.12,6.7l-0.04-0.01l-0.01,0L13.71,6.7l-0.16-0.02L13.47,6.7l-0.13-0.04l-0.19-0.02L13.1,6.62L13,6.59l-0.05,0.03l-0.03,0
	l-0.08-0.03l-0.03,0l-0.07,0.02L12.71,6.6l-0.04-0.03l-0.08-0.01l-0.05-0.04l-0.29,0.04l-0.08-0.02l-0.26-0.08l-0.04,0L11.82,6.5
	l-0.08,0.03l-0.07,0.02l-0.09,0l-0.11-0.03l-0.11-0.05l-0.04-0.01l-0.09,0.01l-0.03,0l-0.17-0.09l-0.21-0.13l-0.15-0.07l-0.05-0.01
	l-0.01,0.03l0.03,0.09l0.01,0.08l0,0.08l0,0.05l0.01,0.04l0.05,0.06l0.02,0.06l0.02,0.16l0,0.16l-0.03,0.26l-0.01,0.04l-0.03,0.14
	l-0.03,0.12l-0.11,0.33l-0.03,0.04l-0.07,0.05l-0.17,0.11l-0.12,0.07l-0.04,0.02l-0.1,0.01l-0.06,0L9.88,8.12L9.81,8.1l-0.1-0.07
	L9.6,8L9.48,7.94L9.45,7.9L9.38,7.89L9.29,7.86v0L9.26,7.85L9.24,7.85l0,0l-0.12,0L9.01,7.79L8.96,7.78l-0.08,0L8.8,7.81l0,0
	L8.76,7.83L8.7,7.81l-0.04,0L8.62,7.88L8.62,7.89L8.59,7.91l-0.04,0l-0.03,0L8.49,7.92L8.45,7.94l0,0L8.41,7.95L8.4,7.96l0,0
	l-0.01,0l-0.02,0l-0.02,0L8.3,7.94L8.27,7.93L8.24,7.92L8.22,7.94l0,0.07L8.19,8.05L8.13,8.1L8.07,8.16L8.03,8.22L7.92,8.47
	l-0.07,0.1L7.83,8.6L7.75,8.68L7.69,8.73L7.54,8.85L7.39,8.9L7.27,8.93l-0.06,0L7.1,8.91L7,8.88L6.89,8.81l-0.12-0.1L6.59,8.54
	L6.56,8.53l-0.01,0L6.5,8.49l-0.04,0L6.44,8.51L6.44,8.55L6.43,8.59L6.41,8.78l0,0.01l0.01,0.08l0.13,0.19l0.04,0.1L6.6,9.17
	l0.03,0.05l0.02,0.04l0,0L6.7,9.39L6.67,9.47l0.02,0.05L6.64,9.55L6.64,9.6l0.12,0.15l0.03,0.07L6.75,9.91L6.71,9.96L6.69,9.97
	l0.01,0.04l0.06,0.05l0.09,0.08l0.05,0.12l0.04,0.03l0.04-0.01l0.02,0.02l0.04,0l0.04,0.04l0.02,0.01l0.04,0.02l0.03,0.04l0.01,0.12
	l0.06,0.15l0,0.08l0,0.01l0.03,0.06l0.01,0.05l-0.02,0.12l0.04,0.04l0.05-0.01l0.03,0l0.05,0.04l0.06,0.09l0.06-0.01l0.04,0.02
	l0.18,0.16l0.04,0.02l0,0l0.03,0.01l0.04,0.04l0.06-0.04l0.01,0L8,11.38l0.03,0.02l0.05,0.04l0.07,0l0.15,0.05l0.06,0.02l0.13,0.08
	l0.06,0.03l0.03,0.03l0.04,0.04l0.09,0.04l0.07,0.02l0.04,0.01l0.03,0.01l0,0h0l0,0l0.16,0.06l0.09,0.02l0.08,0.03l0.06,0.02l0.04,0
	l0.06-0.05l0.06,0l0.05,0.01l0.05-0.01l0.08-0.05l0.01-0.02l0.05-0.03l0.18-0.02l0.05,0.02l0.14-0.06l0.09,0.03l0.08-0.03l0.18,0.04
	l0.05,0.03l0.05,0.06l0.01,0l0.06,0l-0.02,0.04l0.08,0.08l0.07,0.11l0,0.01l0.05,0.15l0.04,0.05l0.03,0.07l0,0.05l-0.04,0.03
	l-0.01,0.02l0,0.01l0.01,0.02l0.02-0.01l0.03-0.02l0.04-0.01l0.06,0.01l0.04,0l0.07-0.03l0.04-0.02l0.07,0.03l0.08,0l0.03,0.01
	l0.09,0.04l0.05,0l0.02-0.01l0.01-0.03l-0.01-0.03l-0.04-0.04l-0.08-0.09l-0.03-0.05l-0.02-0.07l-0.01-0.09L11.19,12l0.01-0.08
	l0.02-0.03l0.02-0.06h0l0-0.02l0.04-0.06l0.11-0.07l0.12-0.11l0.1-0.06l0.1-0.04l0-0.01l0.01,0l0.25-0.09l0,0l0.11-0.02l0.76,0.05
	l0.03-0.01v0l0.03-0.07l0.01-0.01l0.01-0.01l0.08-0.04l0.04-0.01l0.11,0.03l0.04,0.01l0.07-0.04l0.05,0l0.1-0.06l0.06,0l0.02-0.01
	l0.13-0.09l0.12-0.03l0.03-0.02l0.01-0.01l0.12-0.07l0.08-0.06l0.07-0.04l0.07-0.02l0.19-0.01l0.04-0.07l0.08-0.01l0.05-0.06
	l0.06-0.02l0.04-0.06l0.03-0.05l0.05-0.03l0.16-0.01l0.18,0.02l0.02-0.01l0.04-0.15l0.04-0.03l0.12-0.17l0-0.06v-0.05l0.02-0.07
	L15.28,9.9l0.02-0.14l0.07-0.17l0.06-0.07l0.1-0.07l0.05-0.02l0.07-0.01v0l0.01,0l0.02,0l0.26,0c0,0,0.09,0,0.09,0l0.09,0l0.22,0.04
	l0.02,0l0.07,0.02l0.08,0.07l0.09,0.09l0.02,0.02l0.06,0.02l0.02,0.01l0.05-0.01l0.07-0.04l0.05-0.04l0.07-0.04l0,0l0.04-0.06l0,0
	l0,0v0h0L17,9.46l0.14-0.05l0.16-0.01l0.02-0.01l0.01-0.01l0.04-0.05l0.04,0l0.1,0.03l0.07-0.01l0.05,0.02l0.04,0l0.08-0.01
	l0.08,0.06l0.05,0.01l0.17,0.1l0.01,0l0,0l0.01,0l0.02-0.01l0.03-0.01l0,0l0,0.01l0.02,0.03l0.03,0l0.03-0.04l-0.01-0.02l0-0.01
	l-0.06-0.01l-0.06-0.09l0.05-0.06l-0.08-0.1L18.03,9.2l0-0.01l-0.03-0.04l-0.14-0.22l-0.19-0.15l0,0l-0.07-0.05l0,0l-0.02-0.02
	l-0.1-0.1l-0.07-0.1l-0.01-0.02l-0.01-0.03l-0.04-0.09L17.26,8.3l-0.06-0.07l0,0l-0.13-0.17l-0.02-0.03l-0.03-0.02l-0.06,0
	l-0.01-0.01l0,0l0,0l0.03-0.03l0.03-0.01l0.01-0.03l-0.06-0.19l0-0.01l0-0.06L17,7.41l0.01-0.03l0.09-0.18l0.06-0.05l0.06-0.12
	l0.05-0.08l0.05-0.05l0.01-0.01l0.09-0.05l0.08-0.01l0.07-0.01l0.13,0.04l0.12,0l0.02,0l0.05-0.01l0.09-0.03l0.04-0.03l0.02-0.03
	l0.05-0.15l0.01-0.05l0.03-0.05l0.16-0.19l0.12-0.11l0.28-0.2l0.13-0.08l0.07-0.04l0.61-0.27l0.16-0.16l0.08-0.08l0.15-0.1
	l0.17-0.07l0.15-0.12l0.03-0.04l0.04-0.13l0.03-0.01l0.03-0.07l0.01-0.02l0.12-0.09l0.01-0.01l0.47-0.24l0.07,0.01l0.04-0.05
	l0.14-0.02l0.03,0l0.03-0.02l0.03-0.05V4.35l0-0.13l0.03-0.04l0.02-0.09l0.01-0.02l0.02-0.02l0.04-0.03L21.4,4.01L21.4,4.01z"/>
</svg>
