<?xml version="1.0" encoding="utf-8"?>
<!-- Generator: Adobe Illustrator 23.1.0, SVG Export Plug-In . SVG Version: 6.00 Build 0)  -->
<svg version="1.1" id="Layer_1" xmlns="http://www.w3.org/2000/svg" xmlns:xlink="http://www.w3.org/1999/xlink" x="0px" y="0px"
	 viewBox="0 0 26 20" style="enable-background:new 0 0 26 20;" xml:space="preserve">
<style type="text/css">
	.st0{fill:#BA0C2F;}
	.st1{fill:#FFFFFF;}
	.st2{fill:#00205B;}
</style>
<g>
	<g>
		<rect y="0.02" class="st0" width="26" height="19.98"/>
	</g>
	<g>
		<path d="M0,10.01h26 M9.99,0.02V20"/>
		<polygon class="st1" points="12.49,20 7.49,20 7.49,12.51 0,12.51 0,7.51 7.49,7.51 7.49,0.02 12.49,0.02 12.49,7.51 26,7.51 
			26,12.51 12.49,12.51 		"/>
	</g>
	<g>
		<path d="M0,10.01h26 M9.99,0.02V20"/>
		<polygon class="st2" points="11.24,20 8.74,20 8.74,11.26 0,11.26 0,8.76 8.74,8.76 8.74,0.02 11.24,0.02 11.24,8.76 26,8.76 
			26,11.26 11.24,11.26 		"/>
	</g>
</g>
</svg>
