<?xml version="1.0" encoding="utf-8"?>
<!-- Generator: Adobe Illustrator 23.1.0, SVG Export Plug-In . SVG Version: 6.00 Build 0)  -->
<svg version="1.1" id="Layer_1" xmlns="http://www.w3.org/2000/svg" xmlns:xlink="http://www.w3.org/1999/xlink" x="0px" y="0px"
	 viewBox="0 0 26 20" style="enable-background:new 0 0 26 20;" xml:space="preserve">
<style type="text/css">
	.st0{fill:#FF0000;}
	.st1{fill:#006600;}
	.st2{fill-rule:evenodd;clip-rule:evenodd;fill:#FFFF00;}
	.st3{fill:#FFFFFF;}
	.st4{fill:#FFFF00;}
	.st5{fill:#003399;}
</style>
<g>
	<g>
		<rect class="st0" width="26" height="20"/>
	</g>
	<g>
		<rect class="st1" width="10.4" height="20"/>
	</g>
	<g>
		<g>
			<path class="st2" d="M13.79,12.69C12.48,12.65,6.48,8.9,6.44,8.3l0.33-0.55c0.6,0.87,6.73,4.51,7.34,4.38L13.79,12.69"/>
			<path d="M13.79,12.7C13.79,12.7,13.79,12.7,13.79,12.7c-0.7-0.02-2.68-1.08-4.16-1.98C8.1,9.78,6.45,8.63,6.42,8.3
				c0,0,0-0.01,0-0.01l0.33-0.55c0,0,0.01-0.01,0.01-0.01c0,0,0.01,0,0.01,0.01c0.31,0.44,2.06,1.6,3.66,2.56
				c1.89,1.13,3.39,1.87,3.66,1.82c0,0,0.01,0,0.01,0c0,0,0,0.01,0,0.01l-0.31,0.55C13.8,12.69,13.8,12.7,13.79,12.7z M6.45,8.31
				c0.03,0.28,1.37,1.28,3.19,2.39c1.47,0.9,3.44,1.95,4.14,1.98l0.3-0.53c0,0-0.01,0-0.01,0c-0.4,0-2.09-0.9-3.64-1.82
				C8.84,9.38,7.11,8.23,6.77,7.77L6.45,8.31z"/>
		</g>
		<g>
			<path class="st2" d="M6.7,7.67c-0.12,0.32,1.57,1.36,3.59,2.59c2.03,1.23,3.77,1.99,3.9,1.88c0.01-0.01,0.06-0.11,0.06-0.11
				c-0.02,0.04-0.08,0.05-0.18,0.02c-0.55-0.16-1.97-0.81-3.74-1.89C8.57,9.1,7.03,8.11,6.79,7.69C6.77,7.67,6.76,7.61,6.76,7.57
				l-0.01,0L6.71,7.66L6.7,7.67L6.7,7.67L6.7,7.67z M13.82,12.7c-0.02,0.04-0.06,0.04-0.14,0.03c-0.49-0.05-1.98-0.78-3.73-1.83
				C7.9,9.68,6.21,8.57,6.39,8.27l0.05-0.09l0.01,0c-0.16,0.49,3.33,2.5,3.54,2.62c2.02,1.25,3.73,1.99,3.88,1.8L13.82,12.7
				L13.82,12.7L13.82,12.7z"/>
			<path d="M13.74,12.75c-0.02,0-0.04,0-0.06,0c-0.5-0.06-2-0.79-3.74-1.83C7.62,9.53,6.45,8.69,6.37,8.36
				c-0.01-0.04,0-0.07,0.01-0.09l0.05-0.09c0-0.01,0.01-0.01,0.01-0.01l0.01,0c0,0,0.01,0,0.01,0.01c0,0,0,0.01,0,0.01
				c-0.05,0.16,0.31,0.71,3.4,2.53c0.07,0.04,0.12,0.07,0.14,0.08c2,1.24,3.72,1.98,3.87,1.8c0-0.01,0.01-0.01,0.02,0
				c0.01,0,0.01,0.01,0,0.02l-0.05,0.09c0,0,0,0,0,0C13.81,12.74,13.78,12.75,13.74,12.75z M6.43,8.23L6.4,8.28
				C6.39,8.3,6.39,8.32,6.4,8.35c0.08,0.32,1.24,1.16,3.56,2.54c1.73,1.04,3.23,1.77,3.73,1.83c0.08,0.01,0.11,0.01,0.13-0.03
				c0,0,0,0,0,0l0.03-0.05c-0.31,0.08-1.93-0.63-3.86-1.82c-0.02-0.01-0.07-0.04-0.14-0.08C7.58,9.41,6.44,8.56,6.43,8.23z
				 M14.15,12.17c-0.32,0-1.97-0.74-3.87-1.89c-2.18-1.33-3.71-2.29-3.6-2.6c0,0,0,0,0,0l0.01-0.01l0.05-0.09
				c0,0,0.01-0.01,0.01-0.01l0.01,0c0,0,0.01,0,0.01,0c0,0,0,0.01,0,0.01c0,0.04,0.01,0.09,0.02,0.12c0.25,0.44,2.03,1.56,3.54,2.48
				c1.66,1.01,3.14,1.71,3.74,1.88c0.08,0.02,0.14,0.02,0.16-0.02c0,0,0.01,0,0.01-0.01c0,0,0.01,0,0.01,0.01
				c0.01,0.01,0.01,0.01-0.05,0.11l-0.01,0.01c0,0,0,0,0,0C14.19,12.17,14.18,12.17,14.15,12.17z M6.71,7.68
				C6.59,8,8.56,9.2,10.3,10.25c2.08,1.27,3.76,1.98,3.89,1.89l0.01-0.01c0.01-0.02,0.02-0.04,0.03-0.05
				c-0.04,0.01-0.08,0.01-0.15-0.01c-0.6-0.17-2.08-0.88-3.75-1.89C8.81,9.26,7.03,8.15,6.78,7.7C6.76,7.68,6.75,7.64,6.75,7.61
				L6.71,7.68z"/>
		</g>
		<g>
			<path class="st2" d="M10.41,8.66c1.31-0.01,2.93-0.18,3.86-0.55l-0.2-0.33c-0.55,0.3-2.18,0.5-3.67,0.53
				c-1.77-0.02-3.01-0.18-3.64-0.6L6.57,8.07C7.72,8.56,8.9,8.66,10.41,8.66"/>
			<path d="M10.41,8.68C10.41,8.68,10.41,8.68,10.41,8.68C8.89,8.67,7.72,8.57,6.57,8.08c0,0-0.01,0-0.01-0.01c0,0,0-0.01,0-0.01
				l0.19-0.35c0,0,0-0.01,0.01-0.01c0,0,0.01,0,0.01,0C7.35,8.1,8.5,8.29,10.4,8.31c1.35-0.03,3.07-0.21,3.66-0.53
				c0.01,0,0.01,0,0.02,0l0.2,0.33c0,0,0,0.01,0,0.01c0,0,0,0.01-0.01,0.01C13.29,8.52,11.63,8.67,10.41,8.68
				C10.41,8.68,10.41,8.68,10.41,8.68z M6.59,8.06c1.15,0.48,2.31,0.58,3.82,0.59c0,0,0,0,0,0c1.22-0.01,2.86-0.16,3.84-0.54
				l-0.19-0.3c-0.6,0.33-2.32,0.5-3.66,0.53C8.51,8.32,7.35,8.13,6.77,7.74L6.59,8.06z"/>
		</g>
		<g>
			<path class="st2" d="M14.32,8.12c-0.03,0.05-0.64,0.26-1.53,0.41c-0.61,0.09-1.4,0.17-2.38,0.17c-0.94,0-1.7-0.07-2.28-0.14
				C7.18,8.42,6.7,8.21,6.52,8.14c0.02-0.03,0.03-0.06,0.04-0.09c0.52,0.21,1,0.33,1.57,0.42c0.58,0.08,1.33,0.15,2.27,0.14
				c0.98,0,1.76-0.09,2.37-0.18c0.92-0.15,1.42-0.34,1.49-0.43L14.32,8.12L14.32,8.12L14.32,8.12z M14.14,7.79
				c-0.1,0.08-0.59,0.26-1.47,0.39c-0.58,0.08-1.32,0.16-2.26,0.16c-0.9,0-1.63-0.06-2.19-0.14C7.34,8.09,6.87,7.88,6.7,7.82
				c0.02-0.03,0.03-0.06,0.05-0.09C6.88,7.8,7.34,7.98,8.23,8.11c0.55,0.08,1.29,0.14,2.18,0.14c0.94,0,1.67-0.08,2.25-0.16
				c0.88-0.12,1.35-0.34,1.42-0.4L14.14,7.79L14.14,7.79L14.14,7.79z"/>
			<path d="M10.38,8.72c-0.8,0-1.56-0.05-2.27-0.14c-0.91-0.14-1.4-0.34-1.59-0.42L6.51,8.15c0,0-0.01,0-0.01-0.01
				c0,0,0-0.01,0-0.01C6.51,8.12,6.52,8.11,6.53,8.1c0.01-0.02,0.02-0.03,0.03-0.05c0-0.01,0.01-0.01,0.02-0.01
				c0.49,0.2,0.98,0.32,1.57,0.42C8.85,8.55,9.61,8.6,10.4,8.6c0.8,0,1.58-0.06,2.36-0.18c0.91-0.15,1.41-0.33,1.48-0.42
				c0,0,0.01,0,0.01,0c0,0,0.01,0,0.01,0.01l0.06,0.11c0,0,0,0.01,0,0.01c0,0,0,0,0,0c-0.05,0.06-0.67,0.27-1.54,0.42
				c-0.75,0.11-1.55,0.17-2.39,0.17C10.4,8.72,10.39,8.72,10.38,8.72z M6.54,8.13L6.54,8.13c0.19,0.08,0.68,0.28,1.59,0.42
				c0.71,0.1,1.47,0.14,2.26,0.14c0.01,0,0.01,0,0.02,0c0.84,0,1.64-0.06,2.38-0.17c0.89-0.15,1.46-0.35,1.52-0.4l-0.05-0.09
				c-0.1,0.09-0.57,0.27-1.48,0.42c-0.79,0.12-1.56,0.17-2.37,0.18c-0.01,0-0.01,0-0.02,0c-0.78,0-1.54-0.05-2.25-0.14
				C7.54,8.39,7.06,8.26,6.57,8.07C6.56,8.08,6.55,8.09,6.55,8.11C6.54,8.12,6.54,8.12,6.54,8.13z M10.39,8.36
				c-0.79,0-1.54-0.05-2.17-0.14c-0.78-0.1-1.24-0.28-1.46-0.36C6.74,7.85,6.72,7.84,6.7,7.83c0,0-0.01,0-0.01-0.01
				c0,0,0-0.01,0-0.01c0.02-0.03,0.03-0.06,0.05-0.09c0-0.01,0.01-0.01,0.02,0C6.83,7.76,7.27,7.96,8.24,8.1
				c0.44,0.06,1.16,0.14,2.16,0.14c0.01,0,0.01,0,0.02,0c1.02,0,1.77-0.09,2.25-0.16c0.84-0.12,1.33-0.33,1.41-0.4
				c0,0,0.01,0,0.01,0c0,0,0.01,0,0.01,0.01l0.06,0.11c0,0,0,0,0,0.01c0,0,0,0.01,0,0.01c-0.1,0.08-0.58,0.26-1.47,0.4
				c-0.74,0.11-1.48,0.16-2.27,0.16C10.41,8.36,10.4,8.36,10.39,8.36z M6.72,7.81c0.02,0.01,0.04,0.01,0.06,0.02
				c0.22,0.08,0.67,0.26,1.45,0.36c0.64,0.09,1.39,0.14,2.19,0.14c0.78,0,1.52-0.05,2.26-0.16c0.86-0.14,1.34-0.31,1.45-0.39
				L14.08,7.7c-0.1,0.06-0.55,0.28-1.41,0.39c-0.48,0.07-1.23,0.16-2.25,0.16c-0.01,0-0.01,0-0.02,0c-0.99,0-1.72-0.07-2.16-0.14
				C7.3,7.99,6.86,7.8,6.76,7.75C6.74,7.77,6.73,7.79,6.72,7.81z M14.14,7.79L14.14,7.79L14.14,7.79z"/>
		</g>
		<g>
			<path class="st2" d="M6.1,10.24c0.81,0.43,2.6,0.65,4.29,0.67c1.54,0,3.55-0.24,4.3-0.64l-0.02-0.43
				c-0.24,0.37-2.39,0.72-4.3,0.71c-1.91-0.01-3.68-0.31-4.28-0.69L6.1,10.24"/>
			<path d="M10.42,10.92c-0.01,0-0.02,0-0.02,0c-1.5-0.01-3.42-0.2-4.3-0.67c0,0-0.01-0.01-0.01-0.01l0-0.39c0,0,0-0.01,0.01-0.01
				c0,0,0.01,0,0.01,0c0.6,0.39,2.39,0.68,4.27,0.69c0.04,0,0.07,0,0.11,0c1.87,0,3.95-0.35,4.18-0.7c0,0,0.01-0.01,0.01-0.01
				c0.01,0,0.01,0.01,0.01,0.01l0.02,0.43c0,0,0,0.01-0.01,0.01C13.95,10.68,11.94,10.92,10.42,10.92z M6.12,10.23
				c0.88,0.47,2.78,0.65,4.28,0.66c0.01,0,0.02,0,0.02,0c1.51,0,3.51-0.24,4.27-0.63l-0.02-0.39c-0.32,0.36-2.32,0.68-4.17,0.68
				c-0.04,0-0.08,0-0.12,0c-1.86-0.01-3.65-0.3-4.26-0.68L6.12,10.23z"/>
		</g>
		<g>
			<path class="st2" d="M14.74,10.18l0,0.1c-0.11,0.14-0.82,0.34-1.71,0.48c-0.68,0.1-1.56,0.18-2.65,0.18
				c-1.04,0-1.87-0.07-2.52-0.17c-1.02-0.15-1.67-0.41-1.8-0.49l0-0.12c0.39,0.26,1.46,0.45,1.82,0.51c0.64,0.1,1.47,0.17,2.51,0.17
				c1.09,0,1.97-0.08,2.64-0.18C13.65,10.58,14.56,10.34,14.74,10.18L14.74,10.18L14.74,10.18z M14.74,9.81l0,0.1
				c-0.11,0.13-0.82,0.34-1.71,0.48c-0.68,0.1-1.56,0.18-2.65,0.18c-1.04,0-1.87-0.07-2.52-0.17C6.84,10.26,6.18,10,6.05,9.92
				l0-0.12c0.39,0.26,1.46,0.45,1.82,0.51c0.64,0.1,1.47,0.17,2.51,0.17c1.09,0,1.97-0.08,2.64-0.18
				C13.65,10.21,14.56,9.97,14.74,9.81L14.74,9.81L14.74,9.81z"/>
			<path d="M10.37,10.96c-0.92,0-1.77-0.06-2.52-0.17c-0.98-0.14-1.65-0.39-1.81-0.49c0,0-0.01-0.01-0.01-0.01l0-0.12
				c0,0,0-0.01,0.01-0.01s0.01,0,0.01,0c0.39,0.26,1.49,0.46,1.81,0.51c0.74,0.11,1.59,0.17,2.5,0.17c0.97,0,1.86-0.06,2.64-0.18
				c0.63-0.09,1.54-0.33,1.72-0.49c0,0,0.01,0,0.01,0c0,0,0.01,0.01,0.01,0.01l0,0.1c0,0,0,0.01,0,0.01
				c-0.12,0.14-0.84,0.35-1.72,0.49C12.24,10.9,11.35,10.96,10.37,10.96z M6.06,10.28c0.12,0.07,0.74,0.33,1.79,0.48
				c0.75,0.11,1.6,0.17,2.52,0.17c0.97,0,1.87-0.06,2.65-0.18c0.85-0.14,1.58-0.34,1.7-0.48l0-0.07c-0.22,0.16-1.09,0.39-1.71,0.48
				c-0.78,0.12-1.67,0.18-2.64,0.18c-0.92,0-1.76-0.06-2.51-0.17c-0.41-0.07-1.4-0.25-1.8-0.5L6.06,10.28z M10.38,10.59
				c-0.92,0-1.77-0.06-2.52-0.17c-0.98-0.14-1.65-0.39-1.81-0.49c0,0-0.01-0.01-0.01-0.01l0-0.12c0,0,0-0.01,0.01-0.01
				s0.01,0,0.01,0c0.39,0.26,1.49,0.46,1.81,0.51c0.74,0.11,1.59,0.17,2.5,0.17c0.97,0,1.86-0.06,2.64-0.18
				c0.63-0.09,1.54-0.33,1.72-0.49c0,0,0.01,0,0.01,0c0,0,0.01,0,0.01,0.01c0,0,0,0,0,0.01l0,0.1c0,0,0,0.01,0,0.01
				c-0.12,0.14-0.84,0.35-1.72,0.49C12.24,10.53,11.35,10.59,10.38,10.59z M6.07,9.91c0.12,0.07,0.74,0.33,1.79,0.48
				c0.75,0.11,1.6,0.17,2.52,0.17c0.97,0,1.87-0.06,2.65-0.18c0.85-0.14,1.58-0.34,1.7-0.48l0-0.07c-0.22,0.16-1.09,0.39-1.71,0.48
				c-0.78,0.12-1.67,0.18-2.64,0.18c-0.92,0-1.76-0.06-2.51-0.17c-0.32-0.05-1.39-0.24-1.8-0.5L6.07,9.91z"/>
		</g>
		<g>
			<path class="st2" d="M10.39,12.61c-1.85-0.01-3.44-0.51-3.78-0.59l0.24,0.38c0.59,0.25,2.14,0.62,3.55,0.58
				c1.41-0.04,2.64-0.15,3.51-0.57l0.25-0.4C13.58,12.3,11.56,12.61,10.39,12.61"/>
			<path d="M10.19,13c-1.33,0-2.76-0.34-3.34-0.58c0,0,0,0-0.01,0L6.6,12.03c0,0,0-0.01,0-0.01c0,0,0.01-0.01,0.01,0
				c0.04,0.01,0.1,0.03,0.17,0.04c0.54,0.15,1.97,0.53,3.6,0.54c0,0,0,0,0,0c1.18,0,3.19-0.32,3.77-0.59c0,0,0.01,0,0.01,0
				c0,0,0,0.01,0,0.01l-0.25,0.4c0,0,0,0-0.01,0c-0.91,0.44-2.22,0.54-3.51,0.57C10.34,13,10.26,13,10.19,13z M6.87,12.4
				c0.61,0.26,2.16,0.62,3.54,0.58c1.28-0.04,2.6-0.13,3.5-0.57l0.23-0.36c-0.63,0.27-2.58,0.58-3.74,0.58c0,0,0,0,0,0
				c-1.64-0.01-3.07-0.4-3.61-0.54c-0.06-0.02-0.1-0.03-0.14-0.04L6.87,12.4z"/>
		</g>
		<g>
			<path class="st2" d="M14.01,12.32c-0.04,0.06-0.07,0.11-0.11,0.17c-0.41,0.14-1.05,0.3-1.33,0.34c-0.56,0.11-1.42,0.2-2.18,0.2
				c-1.64-0.02-2.99-0.35-3.62-0.62l-0.05-0.09l0.01-0.01l0.09,0.03c1.12,0.4,2.39,0.56,3.58,0.59c0.76,0,1.52-0.09,2.14-0.2
				c0.94-0.19,1.32-0.33,1.44-0.4L14.01,12.32L14.01,12.32L14.01,12.32z M14.23,11.97C14.23,11.97,14.23,11.97,14.23,11.97
				c-0.02,0.05-0.05,0.1-0.08,0.14c-0.22,0.08-0.81,0.25-1.68,0.37c-0.57,0.08-0.92,0.15-2.06,0.17c-2.12-0.05-3.5-0.47-3.83-0.57
				l-0.05-0.09c1.23,0.32,2.49,0.55,3.87,0.57c1.04-0.02,1.48-0.1,2.04-0.18c1.01-0.16,1.52-0.32,1.67-0.37c0,0,0-0.01-0.01-0.01
				L14.23,11.97L14.23,11.97L14.23,11.97z"/>
			<path d="M10.39,13.04c-1.67-0.02-3-0.35-3.62-0.62c0,0,0,0-0.01,0l-0.05-0.09c0,0,0-0.01,0-0.01l0.01-0.01c0,0,0.01-0.01,0.01,0
				l0.09,0.03c1,0.36,2.21,0.56,3.58,0.59c0.01,0,0.02,0,0.03,0c0.82,0,1.6-0.11,2.1-0.2c1.05-0.21,1.37-0.36,1.44-0.39L14,12.31
				c0,0,0.01,0,0.01,0c0,0,0,0.01,0,0.01c-0.04,0.06-0.08,0.11-0.11,0.17c0,0,0,0-0.01,0c-0.41,0.14-1.05,0.29-1.33,0.34
				C12,12.96,11.12,13.04,10.39,13.04z M6.78,12.4c0.67,0.29,2.05,0.59,3.61,0.62c0.72,0,1.6-0.08,2.18-0.2
				c0.28-0.05,0.92-0.2,1.32-0.34c0.03-0.04,0.06-0.08,0.08-0.12c-0.09,0.05-0.43,0.19-1.43,0.39c-0.51,0.09-1.3,0.2-2.14,0.2
				c-1.37-0.03-2.58-0.23-3.59-0.59l-0.08-0.03L6.78,12.4z M10.41,12.67c-1.9-0.05-3.21-0.38-3.83-0.57c0,0-0.01,0-0.01-0.01
				L6.53,12c0,0,0-0.01,0-0.01c0,0,0.01-0.01,0.01,0c1.41,0.37,2.64,0.55,3.87,0.57c0.92-0.02,1.38-0.08,1.86-0.15
				c0.06-0.01,0.12-0.02,0.18-0.02c0.97-0.15,1.48-0.31,1.65-0.37l0,0c0,0,0,0,0,0c0,0,0-0.01,0.01-0.01l0.11-0.04
				c0,0,0.01,0,0.01,0c0,0,0,0,0,0l0,0c0,0,0,0.01,0,0.01c-0.03,0.05-0.06,0.09-0.09,0.14c0,0,0,0-0.01,0
				c-0.29,0.1-0.91,0.27-1.68,0.37c-0.08,0.01-0.16,0.02-0.24,0.03C11.77,12.59,11.38,12.65,10.41,12.67z M6.59,12.08
				c0.62,0.19,1.93,0.52,3.82,0.57c0.97-0.02,1.36-0.08,1.81-0.14c0.08-0.01,0.16-0.02,0.24-0.03c0.76-0.11,1.38-0.27,1.67-0.37
				c0.02-0.04,0.05-0.08,0.07-0.11l-0.07,0.03c0,0,0,0,0,0.01c0,0,0,0.01-0.01,0.01l-0.02,0.01c-0.17,0.05-0.68,0.21-1.65,0.37
				c-0.06,0.01-0.12,0.02-0.18,0.02c-0.48,0.07-0.94,0.13-1.87,0.15c-1.23-0.02-2.45-0.2-3.85-0.56L6.59,12.08z"/>
		</g>
		<g>
			<path class="st2" d="M14.25,9.9c0.01,1.22-0.62,2.31-1.12,2.8c-0.71,0.68-1.65,1.12-2.75,1.14c-1.23,0.02-2.39-0.78-2.7-1.13
				c-0.61-0.69-1.1-1.56-1.12-2.74c0.08-1.33,0.6-2.26,1.35-2.89s1.77-0.95,2.61-0.92c0.97,0.03,2.1,0.5,2.88,1.44
				C13.91,8.21,14.13,8.88,14.25,9.9L14.25,9.9z M10.38,5.73c2.36,0,4.3,1.92,4.3,4.28c0,2.36-1.94,4.28-4.3,4.28S6.1,12.36,6.1,10
				S8.02,5.73,10.38,5.73"/>
			<path d="M10.38,14.29c-2.37,0-4.3-1.92-4.3-4.29c0-2.37,1.93-4.29,4.3-4.29c1.15,0,2.23,0.45,3.05,1.26
				C14.25,7.78,14.7,8.86,14.7,10s-0.45,2.22-1.27,3.03C12.61,13.84,11.53,14.29,10.38,14.29z M10.38,5.74
				c-2.36,0-4.27,1.91-4.27,4.26c0,2.35,1.92,4.26,4.27,4.26c2.37,0,4.29-1.91,4.29-4.26C14.68,7.65,12.75,5.74,10.38,5.74z
				 M10.32,13.85c-1.26,0-2.39-0.83-2.66-1.14c-0.74-0.84-1.11-1.74-1.12-2.75c0.07-1.23,0.53-2.2,1.36-2.9
				c0.71-0.6,1.71-0.95,2.61-0.93c1.07,0.03,2.17,0.58,2.89,1.45c0.49,0.59,0.73,1.24,0.85,2.31c0,0,0,0,0,0
				c0.01,1.18-0.58,2.28-1.12,2.81c-0.76,0.73-1.72,1.13-2.76,1.15C10.36,13.85,10.34,13.85,10.32,13.85z M10.43,6.16
				c-0.87,0-1.83,0.35-2.51,0.92C7.09,7.78,6.64,8.75,6.57,9.97c0.01,1,0.38,1.9,1.12,2.73c0.27,0.3,1.39,1.13,2.64,1.13
				c0.02,0,0.03,0,0.05,0c1.04-0.02,1.99-0.41,2.75-1.14c0.54-0.52,1.12-1.61,1.12-2.79c-0.12-1.06-0.36-1.71-0.85-2.3
				c-0.71-0.86-1.81-1.41-2.87-1.44C10.49,6.16,10.46,6.16,10.43,6.16z"/>
		</g>
		<g>
			<path class="st2" d="M10.4,5.71c2.36,0,4.29,1.93,4.29,4.29c0,2.36-1.93,4.29-4.29,4.29c-2.36,0-4.29-1.93-4.29-4.29
				S8.03,5.71,10.4,5.71L10.4,5.71z M6.2,10c0,2.31,1.9,4.2,4.2,4.2c2.3,0,4.2-1.89,4.2-4.2c0-2.31-1.9-4.2-4.2-4.2S6.2,7.69,6.2,10
				L6.2,10z"/>
			<path d="M10.4,14.3c-2.37,0-4.3-1.93-4.3-4.3c0-2.37,1.93-4.3,4.3-4.3c2.37,0,4.3,1.93,4.3,4.3C14.7,12.37,12.77,14.3,10.4,14.3z
				 M10.4,5.72c-2.36,0-4.28,1.92-4.28,4.28c0,2.36,1.92,4.28,4.28,4.28s4.28-1.92,4.28-4.28C14.67,7.64,12.76,5.72,10.4,5.72z
				 M10.4,14.21c-1.12,0-2.17-0.44-2.97-1.24c-0.8-0.8-1.24-1.85-1.24-2.97s0.44-2.17,1.24-2.97c0.8-0.8,1.85-1.24,2.97-1.24
				c1.12,0,2.17,0.44,2.97,1.24c0.8,0.8,1.24,1.85,1.24,2.97c0,1.12-0.44,2.17-1.24,2.97C12.57,13.77,11.51,14.21,10.4,14.21z
				 M10.4,5.82c-2.31,0-4.18,1.88-4.18,4.18c0,2.31,1.88,4.18,4.18,4.18c2.31,0,4.18-1.88,4.18-4.18C14.58,7.69,12.7,5.82,10.4,5.82
				z"/>
		</g>
		<g>
			<path class="st2" d="M10.4,6.07c2.16,0,3.93,1.77,3.93,3.93c0,2.16-1.78,3.93-3.93,3.93S6.47,12.16,6.47,10
				C6.47,7.84,8.24,6.07,10.4,6.07L10.4,6.07z M6.56,10c0,2.11,1.73,3.84,3.84,3.84s3.84-1.73,3.84-3.84c0-2.11-1.73-3.84-3.84-3.84
				C8.3,6.16,6.56,7.89,6.56,10L6.56,10z"/>
			<path d="M10.4,13.94c-1.05,0-2.03-0.41-2.78-1.16C6.87,12.03,6.46,11.05,6.46,10c0-1.05,0.41-2.04,1.16-2.78
				c0.75-0.75,1.74-1.16,2.78-1.16c1.05,0,2.03,0.41,2.78,1.16c0.75,0.75,1.16,1.74,1.16,2.78c0,1.05-0.41,2.04-1.16,2.78
				C12.43,13.53,11.45,13.94,10.4,13.94z M10.4,6.08c-2.16,0-3.92,1.76-3.92,3.92c0,2.16,1.76,3.92,3.92,3.92
				c2.16,0,3.92-1.76,3.92-3.92C14.32,7.84,12.56,6.08,10.4,6.08z M10.4,13.85c-1.02,0-1.99-0.4-2.72-1.13
				C6.95,11.99,6.55,11.02,6.55,10c0-1.02,0.4-1.99,1.13-2.72c0.73-0.73,1.69-1.13,2.72-1.13s1.99,0.4,2.72,1.13
				c0.73,0.73,1.13,1.69,1.13,2.72c0,1.02-0.4,1.99-1.13,2.72C12.39,13.44,11.42,13.85,10.4,13.85z M10.4,6.17
				c-2.11,0-3.82,1.72-3.82,3.82c0,2.11,1.72,3.82,3.82,3.82c2.11,0,3.82-1.72,3.82-3.82C14.22,7.89,12.51,6.17,10.4,6.17z"/>
		</g>
		<g>
			<path class="st2" d="M10.57,5.69H10.2l0,8.62h0.37L10.57,5.69z"/>
			<path d="M10.57,14.33h-0.37c-0.01,0-0.01-0.01-0.01-0.01l0-8.62c0,0,0-0.01,0-0.01c0,0,0.01,0,0.01,0h0.37
				c0.01,0,0.01,0.01,0.01,0.01l0,8.62C10.59,14.32,10.59,14.32,10.57,14.33C10.58,14.33,10.58,14.33,10.57,14.33z M10.22,14.3h0.34
				l0-8.6h-0.34L10.22,14.3z"/>
		</g>
		<g>
			<path class="st2" d="M10.54,5.64h0.09l0,8.72h-0.09L10.54,5.64L10.54,5.64z M10.17,5.64h0.09l0,8.72h-0.09L10.17,5.64L10.17,5.64
				z"/>
			<path d="M10.27,14.38h-0.09c-0.01,0-0.01-0.01-0.01-0.01V5.65c0,0,0,0,0,0c0-0.01,0.01-0.01,0.01-0.01c0,0,0,0,0,0h0.09
				c0.01,0,0.01,0.01,0.01,0.01l0,8.72C10.28,14.37,10.28,14.37,10.27,14.38C10.27,14.38,10.27,14.38,10.27,14.38z M10.18,14.35
				h0.07l0-8.7h-0.07V14.35z M10.63,14.38h-0.09c-0.01,0-0.01-0.01-0.01-0.01l0-8.72c0,0,0-0.01,0-0.01c0,0,0.01,0,0.01,0h0.09
				c0.01,0,0.01,0.01,0.01,0.01l0,8.72C10.64,14.37,10.64,14.37,10.63,14.38C10.64,14.38,10.63,14.38,10.63,14.38z M10.55,14.35
				h0.07l0-8.7h-0.07L10.55,14.35z"/>
		</g>
		<g>
			<path class="st2" d="M14.69,10.17V9.85l-0.26-0.24l-1.47-0.39L10.83,9L8.28,9.13L6.46,9.56L6.09,9.84v0.32l0.93-0.42l2.21-0.35
				h2.12l1.56,0.17L14,9.82L14.69,10.17z"/>
			<path d="M14.69,10.18C14.69,10.18,14.69,10.18,14.69,10.18l-0.7-0.35l-1.08-0.26L11.35,9.4l-2.12,0L7.02,9.75l-0.93,0.42
				c0,0-0.01,0-0.01,0c0,0-0.01-0.01-0.01-0.01V9.84c0,0,0-0.01,0.01-0.01l0.37-0.27c0,0,0,0,0,0l1.82-0.43l2.56-0.13l2.13,0.22
				l1.48,0.39c0,0,0,0,0.01,0l0.26,0.24c0,0,0,0.01,0,0.01v0.32C14.7,10.17,14.7,10.18,14.69,10.18
				C14.69,10.18,14.69,10.18,14.69,10.18z M11.35,9.38l1.56,0.17L14,9.81l0.68,0.34V9.85l-0.25-0.24l-1.47-0.39l-2.12-0.22
				L8.28,9.14L6.46,9.58L6.1,9.84v0.29l0.91-0.41c0,0,0,0,0,0l2.21-0.35L11.35,9.38z"/>
		</g>
		<g>
			<path class="st2" d="M10.4,9.34c1.01,0,2,0.1,2.78,0.25c0.8,0.16,1.37,0.36,1.56,0.59l0,0.11c-0.23-0.28-1-0.49-1.58-0.61
				c-0.77-0.15-1.75-0.25-2.76-0.25c-1.06,0-2.05,0.1-2.82,0.25c-0.61,0.12-1.43,0.36-1.53,0.6v-0.12C6.11,10,6.72,9.76,7.57,9.59
				C8.34,9.44,9.33,9.34,10.4,9.34L10.4,9.34z M10.4,8.97c1.01,0,2,0.1,2.78,0.25c0.8,0.16,1.37,0.36,1.56,0.59l0,0.11
				c-0.23-0.28-1-0.49-1.58-0.61c-0.77-0.15-1.75-0.25-2.76-0.25c-1.06,0-2.05,0.1-2.81,0.25C7,9.43,6.15,9.68,6.05,9.92V9.8
				c0.06-0.16,0.68-0.42,1.52-0.58C8.34,9.07,9.33,8.97,10.4,8.97L10.4,8.97z"/>
			<path d="M6.05,10.3C6.05,10.3,6.05,10.3,6.05,10.3c-0.01,0-0.01-0.01-0.01-0.01v-0.12c0,0,0,0,0,0c0.06-0.18,0.7-0.42,1.53-0.59
				c0.82-0.16,1.83-0.25,2.83-0.25l0,0.01l0-0.01c0.96,0,1.95,0.09,2.78,0.25c0.84,0.17,1.38,0.37,1.57,0.59c0,0,0,0.01,0,0.01
				l0,0.11c0,0.01,0,0.01-0.01,0.01c0,0-0.01,0-0.01,0c-0.25-0.3-1.09-0.5-1.58-0.6c-0.82-0.16-1.8-0.25-2.76-0.25
				c-0.99,0-1.99,0.09-2.81,0.25c-0.67,0.13-1.43,0.37-1.52,0.59C6.06,10.3,6.06,10.3,6.05,10.3z M10.43,9.42
				c0.95,0,1.92,0.09,2.73,0.25c0.47,0.09,1.29,0.3,1.57,0.58l0-0.07C14.54,9.96,14,9.76,13.17,9.6c-0.83-0.16-1.81-0.25-2.77-0.25
				c-1,0-2.01,0.09-2.83,0.25c-0.91,0.18-1.45,0.43-1.51,0.57v0.07c0.18-0.25,1.02-0.47,1.51-0.57C8.4,9.51,9.4,9.42,10.4,9.42
				C10.41,9.42,10.42,9.42,10.43,9.42z M6.05,9.93C6.05,9.93,6.05,9.93,6.05,9.93c-0.01,0-0.01-0.01-0.01-0.01V9.8c0,0,0,0,0,0
				C6.1,9.62,6.76,9.36,7.57,9.21c0.82-0.16,1.83-0.25,2.83-0.25l0,0c0.96,0,1.95,0.09,2.78,0.25c0.84,0.17,1.38,0.37,1.57,0.59
				c0,0,0,0.01,0,0.01l0,0.11c0,0.01,0,0.01-0.01,0.01c0,0-0.01,0-0.01,0c-0.25-0.3-1.09-0.5-1.58-0.6
				c-0.82-0.16-1.8-0.25-2.76-0.25c-0.99,0-1.99,0.09-2.81,0.25C6.91,9.46,6.15,9.71,6.06,9.92C6.06,9.93,6.06,9.93,6.05,9.93z
				 M10.43,9.05c0.95,0,1.91,0.09,2.73,0.25c0.47,0.09,1.29,0.29,1.57,0.58l0-0.07C14.54,9.6,14,9.4,13.17,9.23
				c-0.83-0.16-1.81-0.25-2.77-0.25l0,0c-1,0-2.01,0.09-2.83,0.25C6.7,9.4,6.12,9.66,6.06,9.8v0.07C6.24,9.64,7.05,9.41,7.58,9.3
				c0.82-0.16,1.82-0.25,2.81-0.25C10.41,9.05,10.42,9.05,10.43,9.05z"/>
		</g>
		<g>
			<path class="st2" d="M10.38,7.09c1.6-0.01,2.99,0.22,3.63,0.55l0.23,0.4c-0.55-0.3-2.06-0.61-3.86-0.56
				C8.91,7.49,7.35,7.64,6.56,8.06L6.84,7.6C7.48,7.26,9,7.09,10.38,7.09"/>
			<path d="M6.56,8.07C6.56,8.07,6.55,8.07,6.56,8.07C6.55,8.07,6.55,8.06,6.55,8.06l0.28-0.46c0,0,0,0,0,0
				c0.67-0.35,2.26-0.51,3.55-0.51c0,0,0,0,0,0c1.54-0.01,2.96,0.21,3.63,0.55c0,0,0,0,0.01,0l0.23,0.4c0,0,0,0.01,0,0.01
				c0,0-0.01,0-0.01,0c-0.58-0.31-2.09-0.61-3.85-0.56C9.35,7.5,7.48,7.58,6.56,8.07C6.56,8.07,6.56,8.07,6.56,8.07z M6.85,7.61
				L6.59,8.03c0.94-0.47,2.77-0.56,3.79-0.56c1.73-0.04,3.22,0.24,3.82,0.54L14,7.65c-0.67-0.34-2.08-0.55-3.62-0.55c0,0,0,0,0,0
				C9.1,7.11,7.52,7.26,6.85,7.61z"/>
		</g>
		<g>
			<path class="st2" d="M10.4,7.42c0.91,0,1.79,0.05,2.49,0.18c0.65,0.12,1.27,0.3,1.36,0.4l0.07,0.12
				c-0.22-0.14-0.75-0.3-1.44-0.43c-0.69-0.13-1.57-0.17-2.48-0.17c-1.03,0-1.83,0.05-2.51,0.17C7.16,7.83,6.66,8.02,6.53,8.11
				L6.6,7.98C6.84,7.86,7.22,7.71,7.87,7.6C8.58,7.47,9.38,7.43,10.4,7.42L10.4,7.42L10.4,7.42z M10.4,7.06
				c0.87,0,1.73,0.05,2.4,0.17c0.53,0.1,1.05,0.26,1.24,0.41l0.1,0.16c-0.17-0.19-0.82-0.37-1.39-0.47
				c-0.67-0.11-1.49-0.16-2.36-0.17c-0.91,0-1.76,0.06-2.42,0.18C7.36,7.45,6.95,7.59,6.78,7.7l0.09-0.13
				c0.24-0.12,0.62-0.24,1.1-0.33C8.63,7.11,9.48,7.06,10.4,7.06L10.4,7.06z"/>
			<path d="M14.32,8.13C14.32,8.13,14.32,8.13,14.32,8.13c-0.22-0.14-0.74-0.3-1.45-0.43c-0.62-0.12-1.45-0.17-2.48-0.17
				c-1.03,0-1.82,0.05-2.51,0.17C7.17,7.84,6.67,8.03,6.54,8.12c0,0-0.01,0-0.02,0c0,0-0.01-0.01,0-0.02l0.07-0.13
				c0,0,0,0,0.01-0.01c0.33-0.17,0.74-0.29,1.27-0.39c0.64-0.12,1.38-0.17,2.53-0.17c0,0,0,0,0,0c0.98,0,1.84,0.06,2.49,0.18
				c0.66,0.12,1.28,0.31,1.37,0.41l0.07,0.12C14.33,8.12,14.33,8.13,14.32,8.13C14.33,8.13,14.32,8.13,14.32,8.13z M10.47,7.51
				c1,0,1.81,0.06,2.41,0.17c0.67,0.13,1.17,0.27,1.41,0.41l-0.05-0.08c-0.08-0.09-0.71-0.27-1.35-0.4
				c-0.65-0.12-1.51-0.18-2.49-0.18c0,0,0,0,0,0C9.24,7.44,8.51,7.49,7.87,7.61C7.34,7.7,6.93,7.83,6.61,7.99L6.57,8.08
				c0.17-0.1,0.65-0.27,1.32-0.4c0.69-0.12,1.49-0.17,2.51-0.17C10.42,7.51,10.44,7.51,10.47,7.51z M14.15,7.8
				C14.14,7.8,14.14,7.8,14.15,7.8c-0.19-0.2-0.86-0.38-1.39-0.47c-0.61-0.1-1.38-0.16-2.36-0.17c-0.95,0-1.79,0.06-2.41,0.18
				c-0.55,0.11-1,0.24-1.2,0.37c0,0-0.01,0-0.02,0c0,0,0-0.01,0-0.02l0.09-0.13c0,0,0,0,0,0c0.23-0.12,0.61-0.24,1.1-0.33
				c0.62-0.11,1.47-0.17,2.43-0.18l0,0h0c0.95,0,1.78,0.06,2.41,0.17c0.57,0.11,1.07,0.27,1.25,0.41c0,0,0,0,0,0l0.1,0.16
				C14.16,7.79,14.16,7.8,14.15,7.8C14.15,7.8,14.15,7.8,14.15,7.8z M10.4,7.14c0.98,0.01,1.76,0.06,2.36,0.17
				c0.48,0.09,1.08,0.24,1.33,0.42l-0.05-0.09c-0.18-0.13-0.67-0.29-1.24-0.4c-0.62-0.11-1.45-0.17-2.4-0.17l0,0
				c-0.97,0-1.81,0.06-2.43,0.18C7.49,7.34,7.11,7.45,6.88,7.57L6.82,7.66c0.22-0.12,0.64-0.25,1.16-0.34
				C8.61,7.2,9.44,7.14,10.4,7.14z"/>
		</g>
		<g>
			<path class="st2" d="M12.53,11.78c-0.79-0.15-1.58-0.17-2.13-0.16c-2.66,0.03-3.52,0.55-3.63,0.7L6.57,12
				c0.68-0.49,2.13-0.77,3.84-0.74c0.89,0.01,1.66,0.07,2.3,0.2L12.53,11.78"/>
			<path d="M6.77,12.34C6.77,12.34,6.77,12.34,6.77,12.34c0,0-0.01,0-0.01-0.01l-0.2-0.32c0-0.01,0-0.01,0-0.02
				c0.68-0.49,2.12-0.77,3.85-0.74c0.94,0.02,1.69,0.08,2.3,0.2c0,0,0.01,0,0.01,0.01c0,0,0,0.01,0,0.01l-0.18,0.32c0,0,0,0,0,0
				c0,0-0.01,0.01-0.01,0c-0.63-0.12-1.34-0.17-2.13-0.16c-2.59,0.03-3.5,0.53-3.62,0.7C6.78,12.34,6.78,12.34,6.77,12.34z M6.59,12
				l0.18,0.3c0.16-0.19,1.1-0.66,3.62-0.69c0.79-0.01,1.5,0.04,2.13,0.16l0.17-0.3c-0.61-0.12-1.35-0.18-2.28-0.2
				C8.7,11.25,7.27,11.52,6.59,12z"/>
		</g>
		<g>
			<path class="st2" d="M10.38,11.58c0.74,0.01,1.47,0.04,2.17,0.17l-0.05,0.09c-0.65-0.12-1.35-0.17-2.11-0.16
				c-0.98-0.01-1.98,0.08-2.84,0.33c-0.27,0.08-0.72,0.25-0.77,0.4l-0.05-0.08c0.01-0.09,0.29-0.26,0.8-0.41
				C8.51,11.63,9.44,11.58,10.38,11.58L10.38,11.58L10.38,11.58z M10.42,11.2c0.77,0.01,1.56,0.05,2.33,0.2l-0.05,0.09
				c-0.7-0.14-1.36-0.18-2.27-0.2c-0.99,0-2.03,0.07-2.98,0.35c-0.31,0.09-0.84,0.28-0.85,0.44L6.54,12
				c0.01-0.14,0.47-0.32,0.88-0.44C8.37,11.28,9.42,11.21,10.42,11.2L10.42,11.2z"/>
			<path d="M6.77,12.42c0,0-0.01,0-0.01-0.01l-0.05-0.08c0,0,0-0.01,0-0.01c0.02-0.1,0.3-0.28,0.81-0.42
				c0.95-0.27,1.83-0.33,2.86-0.34c0,0,0,0,0,0c0.7,0.01,1.45,0.04,2.17,0.17c0,0,0.01,0,0.01,0.01c0,0,0,0.01,0,0.01l-0.05,0.09
				c0,0-0.01,0.01-0.01,0.01c-0.61-0.11-1.3-0.17-2.11-0.16c-1.09-0.01-2.04,0.1-2.84,0.33c-0.29,0.08-0.72,0.26-0.76,0.39
				C6.78,12.41,6.78,12.42,6.77,12.42C6.77,12.42,6.77,12.42,6.77,12.42z M6.74,12.32l0.04,0.06c0.08-0.14,0.51-0.31,0.77-0.38
				c0.8-0.23,1.76-0.34,2.84-0.33c0.81,0,1.5,0.05,2.11,0.16l0.04-0.07c-0.71-0.13-1.45-0.16-2.15-0.17c0,0,0,0,0,0
				c-1.03,0.01-1.91,0.07-2.86,0.34C7.02,12.07,6.76,12.24,6.74,12.32z M6.59,12.1c0,0-0.01,0-0.01-0.01L6.52,12c0,0,0,0,0-0.01
				c0.02-0.18,0.69-0.39,0.89-0.45c0.82-0.24,1.77-0.35,3-0.35c0,0,0,0,0,0c0.75,0.01,1.55,0.05,2.33,0.2c0,0,0.01,0,0.01,0.01
				c0,0,0,0.01,0,0.01l-0.05,0.09c0,0-0.01,0.01-0.01,0.01c-0.74-0.15-1.44-0.19-2.27-0.2c-1.22,0-2.17,0.11-2.98,0.35
				c-0.4,0.12-0.83,0.3-0.85,0.43C6.6,12.09,6.59,12.1,6.59,12.1C6.59,12.1,6.59,12.1,6.59,12.1z M6.55,11.99l0.03,0.06
				c0.09-0.19,0.77-0.39,0.85-0.42c0.81-0.24,1.76-0.35,2.98-0.35c0.83,0.01,1.53,0.05,2.27,0.2l0.04-0.07
				c-0.77-0.15-1.57-0.18-2.31-0.2c-1.23,0-2.18,0.11-2.99,0.35C6.9,11.72,6.56,11.88,6.55,11.99z"/>
		</g>
		<g>
			<path class="st2" d="M14.2,12.05l-0.32,0.5l-0.92-0.82l-2.38-1.6L7.89,8.65L6.49,8.18l0.3-0.55l0.1-0.06l0.87,0.22l2.86,1.47
				l1.65,1.04l1.39,1l0.56,0.65L14.2,12.05z"/>
			<path d="M13.88,12.56C13.87,12.56,13.87,12.56,13.88,12.56l-0.93-0.82l-2.38-1.6L7.88,8.66L6.49,8.19c0,0-0.01,0-0.01-0.01
				c0,0,0-0.01,0-0.01l0.3-0.55c0,0,0,0,0,0l0.1-0.06c0,0,0.01,0,0.01,0l0.87,0.22l2.86,1.47l1.65,1.04l1.39,1l0.57,0.65
				c0,0,0,0.01,0,0.01l-0.02,0.1c0,0,0,0,0,0l-0.32,0.5C13.88,12.56,13.88,12.56,13.88,12.56C13.88,12.56,13.88,12.56,13.88,12.56z
				 M6.51,8.17l1.38,0.47l2.69,1.47l2.38,1.6l0.91,0.81l0.31-0.48l0.02-0.09l-0.56-0.65l-1.38-0.99l-1.65-1.04L7.75,7.8L6.89,7.58
				L6.8,7.63L6.51,8.17z M14.2,12.05L14.2,12.05L14.2,12.05z"/>
		</g>
		<g>
			<path class="st2" d="M6.44,8.19c0.24-0.17,2.04,0.64,3.92,1.77c1.88,1.14,3.67,2.42,3.51,2.66l-0.05,0.08l-0.02,0.02
				c0.01,0,0.03-0.04,0-0.13c-0.08-0.26-1.35-1.28-3.46-2.55C8.27,8.82,6.56,8.08,6.39,8.29L6.44,8.19L6.44,8.19L6.44,8.19z
				 M14.26,12.04c0.15-0.31-1.51-1.56-3.58-2.79c-2.12-1.2-3.64-1.9-3.92-1.69L6.7,7.68c0,0.01,0-0.01,0.02-0.02
				c0.05-0.04,0.13-0.04,0.17-0.04c0.48,0.01,1.85,0.64,3.77,1.74c0.84,0.49,3.56,2.23,3.55,2.72c0,0.04,0,0.05-0.01,0.07
				L14.26,12.04L14.26,12.04L14.26,12.04z"/>
			<path d="M13.8,12.74C13.79,12.74,13.79,12.74,13.8,12.74c-0.01-0.01-0.01-0.02-0.01-0.02l0,0c0,0,0.03-0.03-0.01-0.11
				c-0.08-0.27-1.43-1.32-3.46-2.55C8.17,8.77,6.55,8.11,6.4,8.3c0,0-0.01,0.01-0.02,0c-0.01,0-0.01-0.01,0-0.02l0.05-0.1
				c0,0,0,0,0,0c0.26-0.17,2.06,0.64,3.94,1.77c1.69,1.02,3.44,2.25,3.52,2.61c0.01,0.03,0,0.05-0.01,0.07l-0.05,0.08c0,0,0,0,0,0
				L13.8,12.74C13.8,12.74,13.8,12.74,13.8,12.74C13.8,12.74,13.8,12.74,13.8,12.74z M6.5,8.25c0.47,0,2.07,0.74,3.83,1.79
				c2.06,1.25,3.38,2.28,3.47,2.56c0.01,0.03,0.02,0.06,0.02,0.08l0.04-0.06c0.01-0.01,0.01-0.03,0.01-0.05
				c-0.08-0.35-1.87-1.6-3.51-2.6C8.53,8.86,6.71,8.04,6.45,8.2L6.42,8.26C6.44,8.25,6.47,8.25,6.5,8.25z M14.19,12.16
				C14.19,12.16,14.19,12.16,14.19,12.16c-0.01-0.01-0.01-0.01-0.01-0.02l0.01-0.01c0-0.01,0-0.02,0-0.04l0-0.02
				c0.01-0.49-2.76-2.25-3.54-2.71c-1.91-1.1-3.29-1.73-3.76-1.74l-0.01,0c-0.04,0-0.11,0-0.15,0.04C6.72,7.67,6.71,7.68,6.71,7.68
				c0,0.01-0.01,0.01-0.02,0.01c-0.01,0-0.01-0.01-0.01-0.01c0,0,0,0,0,0l0.06-0.11c0,0,0,0,0,0c0.33-0.25,2.32,0.78,3.93,1.69
				c1.87,1.1,3.76,2.46,3.59,2.8c0,0,0,0,0,0l-0.06,0.09C14.21,12.15,14.2,12.15,14.19,12.16C14.2,12.16,14.2,12.16,14.19,12.16z
				 M6.89,7.6c0.48,0.01,1.86,0.64,3.78,1.74c0.55,0.32,3.56,2.2,3.55,2.73l0,0.01l0.03-0.05c0.14-0.28-1.43-1.5-3.58-2.77
				c-2.26-1.28-3.64-1.88-3.9-1.7L6.74,7.63C6.79,7.61,6.84,7.6,6.89,7.6L6.89,7.6z M14.26,12.04L14.26,12.04L14.26,12.04z"/>
		</g>
	</g>
	<g>
		<g>
			<path class="st3" d="M7.83,10.47c0,0.71,0.29,1.34,0.76,1.81c0.47,0.47,1.11,0.76,1.81,0.76c0.71,0,1.35-0.29,1.82-0.75
				c0.47-0.47,0.76-1.11,0.76-1.81h0V7.04L7.83,7.04L7.83,10.47L7.83,10.47L7.83,10.47z"/>
			<path d="M10.39,13.06c-0.68,0-1.33-0.27-1.82-0.77c-0.49-0.49-0.76-1.13-0.76-1.82l0-3.45l5.17,0.01l0,3.45
				c0,0.69-0.27,1.34-0.76,1.83C11.74,12.79,11.08,13.06,10.39,13.06z M7.84,10.46l0,0.01c0,0.68,0.27,1.32,0.75,1.8
				c0.49,0.49,1.13,0.76,1.8,0.76c0.68,0,1.33-0.27,1.81-0.75c0.48-0.48,0.75-1.12,0.75-1.79l0-0.01V7.06L7.84,7.05L7.84,10.46z"/>
		</g>
		<g>
			<path class="st0" d="M7.92,10.48L7.92,10.48c0,0.68,0.28,1.29,0.73,1.74c0.45,0.45,1.07,0.72,1.74,0.72
				c0.68,0,1.3-0.28,1.74-0.72c0.45-0.44,0.72-1.06,0.72-1.74h0V7.15l-4.93,0L7.92,10.48 M11.87,8.15l0,2.12l0,0.22h0
				c0,0.06,0,0.13-0.01,0.18c-0.04,0.33-0.19,0.63-0.42,0.85c-0.27,0.27-0.64,0.43-1.04,0.43c-0.4,0-0.76-0.17-1.03-0.44
				c-0.28-0.27-0.43-0.65-0.43-1.04l0-2.34L11.87,8.15L11.87,8.15L11.87,8.15z"/>
			<path d="M10.39,12.95c-0.66,0-1.28-0.26-1.75-0.73c-0.47-0.47-0.73-1.09-0.73-1.74l0.02,0v0c0,0.65,0.26,1.26,0.72,1.73
				c0.47,0.46,1.08,0.72,1.73,0.72c0.65,0,1.27-0.25,1.74-0.72c0.46-0.46,0.72-1.07,0.72-1.72l0-0.01V7.16l-4.91,0l0,3.31H7.91
				l0-3.34l4.96,0l0,3.34c0,0.66-0.26,1.28-0.73,1.74C11.67,12.69,11.05,12.95,10.39,12.95z M10.39,11.97
				c-0.39,0-0.75-0.16-1.04-0.44c-0.28-0.28-0.44-0.66-0.44-1.05l0-2.35h0.01l2.95,0.01l0.01,0.01l0,0l0,2.12l0,0.22
				c0,0.06,0,0.13-0.01,0.18c-0.04,0.32-0.19,0.62-0.43,0.86C11.16,11.82,10.79,11.97,10.39,11.97z M8.93,8.16l0,2.33
				c0,0.38,0.16,0.76,0.43,1.03c0.28,0.28,0.65,0.43,1.02,0.43c0.39,0,0.76-0.15,1.03-0.43c0.24-0.23,0.38-0.53,0.42-0.85
				c0.01-0.05,0.01-0.12,0.01-0.18l0-0.22l0-2.11L8.93,8.16z"/>
		</g>
		<g id="castle3">
			<g id="castle">
				<g>
					<path class="st4" d="M8.24,8.02c0.01-0.24,0.18-0.3,0.18-0.3c0,0,0.18,0.06,0.18,0.3L8.24,8.02"/>
				</g>
				<g>
					<path class="st4" d="M8.1,7.73L8.07,8.01l0.18,0c0-0.23,0.17-0.27,0.18-0.26c0,0,0.17,0.05,0.18,0.26h0.18L8.75,7.73L8.1,7.73
						L8.1,7.73L8.1,7.73z"/>
					<path d="M8.26,8.02l-0.2,0l0.03-0.29l0-0.01l0.67,0l0.04,0.3h-0.2l0-0.01c0-0.21-0.17-0.25-0.17-0.25c0,0-0.16,0.03-0.16,0.25
						L8.26,8.02z M8.61,7.99h0.16L8.74,7.74l-0.29,0c0.02,0.01,0.04,0.02,0.07,0.05C8.56,7.82,8.6,7.89,8.61,7.99z M8.08,7.99
						l0.16,0c0-0.12,0.05-0.19,0.1-0.22c0.02-0.02,0.04-0.03,0.06-0.03l-0.28,0L8.08,7.99z"/>
				</g>
				<g>
					<path class="st4" d="M8.05,8.01h0.73c0.02,0,0.03,0.02,0.03,0.03c0,0.02-0.01,0.03-0.03,0.03H8.05c-0.02,0-0.03-0.02-0.03-0.03
						C8.03,8.02,8.04,8.01,8.05,8.01z"/>
					<path d="M8.79,8.08H8.05c-0.02,0-0.04-0.02-0.04-0.04C8.01,8.02,8.03,8,8.05,8h0.73c0.02,0,0.04,0.02,0.04,0.04
						C8.83,8.06,8.81,8.08,8.79,8.08z M8.05,8.02c-0.01,0-0.02,0.01-0.02,0.02c0,0.01,0.01,0.02,0.02,0.02h0.73
						c0.01,0,0.02-0.01,0.02-0.02c0-0.01-0.01-0.02-0.02-0.02H8.05z"/>
				</g>
				<g>
					<path class="st4" d="M8.32,8c0-0.14,0.1-0.18,0.1-0.18c0,0,0.1,0.04,0.1,0.18H8.32"/>
					<path d="M8.53,8.02H8.31l0-0.01c0-0.09,0.04-0.15,0.07-0.17c0,0,0.03-0.02,0.04-0.02h0c0.01,0,0.11,0.05,0.11,0.19L8.53,8.02z
						 M8.33,7.99h0.18c0-0.11-0.07-0.15-0.09-0.16C8.4,7.84,8.34,7.88,8.33,7.99z"/>
				</g>
				<g>
					<path class="st4" d="M8.07,7.62h0.7c0.01,0,0.03,0.01,0.03,0.03c0,0.02-0.01,0.03-0.03,0.03h-0.7c-0.01,0-0.03-0.01-0.03-0.03
						C8.04,7.63,8.05,7.62,8.07,7.62z"/>
					<path d="M8.77,7.69h-0.7c-0.02,0-0.04-0.02-0.04-0.04c0-0.02,0.02-0.04,0.04-0.04h0.7c0.02,0,0.04,0.02,0.04,0.04
						C8.81,7.67,8.79,7.69,8.77,7.69z M8.07,7.63c-0.01,0-0.02,0.01-0.02,0.02s0.01,0.02,0.02,0.02h0.7c0.01,0,0.02-0.01,0.02-0.02
						S8.78,7.63,8.77,7.63H8.07z"/>
				</g>
				<g>
					<path class="st4" d="M8.08,7.68h0.67c0.01,0,0.03,0.01,0.03,0.03c0,0.02-0.01,0.03-0.03,0.03H8.08c-0.01,0-0.03-0.01-0.03-0.03
						C8.06,7.69,8.07,7.68,8.08,7.68z"/>
					<path d="M8.76,7.75H8.08c-0.02,0-0.04-0.02-0.04-0.04c0-0.02,0.02-0.04,0.04-0.04h0.67c0.02,0,0.04,0.02,0.04,0.04
						C8.79,7.73,8.78,7.75,8.76,7.75z M8.08,7.69c-0.01,0-0.01,0.01-0.01,0.02c0,0.01,0.01,0.02,0.01,0.02h0.67
						c0.01,0,0.01-0.01,0.01-0.02c0-0.01-0.01-0.02-0.01-0.02H8.08z"/>
				</g>
				<g>
					<path class="st4" d="M8.3,7.22l0.05,0v0.04h0.04V7.22l0.05,0v0.04h0.04V7.22h0.05l0,0.09c0,0.01-0.01,0.02-0.02,0.02H8.33
						C8.31,7.33,8.3,7.32,8.3,7.3L8.3,7.22L8.3,7.22L8.3,7.22z"/>
					<path d="M8.52,7.34H8.33c-0.02,0-0.04-0.02-0.04-0.03l0-0.09l0.01,0l0.06,0v0.04h0.02V7.21l0.08,0v0.04h0.02V7.21h0.08l0,0.1
						C8.55,7.32,8.54,7.34,8.52,7.34z M8.31,7.23l0,0.08c0,0.01,0.01,0.01,0.01,0.01h0.19c0.01,0,0.01,0,0.01-0.01l0-0.08H8.5v0.04
						H8.44V7.23l-0.03,0v0.04H8.34V7.23L8.31,7.23z"/>
				</g>
				<g>
					<path class="st4" d="M8.5,7.33l0.01,0.28l-0.19,0l0.01-0.28L8.5,7.33"/>
					<path d="M8.52,7.63l-0.21,0l0.01-0.3l0.18,0L8.52,7.63z M8.34,7.6l0.16,0L8.49,7.35l-0.14,0L8.34,7.6z"/>
				</g>
				<g id="cp1">
					<path class="st4" d="M8.27,7.46l0.01,0.15l-0.18,0l0.01-0.15L8.27,7.46L8.27,7.46L8.27,7.46z"/>
					<path d="M8.09,7.63L8.1,7.45h0.19l0.01,0.17L8.09,7.63z M8.12,7.48l0,0.13l0.16,0l0-0.13H8.12z"/>
				</g>
				<g>
					<g>
						<path class="st4" d="M8.73,7.46l0.01,0.15l-0.18,0l0.01-0.15L8.73,7.46L8.73,7.46L8.73,7.46z"/>
						<path d="M8.55,7.63l0.01-0.17h0.19l0.01,0.17L8.55,7.63z M8.58,7.48l0,0.13l0.16,0l0-0.13H8.58z"/>
					</g>
				</g>
				<g id="cp2">
					<path class="st4" d="M8.07,7.36l0.05,0v0.04h0.04V7.35l0.05,0v0.04h0.04V7.35l0.05,0l0,0.09c0,0.01-0.01,0.02-0.02,0.02H8.1
						c-0.01,0-0.02-0.01-0.02-0.02L8.07,7.36L8.07,7.36L8.07,7.36z"/>
					<path d="M8.28,7.48H8.1c-0.02,0-0.03-0.02-0.04-0.03l0-0.09l0.01-0.01l0,0l0.06,0v0.04h0.02V7.34l0.07,0v0.04h0.02V7.34l0.07,0
						l0,0.1C8.32,7.46,8.3,7.48,8.28,7.48z M8.08,7.37l0,0.08c0,0.01,0.01,0.01,0.01,0.01h0.19c0.01,0,0.01,0,0.01-0.01l0-0.08
						l-0.03,0V7.4H8.21V7.37l-0.03,0V7.4H8.11V7.37L8.08,7.37z"/>
				</g>
				<g>
					<g>
						<path class="st4" d="M8.53,7.36l0.05,0v0.04h0.04V7.35l0.05,0v0.04h0.04V7.35l0.05,0l0,0.09c0,0.01-0.01,0.02-0.02,0.02H8.56
							c-0.01,0-0.02-0.01-0.02-0.02L8.53,7.36L8.53,7.36L8.53,7.36z"/>
						<path d="M8.74,7.48H8.56c-0.02,0-0.03-0.02-0.04-0.03l0-0.09l0.01-0.01l0,0l0.06,0v0.04h0.02V7.34l0.07,0v0.04H8.7V7.34
							l0.08,0l0,0.1C8.78,7.46,8.76,7.48,8.74,7.48z M8.54,7.37l0,0.08c0,0.01,0.01,0.01,0.01,0.01h0.19c0.01,0,0.01,0,0.01-0.01
							l0-0.08l-0.03,0V7.4H8.67V7.37l-0.03,0V7.4H8.57V7.37L8.54,7.37z"/>
					</g>
				</g>
				<g>
					<path d="M8.4,7.42c0-0.03,0.04-0.03,0.04,0v0.07H8.4L8.4,7.42"/>
				</g>
				<g id="cp3">
					<path d="M8.17,7.52c0-0.03,0.04-0.03,0.04,0v0.05H8.17L8.17,7.52"/>
				</g>
				<g>
					<g>
						<path d="M8.63,7.52c0-0.03,0.04-0.03,0.04,0v0.05H8.63L8.63,7.52"/>
					</g>
				</g>
			</g>
			<g>
				<g>
					<g>
						<path class="st4" d="M8.24,10.03c0.01-0.24,0.18-0.3,0.18-0.3c0,0,0.18,0.06,0.18,0.3L8.24,10.03"/>
					</g>
					<g>
						<path class="st4" d="M8.1,9.74l-0.03,0.27l0.18,0c0-0.23,0.17-0.27,0.18-0.26c0,0,0.17,0.05,0.18,0.26h0.18L8.75,9.74
							L8.1,9.74L8.1,9.74L8.1,9.74z"/>
						<path d="M8.26,10.02l-0.2,0l0.03-0.29l0-0.01l0.67,0l0.04,0.3h-0.2l0-0.01c0-0.21-0.17-0.25-0.17-0.25
							c0,0-0.16,0.03-0.16,0.25L8.26,10.02z M8.61,10h0.16L8.74,9.75l-0.29,0c0.02,0.01,0.04,0.02,0.07,0.05
							C8.56,9.83,8.6,9.89,8.61,10z M8.08,10l0.16,0c0-0.12,0.05-0.19,0.1-0.22c0.02-0.02,0.04-0.03,0.06-0.03l-0.28,0L8.08,10z"/>
					</g>
					<g>
						<path class="st4" d="M8.05,10.01h0.73c0.02,0,0.03,0.02,0.03,0.03c0,0.02-0.01,0.03-0.03,0.03H8.05
							c-0.02,0-0.03-0.02-0.03-0.03C8.03,10.03,8.04,10.01,8.05,10.01z"/>
						<path d="M8.79,10.09H8.05c-0.02,0-0.04-0.02-0.04-0.04c0-0.02,0.02-0.04,0.04-0.04h0.73c0.02,0,0.04,0.02,0.04,0.04
							C8.83,10.07,8.81,10.09,8.79,10.09z M8.05,10.02c-0.01,0-0.02,0.01-0.02,0.02c0,0.01,0.01,0.02,0.02,0.02h0.73
							c0.01,0,0.02-0.01,0.02-0.02c0-0.01-0.01-0.02-0.02-0.02H8.05z"/>
					</g>
					<g>
						<path class="st4" d="M8.32,10.01c0-0.14,0.1-0.18,0.1-0.18c0,0,0.1,0.04,0.1,0.18H8.32"/>
						<path d="M8.53,10.02H8.31l0-0.01c0-0.09,0.04-0.15,0.07-0.17c0,0,0.03-0.02,0.04-0.02h0c0.01,0,0.11,0.05,0.11,0.19
							L8.53,10.02z M8.33,10h0.18c0-0.11-0.07-0.15-0.09-0.16C8.4,9.85,8.34,9.89,8.33,10z"/>
					</g>
					<g>
						<path class="st4" d="M8.07,9.62h0.7c0.01,0,0.03,0.01,0.03,0.03c0,0.02-0.01,0.03-0.03,0.03h-0.7c-0.01,0-0.03-0.01-0.03-0.03
							C8.04,9.64,8.05,9.62,8.07,9.62z"/>
						<path d="M8.77,9.69h-0.7c-0.02,0-0.04-0.02-0.04-0.04s0.02-0.04,0.04-0.04h0.7c0.02,0,0.04,0.02,0.04,0.04
							S8.79,9.69,8.77,9.69z M8.07,9.63c-0.01,0-0.02,0.01-0.02,0.02c0,0.01,0.01,0.02,0.02,0.02h0.7c0.01,0,0.02-0.01,0.02-0.02
							c0-0.01-0.01-0.02-0.02-0.02H8.07z"/>
					</g>
					<g>
						<path class="st4" d="M8.08,9.68h0.67c0.01,0,0.03,0.01,0.03,0.03c0,0.02-0.01,0.03-0.03,0.03H8.08
							c-0.01,0-0.03-0.01-0.03-0.03C8.06,9.7,8.07,9.68,8.08,9.68z"/>
						<path d="M8.76,9.76H8.08c-0.02,0-0.04-0.02-0.04-0.04c0-0.02,0.02-0.04,0.04-0.04h0.67c0.02,0,0.04,0.02,0.04,0.04
							C8.79,9.74,8.78,9.76,8.76,9.76z M8.08,9.7c-0.01,0-0.01,0.01-0.01,0.02c0,0.01,0.01,0.02,0.01,0.02h0.67
							c0.01,0,0.01-0.01,0.01-0.02c0-0.01-0.01-0.02-0.01-0.02H8.08z"/>
					</g>
					<g>
						<path class="st4" d="M8.3,9.23l0.05,0v0.04h0.04V9.22l0.05,0v0.04h0.04V9.22h0.05l0,0.09c0,0.01-0.01,0.02-0.02,0.02H8.33
							c-0.01,0-0.02-0.01-0.02-0.02L8.3,9.23L8.3,9.23L8.3,9.23z"/>
						<path d="M8.52,9.35H8.33c-0.02,0-0.04-0.02-0.04-0.03l0-0.09l0.01,0l0.06,0v0.04h0.02V9.21l0.08,0v0.04h0.02V9.21h0.08l0,0.1
							C8.55,9.33,8.54,9.35,8.52,9.35z M8.31,9.24l0,0.08c0,0.01,0.01,0.01,0.01,0.01h0.19c0.01,0,0.01,0,0.01-0.01l0-0.08H8.5v0.04
							H8.44V9.24l-0.03,0v0.04H8.34V9.24L8.31,9.24z"/>
					</g>
					<g>
						<path class="st4" d="M8.5,9.34l0.01,0.28l-0.19,0l0.01-0.28L8.5,9.34"/>
						<path d="M8.52,9.63l-0.21,0l0.01-0.3l0.18,0L8.52,9.63z M8.34,9.61l0.16,0L8.49,9.35l-0.14,0L8.34,9.61z"/>
					</g>
					<g>
						<path class="st4" d="M8.27,9.47l0.01,0.15l-0.18,0l0.01-0.15L8.27,9.47L8.27,9.47L8.27,9.47z"/>
						<path d="M8.09,9.63L8.1,9.46h0.19l0.01,0.17L8.09,9.63z M8.12,9.48l0,0.13l0.16,0l0-0.13H8.12z"/>
					</g>
					<g>
						<g>
							<path class="st4" d="M8.73,9.47l0.01,0.15l-0.18,0l0.01-0.15L8.73,9.47L8.73,9.47L8.73,9.47z"/>
							<path d="M8.55,9.63l0.01-0.17h0.19l0.01,0.17L8.55,9.63z M8.58,9.48l0,0.13l0.16,0l0-0.13H8.58z"/>
						</g>
					</g>
					<g>
						<path class="st4" d="M8.07,9.36l0.05,0V9.4h0.04V9.36l0.05,0V9.4h0.04V9.36l0.05,0l0,0.09c0,0.01-0.01,0.02-0.02,0.02H8.1
							c-0.01,0-0.02-0.01-0.02-0.02L8.07,9.36L8.07,9.36L8.07,9.36z"/>
						<path d="M8.28,9.48H8.1c-0.02,0-0.03-0.02-0.04-0.03l0-0.09l0.01-0.01l0,0l0.06,0v0.04h0.02V9.35l0.07,0v0.04h0.02V9.35
							l0.07,0l0,0.1C8.32,9.47,8.3,9.48,8.28,9.48z M8.08,9.37l0,0.08c0,0.01,0.01,0.01,0.01,0.01h0.19c0.01,0,0.01,0,0.01-0.01
							l0-0.08l-0.03,0v0.04H8.21V9.37l-0.03,0v0.04H8.11V9.37L8.08,9.37z"/>
					</g>
					<g>
						<g>
							<path class="st4" d="M8.53,9.36l0.05,0V9.4h0.04V9.36l0.05,0V9.4h0.04V9.36l0.05,0l0,0.09c0,0.01-0.01,0.02-0.02,0.02H8.56
								c-0.01,0-0.02-0.01-0.02-0.02L8.53,9.36L8.53,9.36L8.53,9.36z"/>
							<path d="M8.74,9.48H8.56c-0.02,0-0.03-0.02-0.04-0.03l0-0.09l0.01-0.01l0,0l0.06,0v0.04h0.02V9.35l0.07,0v0.04H8.7V9.35
								l0.08,0l0,0.1C8.78,9.47,8.76,9.48,8.74,9.48z M8.54,9.37l0,0.08c0,0.01,0.01,0.01,0.01,0.01h0.19c0.01,0,0.01,0,0.01-0.01
								l0-0.08l-0.03,0v0.04H8.67V9.37l-0.03,0v0.04H8.57V9.37L8.54,9.37z"/>
						</g>
					</g>
					<g>
						<path d="M8.4,9.43c0-0.03,0.04-0.03,0.04,0V9.5H8.4L8.4,9.43"/>
					</g>
					<g>
						<path d="M8.17,9.53c0-0.03,0.04-0.03,0.04,0v0.05H8.17L8.17,9.53"/>
					</g>
					<g>
						<g>
							<path d="M8.63,9.53c0-0.03,0.04-0.03,0.04,0v0.05H8.63L8.63,9.53"/>
						</g>
					</g>
				</g>
			</g>
			<g transform="matrix(0.70460892,-0.70959585,0.70959585,0.70460892,-35.341459,275.10898)">
				<g>
					<g>
						<path class="st4" d="M9.02,12.12c-0.17-0.17-0.09-0.33-0.09-0.33c0,0,0.17-0.09,0.34,0.08L9.02,12.12"/>
					</g>
					<g>
						<path class="st4" d="M8.71,12.02l0.17,0.21l0.13-0.13c-0.16-0.16-0.07-0.31-0.06-0.31c0,0,0.16-0.09,0.31,0.06l0.13-0.13
							l-0.22-0.17L8.71,12.02L8.71,12.02L8.71,12.02z"/>
						<path d="M8.89,12.25L8.7,12.02l0-0.01l0.01-0.01l0.46-0.47l0.24,0.19l-0.14,0.14l-0.01-0.01c-0.15-0.14-0.3-0.06-0.3-0.06l0,0
							c0,0-0.09,0.14,0.06,0.3l0.01,0.01L8.89,12.25z M8.73,12.02l0.16,0.2L9,12.1c-0.08-0.09-0.09-0.17-0.09-0.22
							c0-0.03,0.01-0.05,0.02-0.06L8.73,12.02z M9.06,11.76c0.05,0,0.13,0.02,0.2,0.08l0.11-0.11l-0.2-0.16l-0.2,0.2
							c0.02-0.01,0.05-0.01,0.08-0.02C9.06,11.76,9.06,11.76,9.06,11.76z"/>
					</g>
					<g>
						<path class="st4" d="M8.88,12.24l0.52-0.52c0.01-0.01,0.03-0.01,0.04,0c0.01,0.01,0.02,0.03,0,0.04l-0.52,0.52
							c-0.01,0.01-0.03,0.01-0.04,0C8.87,12.27,8.87,12.25,8.88,12.24z"/>
						<path d="M8.91,12.31c-0.01,0-0.02,0-0.03-0.01c-0.02-0.02-0.02-0.04,0-0.06h0l0.52-0.52C9.4,11.7,9.41,11.7,9.42,11.7
							c0.01,0,0.02,0.01,0.03,0.01c0.01,0.01,0.01,0.02,0.01,0.03c0,0.01,0,0.02-0.01,0.03L8.94,12.3
							C8.93,12.3,8.92,12.31,8.91,12.31z M8.89,12.25L8.89,12.25c-0.01,0.01,0,0.02,0,0.03c0.01,0.01,0.02,0.01,0.03,0l0.52-0.52
							c0,0,0-0.01,0-0.01c0-0.01,0-0.01-0.01-0.02c0,0-0.01-0.01-0.02-0.01c0,0-0.01,0-0.01,0L8.89,12.25L8.89,12.25z"/>
					</g>
					<g>
						<path class="st4" d="M9.07,12.05c-0.1-0.1-0.06-0.2-0.06-0.2c0,0,0.1-0.04,0.2,0.06L9.07,12.05"/>
						<path d="M9.07,12.07L9.07,12.07c-0.07-0.07-0.08-0.14-0.08-0.18c0,0,0-0.04,0.01-0.04c0.01,0,0.11-0.04,0.22,0.06l0.01,0.01
							L9.07,12.07z M9.01,11.86c-0.01,0.02-0.02,0.09,0.05,0.18l0.13-0.13C9.11,11.83,9.03,11.85,9.01,11.86z"/>
					</g>
					<g>
						<path class="st4" d="M8.61,11.95l0.5-0.5c0.01-0.01,0.03-0.01,0.04,0c0.01,0.01,0.01,0.03,0,0.04L8.66,12
							c-0.01,0.01-0.03,0.01-0.04,0C8.61,11.98,8.6,11.97,8.61,11.95z"/>
						<path d="M8.64,12.02c-0.01,0-0.02,0-0.03-0.01C8.6,12,8.6,11.99,8.6,11.98c0-0.01,0-0.02,0.01-0.03l0.5-0.5
							c0.01-0.01,0.02-0.01,0.03-0.01c0,0,0,0,0,0c0.01,0,0.02,0,0.03,0.01c0.01,0.01,0.01,0.02,0.01,0.03c0,0.01,0,0.02-0.01,0.03
							l-0.5,0.5C8.66,12.01,8.65,12.02,8.64,12.02z M9.13,11.46c0,0-0.01,0-0.01,0l-0.5,0.5c0,0,0,0.01,0,0.01c0,0,0,0.01,0.01,0.01
							c0.01,0.01,0.02,0.01,0.03,0l0.5-0.5c0,0,0-0.01,0-0.01c0-0.01,0-0.01-0.01-0.01C9.14,11.46,9.13,11.46,9.13,11.46z"/>
					</g>
					<g>
						<path class="st4" d="M8.67,11.99l0.47-0.48c0.01-0.01,0.03-0.01,0.04,0c0.01,0.01,0.01,0.03,0,0.04l-0.47,0.48
							c-0.01,0.01-0.03,0.01-0.04,0C8.66,12.02,8.66,12,8.67,11.99z"/>
						<path d="M8.69,12.05c-0.01,0-0.02,0-0.03-0.01c-0.02-0.02-0.02-0.04,0-0.06h0l0.47-0.48c0.01-0.01,0.04-0.01,0.06,0
							c0.01,0.01,0.01,0.02,0.01,0.03c0,0.01,0,0.02-0.01,0.02l-0.47,0.48C8.71,12.04,8.7,12.05,8.69,12.05z M8.68,12
							c-0.01,0.01,0,0.02,0,0.02c0.01,0.01,0.02,0.01,0.02,0l0.47-0.48c0,0,0-0.01,0-0.01c0-0.01,0-0.01-0.01-0.02
							c-0.01-0.01-0.02-0.01-0.02,0L8.68,12L8.68,12z"/>
					</g>
					<g>
						<path class="st4" d="M8.5,11.51l0.04-0.04l0.03,0.03l0.03-0.03l-0.03-0.03l0.04-0.04l0.03,0.03l0.03-0.03l-0.03-0.03
							l0.04-0.04l0.06,0.06c0.01,0.01,0.01,0.02,0,0.03l-0.13,0.14c-0.01,0.01-0.02,0.01-0.03,0L8.5,11.51L8.5,11.51L8.5,11.51z"/>
						<path d="M8.57,11.59c-0.01,0-0.02,0-0.02-0.01l-0.07-0.07l0.05-0.05l0.03,0.03l0.01-0.01l-0.03-0.03l0.05-0.05l0.03,0.03
							l0.01-0.01l-0.03-0.03l0.05-0.05l0.07,0.07c0.01,0.01,0.01,0.03,0,0.05L8.6,11.58C8.59,11.58,8.58,11.59,8.57,11.59z
							 M8.51,11.51l0.05,0.05c0,0,0.01,0,0.02,0l0.13-0.14c0,0,0.01-0.01,0-0.02l-0.05-0.05l-0.02,0.02l0.03,0.03l-0.04,0.04
							L8.6,11.42l-0.02,0.02l0.03,0.03l-0.04,0.04l-0.03-0.03L8.51,11.51z"/>
					</g>
					<g>
						<path class="st4" d="M8.72,11.45l0.21,0.19l-0.13,0.13L8.6,11.56L8.72,11.45"/>
						<path d="M8.79,11.79l-0.2-0.22l0.13-0.13l0.22,0.2L8.79,11.79z M8.62,11.56l0.18,0.19l0.12-0.12l-0.19-0.17L8.62,11.56z"/>
					</g>
					<g>
						<path class="st4" d="M8.65,11.7l0.11,0.1l-0.13,0.13l-0.1-0.11L8.65,11.7L8.65,11.7L8.65,11.7z"/>
						<path d="M8.64,11.95l-0.12-0.13l0.12-0.12h0l0.01-0.01l0.01,0.01l0.01-0.01l0.12,0.11L8.64,11.95z M8.55,11.82l0.09,0.09
							l0.11-0.11l-0.1-0.09L8.55,11.82z"/>
					</g>
					<g>
						<g>
							<path class="st4" d="M8.98,11.38l0.11,0.1l-0.13,0.13l-0.1-0.11L8.98,11.38L8.98,11.38L8.98,11.38z"/>
							<path d="M8.96,11.62L8.84,11.5l0.13-0.13l0.13,0.12L8.96,11.62z M8.87,11.5l0.09,0.09l0.11-0.11l-0.09-0.09L8.87,11.5z"/>
						</g>
					</g>
					<g>
						<path class="st4" d="M8.43,11.77l0.04-0.04l0.03,0.03l0.03-0.03L8.5,11.7l0.04-0.04l0.03,0.03l0.03-0.03l-0.03-0.03L8.6,11.6
							l0.06,0.06c0.01,0.01,0.01,0.02,0,0.03l-0.13,0.13c-0.01,0.01-0.02,0.01-0.03,0L8.43,11.77L8.43,11.77L8.43,11.77z"/>
						<path d="M8.51,11.85c-0.01,0-0.02,0-0.02-0.01l-0.07-0.07l0-0.01l0.05-0.05l0.03,0.03l0.01-0.01L8.48,11.7l0.05-0.05
							l0.03,0.03l0.01-0.01l-0.03-0.03l0.05-0.05l0.07,0.07c0.01,0.01,0.01,0.03,0,0.05l-0.13,0.13
							C8.53,11.84,8.52,11.85,8.51,11.85z M8.45,11.77l0.05,0.05c0,0,0.01,0,0.02,0l0.13-0.13c0,0,0.01-0.01,0-0.02L8.6,11.62
							l-0.02,0.02l0.03,0.03l-0.04,0.04l-0.03-0.03L8.51,11.7l0.03,0.03L8.5,11.77l-0.03-0.03L8.45,11.77z"/>
					</g>
					<g>
						<g>
							<path class="st4" d="M8.76,11.44l0.04-0.04l0.03,0.03l0.03-0.03l-0.03-0.03l0.04-0.04l0.03,0.03l0.03-0.03l-0.03-0.03
								l0.04-0.04l0.06,0.06c0.01,0.01,0.01,0.02,0,0.03L8.85,11.5c-0.01,0.01-0.02,0.01-0.03,0L8.76,11.44L8.76,11.44L8.76,11.44z"
								/>
							<path d="M8.83,11.52c-0.01,0-0.02,0-0.02-0.01l-0.07-0.06l0-0.01l0.05-0.05l0.03,0.03l0.01-0.01L8.8,11.38l0.05-0.05
								l0.03,0.03l0.01-0.01l-0.03-0.03l0.05-0.05l0.07,0.07c0.01,0.01,0.01,0.03,0,0.05l-0.13,0.13
								C8.85,11.52,8.84,11.52,8.83,11.52z M8.77,11.44l0.05,0.05c0,0,0.01,0,0.02,0l0.13-0.13c0,0,0.01-0.01,0-0.02l-0.05-0.05
								L8.9,11.31l0.03,0.03l-0.04,0.04l-0.03-0.03l-0.02,0.02l0.03,0.03l-0.04,0.04l-0.03-0.03L8.77,11.44z"/>
						</g>
					</g>
					<g>
						<path d="M8.71,11.58c-0.02-0.02,0.01-0.05,0.03-0.03l0.05,0.05l-0.03,0.03L8.71,11.58"/>
					</g>
					<g>
						<path d="M8.62,11.81c-0.02-0.02,0.01-0.04,0.03-0.03l0.04,0.04l-0.03,0.03L8.62,11.81"/>
					</g>
					<g>
						<g>
							<path d="M8.94,11.49c-0.02-0.02,0.01-0.04,0.03-0.03l0.04,0.04l-0.03,0.03L8.94,11.49"/>
						</g>
					</g>
				</g>
			</g>
		</g>
		<g>
			<g>
				<g>
					<path class="st4" d="M10.22,8.02c0.01-0.24,0.18-0.3,0.18-0.3c0,0,0.18,0.06,0.18,0.3L10.22,8.02"/>
				</g>
				<g>
					<path class="st4" d="M10.08,7.73l-0.03,0.27l0.18,0c0-0.23,0.17-0.27,0.18-0.26c0,0,0.17,0.05,0.18,0.26h0.18l-0.03-0.28
						L10.08,7.73L10.08,7.73L10.08,7.73z"/>
					<path d="M10.24,8.02l-0.2,0l0.03-0.29l0-0.01l0.67,0l0.04,0.3h-0.2l0-0.01c0-0.21-0.17-0.25-0.17-0.25c0,0-0.16,0.03-0.16,0.25
						L10.24,8.02z M10.59,7.99h0.16l-0.03-0.26l-0.29,0c0.02,0.01,0.04,0.02,0.07,0.05C10.54,7.82,10.59,7.89,10.59,7.99z
						 M10.06,7.99l0.16,0c0-0.12,0.05-0.19,0.1-0.22c0.02-0.02,0.04-0.03,0.06-0.03l-0.28,0L10.06,7.99z"/>
				</g>
				<g>
					<path class="st4" d="M10.03,8.01h0.73c0.02,0,0.03,0.02,0.03,0.03c0,0.02-0.01,0.03-0.03,0.03h-0.73
						c-0.02,0-0.03-0.02-0.03-0.03C10.01,8.02,10.02,8.01,10.03,8.01z"/>
					<path d="M10.77,8.08h-0.73C10.01,8.08,10,8.06,10,8.04C10,8.02,10.01,8,10.03,8h0.73c0.02,0,0.04,0.02,0.04,0.04
						C10.81,8.06,10.79,8.08,10.77,8.08z M10.03,8.02c-0.01,0-0.02,0.01-0.02,0.02c0,0.01,0.01,0.02,0.02,0.02h0.73
						c0.01,0,0.02-0.01,0.02-0.02c0-0.01-0.01-0.02-0.02-0.02H10.03z"/>
				</g>
				<g>
					<path class="st4" d="M10.3,8c0-0.14,0.1-0.18,0.1-0.18c0,0,0.1,0.04,0.1,0.18H10.3"/>
					<path d="M10.51,8.02h-0.22l0-0.01c0-0.09,0.04-0.15,0.07-0.17c0,0,0.03-0.02,0.04-0.02h0c0.01,0,0.11,0.05,0.11,0.19
						L10.51,8.02z M10.31,7.99h0.18c0-0.11-0.07-0.15-0.09-0.16C10.38,7.84,10.32,7.88,10.31,7.99z"/>
				</g>
				<g>
					<path class="st4" d="M10.05,7.62h0.7c0.01,0,0.03,0.01,0.03,0.03c0,0.02-0.01,0.03-0.03,0.03h-0.7c-0.01,0-0.03-0.01-0.03-0.03
						C10.02,7.63,10.04,7.62,10.05,7.62z"/>
					<path d="M10.75,7.69h-0.7c-0.02,0-0.04-0.02-0.04-0.04c0-0.02,0.02-0.04,0.04-0.04h0.7c0.02,0,0.04,0.02,0.04,0.04
						C10.79,7.67,10.77,7.69,10.75,7.69z M10.05,7.63c-0.01,0-0.02,0.01-0.02,0.02s0.01,0.02,0.02,0.02h0.7
						c0.01,0,0.02-0.01,0.02-0.02s-0.01-0.02-0.02-0.02H10.05z"/>
				</g>
				<g>
					<path class="st4" d="M10.06,7.68h0.67c0.01,0,0.03,0.01,0.03,0.03c0,0.02-0.01,0.03-0.03,0.03h-0.67
						c-0.01,0-0.03-0.01-0.03-0.03C10.04,7.69,10.05,7.68,10.06,7.68z"/>
					<path d="M10.74,7.75h-0.67c-0.02,0-0.04-0.02-0.04-0.04c0-0.02,0.02-0.04,0.04-0.04h0.67c0.02,0,0.04,0.02,0.04,0.04
						C10.77,7.73,10.76,7.75,10.74,7.75z M10.06,7.69c-0.01,0-0.01,0.01-0.01,0.02c0,0.01,0.01,0.02,0.01,0.02h0.67
						c0.01,0,0.01-0.01,0.01-0.02c0-0.01-0.01-0.02-0.01-0.02H10.06z"/>
				</g>
				<g>
					<path class="st4" d="M10.28,7.22l0.05,0v0.04h0.04V7.22l0.05,0v0.04h0.04V7.22h0.05l0,0.09c0,0.01-0.01,0.02-0.02,0.02h-0.19
						c-0.01,0-0.02-0.01-0.02-0.02L10.28,7.22L10.28,7.22L10.28,7.22z"/>
					<path d="M10.5,7.34h-0.19c-0.02,0-0.04-0.02-0.04-0.03l0-0.09l0.01,0l0.06,0v0.04h0.02V7.21l0.08,0v0.04h0.02V7.21h0.08l0,0.1
						C10.53,7.32,10.52,7.34,10.5,7.34z M10.29,7.23l0,0.08c0,0.01,0.01,0.01,0.01,0.01h0.19c0.01,0,0.01,0,0.01-0.01l0-0.08h-0.03
						v0.04h-0.06V7.23l-0.03,0v0.04h-0.06V7.23L10.29,7.23z"/>
				</g>
				<g>
					<path class="st4" d="M10.48,7.33l0.01,0.28l-0.19,0l0.01-0.28L10.48,7.33"/>
					<path d="M10.51,7.63l-0.21,0l0.01-0.3l0.18,0L10.51,7.63z M10.32,7.6l0.16,0l-0.01-0.26l-0.14,0L10.32,7.6z"/>
				</g>
				<g>
					<path class="st4" d="M10.25,7.46l0.01,0.15l-0.18,0l0.01-0.15L10.25,7.46L10.25,7.46L10.25,7.46z"/>
					<path d="M10.07,7.63l0.01-0.17h0.19l0.01,0.17L10.07,7.63z M10.1,7.48l0,0.13l0.16,0l0-0.13H10.1z"/>
				</g>
				<g>
					<g>
						<path class="st4" d="M10.71,7.46l0.01,0.15l-0.18,0l0.01-0.15L10.71,7.46L10.71,7.46L10.71,7.46z"/>
						<path d="M10.53,7.63l0.01-0.17h0.19l0.01,0.17L10.53,7.63z M10.56,7.48l0,0.13l0.16,0l0-0.13H10.56z"/>
					</g>
				</g>
				<g>
					<path class="st4" d="M10.05,7.36l0.05,0v0.04h0.04V7.35l0.05,0v0.04h0.04V7.35l0.05,0l0,0.09c0,0.01-0.01,0.02-0.02,0.02h-0.19
						c-0.01,0-0.02-0.01-0.02-0.02L10.05,7.36L10.05,7.36L10.05,7.36z"/>
					<path d="M10.27,7.48h-0.19c-0.02,0-0.03-0.02-0.04-0.03l0-0.09l0.01-0.01l0,0l0.06,0v0.04h0.02V7.34l0.07,0v0.04h0.02V7.34
						l0.07,0l0,0.1C10.3,7.46,10.28,7.48,10.27,7.48z M10.06,7.37l0,0.08c0,0.01,0.01,0.01,0.01,0.01h0.19c0.01,0,0.01,0,0.01-0.01
						l0-0.08l-0.03,0V7.4h-0.06V7.37l-0.03,0V7.4H10.1V7.37L10.06,7.37z"/>
				</g>
				<g>
					<g>
						<path class="st4" d="M10.51,7.36l0.05,0v0.04h0.04V7.35l0.05,0v0.04h0.04V7.35l0.05,0l0,0.09c0,0.01-0.01,0.02-0.02,0.02
							h-0.19c-0.01,0-0.02-0.01-0.02-0.02L10.51,7.36L10.51,7.36L10.51,7.36z"/>
						<path d="M10.73,7.48h-0.19c-0.02,0-0.03-0.02-0.04-0.03l0-0.09l0.01-0.01l0,0l0.06,0v0.04h0.02V7.34l0.07,0v0.04h0.02V7.34
							l0.07,0l0,0.1C10.76,7.46,10.74,7.48,10.73,7.48z M10.52,7.37l0,0.08c0,0.01,0.01,0.01,0.01,0.01h0.19
							c0.01,0,0.01,0,0.01-0.01l0-0.08l-0.03,0V7.4h-0.06V7.37l-0.03,0V7.4h-0.06V7.37L10.52,7.37z"/>
					</g>
				</g>
				<g>
					<path d="M10.38,7.42c0-0.03,0.04-0.03,0.04,0v0.07h-0.04L10.38,7.42"/>
				</g>
				<g>
					<path d="M10.15,7.52c0-0.03,0.04-0.03,0.04,0v0.05h-0.04L10.15,7.52"/>
				</g>
				<g>
					<g>
						<path d="M10.61,7.52c0-0.03,0.04-0.03,0.04,0v0.05h-0.04L10.61,7.52"/>
					</g>
				</g>
			</g>
		</g>
		<g transform="matrix(-1,0,0,1,479.79195,0)">
			<g>
				<g>
					<g>
						<path class="st4" d="M12.55,8.02c-0.01-0.24-0.18-0.3-0.18-0.3c0,0-0.18,0.06-0.18,0.3L12.55,8.02"/>
					</g>
					<g>
						<path class="st4" d="M12.7,7.73l0.03,0.27l-0.18,0c0-0.23-0.17-0.27-0.18-0.26c0,0-0.17,0.05-0.18,0.26h-0.18l0.03-0.28
							L12.7,7.73L12.7,7.73L12.7,7.73z"/>
						<path d="M12.54,8.02l0-0.01c0-0.22-0.16-0.25-0.17-0.25c0,0-0.16,0.05-0.17,0.25l0,0.01H12l0.04-0.3l0.67,0v0.01l0.03,0.29
							L12.54,8.02z M12.02,7.99h0.16c0.01-0.11,0.05-0.17,0.09-0.21c0.02-0.02,0.05-0.04,0.07-0.05l-0.29,0L12.02,7.99z M12.4,7.74
							c0.02,0.01,0.04,0.02,0.06,0.03c0.04,0.03,0.09,0.1,0.1,0.22l0.16,0l-0.03-0.25L12.4,7.74z"/>
					</g>
					<g>
						<path class="st4" d="M12.74,8.01H12c-0.02,0-0.03,0.02-0.03,0.03c0,0.02,0.01,0.03,0.03,0.03h0.73c0.02,0,0.03-0.02,0.03-0.03
							C12.77,8.02,12.75,8.01,12.74,8.01z"/>
						<path d="M12.74,8.08H12c-0.02,0-0.04-0.02-0.04-0.04C11.96,8.02,11.98,8,12,8h0.73c0.02,0,0.04,0.02,0.04,0.04
							C12.78,8.06,12.76,8.08,12.74,8.08z M12,8.02c-0.01,0-0.02,0.01-0.02,0.02c0,0.01,0.01,0.02,0.02,0.02h0.73
							c0.01,0,0.02-0.01,0.02-0.02c0-0.01-0.01-0.02-0.02-0.02H12z"/>
					</g>
					<g>
						<path class="st4" d="M12.47,8c0-0.14-0.1-0.18-0.1-0.18c0,0-0.1,0.04-0.1,0.18H12.47"/>
						<path d="M12.48,8.02h-0.22l0-0.01c0-0.15,0.1-0.19,0.11-0.19c0.01,0,0.04,0.02,0.04,0.02c0.03,0.03,0.07,0.08,0.07,0.17
							L12.48,8.02z M12.28,7.99h0.18c0-0.11-0.07-0.15-0.09-0.16C12.36,7.84,12.29,7.88,12.28,7.99z"/>
					</g>
					<g>
						<path class="st4" d="M12.72,7.62h-0.7c-0.01,0-0.03,0.01-0.03,0.03c0,0.02,0.01,0.03,0.03,0.03h0.7
							c0.01,0,0.03-0.01,0.03-0.03C12.75,7.63,12.74,7.62,12.72,7.62z"/>
						<path d="M12.72,7.69h-0.7c-0.02,0-0.04-0.02-0.04-0.04c0-0.02,0.02-0.04,0.04-0.04h0.7c0.02,0,0.04,0.02,0.04,0.04
							C12.76,7.67,12.74,7.69,12.72,7.69z M12.02,7.63C12.01,7.63,12,7.64,12,7.65s0.01,0.02,0.02,0.02h0.7
							c0.01,0,0.02-0.01,0.02-0.02c0-0.01-0.01-0.02-0.02-0.02H12.02z"/>
					</g>
					<g>
						<path class="st4" d="M12.71,7.68h-0.67c-0.01,0-0.03,0.01-0.03,0.03c0,0.02,0.01,0.03,0.03,0.03h0.67
							c0.01,0,0.03-0.01,0.03-0.03C12.73,7.69,12.72,7.68,12.71,7.68z"/>
						<path d="M12.71,7.75h-0.67C12.01,7.75,12,7.73,12,7.71c0-0.02,0.02-0.04,0.04-0.04h0.67c0.02,0,0.04,0.02,0.04,0.04
							C12.74,7.73,12.73,7.75,12.71,7.75z M12.03,7.69c-0.01,0-0.01,0.01-0.01,0.02c0,0.01,0.01,0.02,0.01,0.02h0.67
							c0.01,0,0.01-0.01,0.01-0.02c0-0.01-0.01-0.02-0.01-0.02H12.03z"/>
					</g>
					<g>
						<path class="st4" d="M12.49,7.22l-0.05,0v0.04H12.4V7.22l-0.05,0v0.04H12.3V7.22h-0.05l0,0.09c0,0.01,0.01,0.02,0.02,0.02
							h0.19c0.01,0,0.02-0.01,0.02-0.02L12.49,7.22L12.49,7.22L12.49,7.22z"/>
						<path d="M12.46,7.34h-0.19c-0.02,0-0.03-0.01-0.03-0.03l0-0.1h0.08v0.04h0.02V7.21l0.08,0v0.04h0.02V7.21l0.07,0l0.01,0
							l0,0.09C12.5,7.32,12.48,7.34,12.46,7.34z M12.26,7.23l0,0.08c0,0.01,0.01,0.01,0.01,0.01h0.19c0.01,0,0.01-0.01,0.01-0.01
							l0-0.08l-0.03,0v0.04h-0.06V7.23l-0.03,0v0.04h-0.06V7.23H12.26z"/>
					</g>
					<g>
						<path class="st4" d="M12.29,7.33l-0.01,0.28l0.19,0l-0.01-0.28L12.29,7.33"/>
						<path d="M12.27,7.63l0.01-0.3l0.18,0l0.01,0.3L12.27,7.63z M12.3,7.35L12.29,7.6l0.16,0l-0.01-0.26L12.3,7.35z"/>
					</g>
					<g>
						<path class="st4" d="M12.52,7.46l-0.01,0.15l0.18,0l-0.01-0.15L12.52,7.46L12.52,7.46L12.52,7.46z"/>
						<path d="M12.7,7.63l-0.2,0l0.01-0.17h0.19L12.7,7.63z M12.52,7.6l0.16,0l0-0.13h-0.15L12.52,7.6z"/>
					</g>
					<g>
						<g>
							<path class="st4" d="M12.06,7.46l-0.01,0.15l0.18,0l-0.01-0.15L12.06,7.46L12.06,7.46L12.06,7.46z"/>
							<path d="M12.24,7.63l-0.2,0l0.01-0.17h0.19L12.24,7.63z M12.06,7.6l0.16,0l0-0.13h-0.15L12.06,7.6z"/>
						</g>
					</g>
					<g>
						<path class="st4" d="M12.72,7.36l-0.05,0v0.04h-0.04V7.35l-0.05,0v0.04h-0.04V7.35l-0.05,0l0,0.09c0,0.01,0.01,0.02,0.02,0.02
							h0.19c0.01,0,0.02-0.01,0.02-0.02L12.72,7.36L12.72,7.36L12.72,7.36z"/>
						<path d="M12.69,7.48h-0.19c-0.02,0-0.03-0.01-0.03-0.03l0-0.1l0.07,0v0.04h0.02V7.34l0.07,0v0.04h0.02V7.34l0.07,0l0.01,0.01
							l0,0.09C12.73,7.46,12.71,7.48,12.69,7.48z M12.49,7.37l0,0.08c0,0.01,0.01,0.01,0.01,0.01h0.19c0.01,0,0.01-0.01,0.01-0.01
							l0-0.08l-0.03,0V7.4h-0.06V7.37l-0.03,0V7.4h-0.06V7.37L12.49,7.37z"/>
					</g>
					<g>
						<g>
							<path class="st4" d="M12.26,7.36l-0.05,0v0.04h-0.04V7.35l-0.05,0v0.04h-0.04V7.35l-0.05,0l0,0.09
								c0,0.01,0.01,0.02,0.02,0.02h0.19c0.01,0,0.02-0.01,0.02-0.02L12.26,7.36L12.26,7.36L12.26,7.36z"/>
							<path d="M12.23,7.48h-0.19c-0.02,0-0.03-0.01-0.03-0.03l0-0.1l0.07,0v0.04h0.02V7.34l0.07,0v0.04h0.02V7.34l0.07,0l0.01,0.01
								l0,0.09C12.27,7.46,12.25,7.48,12.23,7.48z M12.03,7.37l0,0.08c0,0.01,0.01,0.01,0.01,0.01h0.19c0.01,0,0.01-0.01,0.01-0.01
								l0-0.08l-0.03,0V7.4h-0.06V7.37l-0.03,0V7.4h-0.06V7.37L12.03,7.37z"/>
						</g>
					</g>
					<g>
						<path d="M12.39,7.42c0-0.03-0.04-0.03-0.04,0v0.07h0.04L12.39,7.42"/>
					</g>
					<g>
						<path d="M12.62,7.52c0-0.03-0.04-0.03-0.04,0v0.05h0.04L12.62,7.52"/>
					</g>
					<g>
						<g>
							<path d="M12.16,7.52c0-0.03-0.04-0.03-0.04,0v0.05h0.04L12.16,7.52"/>
						</g>
					</g>
				</g>
				<g>
					<g>
						<g>
							<path class="st4" d="M12.55,10.03c-0.01-0.24-0.18-0.3-0.18-0.3c0,0-0.18,0.06-0.18,0.3L12.55,10.03"/>
						</g>
						<g>
							<path class="st4" d="M12.7,9.74l0.03,0.27l-0.18,0c0-0.23-0.17-0.27-0.18-0.26c0,0-0.17,0.05-0.18,0.26h-0.18l0.03-0.28
								L12.7,9.74L12.7,9.74L12.7,9.74z"/>
							<path d="M12.54,10.02l0-0.01c0-0.22-0.16-0.25-0.17-0.25c0,0-0.16,0.05-0.17,0.25l0,0.01H12l0.04-0.3l0.67,0v0.01l0.03,0.29
								L12.54,10.02z M12.02,10h0.16c0.01-0.11,0.05-0.17,0.09-0.21c0.02-0.02,0.05-0.04,0.07-0.05l-0.29,0L12.02,10z M12.4,9.75
								c0.02,0.01,0.04,0.02,0.06,0.03c0.04,0.03,0.09,0.1,0.1,0.22l0.16,0l-0.03-0.25L12.4,9.75z"/>
						</g>
						<g>
							<path class="st4" d="M12.74,10.01H12c-0.02,0-0.03,0.02-0.03,0.03c0,0.02,0.01,0.03,0.03,0.03h0.73
								c0.02,0,0.03-0.02,0.03-0.03C12.77,10.03,12.75,10.01,12.74,10.01z"/>
							<path d="M12.74,10.09H12c-0.02,0-0.04-0.02-0.04-0.04c0-0.02,0.02-0.04,0.04-0.04h0.73c0.02,0,0.04,0.02,0.04,0.04
								C12.78,10.07,12.76,10.09,12.74,10.09z M12,10.02c-0.01,0-0.02,0.01-0.02,0.02c0,0.01,0.01,0.02,0.02,0.02h0.73
								c0.01,0,0.02-0.01,0.02-0.02c0-0.01-0.01-0.02-0.02-0.02H12z"/>
						</g>
						<g>
							<path class="st4" d="M12.47,10.01c0-0.14-0.1-0.18-0.1-0.18c0,0-0.1,0.04-0.1,0.18H12.47"/>
							<path d="M12.48,10.02h-0.22l0-0.01c0-0.15,0.1-0.19,0.11-0.19c0.01,0,0.04,0.02,0.04,0.02c0.03,0.03,0.07,0.08,0.07,0.17
								L12.48,10.02z M12.28,10h0.18c0-0.11-0.07-0.15-0.09-0.16C12.36,9.85,12.29,9.89,12.28,10z"/>
						</g>
						<g>
							<path class="st4" d="M12.72,9.62h-0.7c-0.01,0-0.03,0.01-0.03,0.03c0,0.02,0.01,0.03,0.03,0.03h0.7
								c0.01,0,0.03-0.01,0.03-0.03C12.75,9.64,12.74,9.62,12.72,9.62z"/>
							<path d="M12.72,9.69h-0.7c-0.02,0-0.04-0.02-0.04-0.04S12,9.61,12.02,9.61h0.7c0.02,0,0.04,0.02,0.04,0.04
								S12.74,9.69,12.72,9.69z M12.02,9.63C12.01,9.63,12,9.64,12,9.65c0,0.01,0.01,0.02,0.02,0.02h0.7c0.01,0,0.02-0.01,0.02-0.02
								c0-0.01-0.01-0.02-0.02-0.02H12.02z"/>
						</g>
						<g>
							<path class="st4" d="M12.71,9.68h-0.67c-0.01,0-0.03,0.01-0.03,0.03c0,0.02,0.01,0.03,0.03,0.03h0.67
								c0.01,0,0.03-0.01,0.03-0.03C12.73,9.7,12.72,9.68,12.71,9.68z"/>
							<path d="M12.71,9.76h-0.67C12.01,9.76,12,9.74,12,9.72c0-0.02,0.02-0.04,0.04-0.04h0.67c0.02,0,0.04,0.02,0.04,0.04
								C12.74,9.74,12.73,9.76,12.71,9.76z M12.03,9.7c-0.01,0-0.01,0.01-0.01,0.02c0,0.01,0.01,0.02,0.01,0.02h0.67
								c0.01,0,0.01-0.01,0.01-0.02c0-0.01-0.01-0.02-0.01-0.02H12.03z"/>
						</g>
						<g>
							<path class="st4" d="M12.49,9.23l-0.05,0v0.04H12.4V9.22l-0.05,0v0.04H12.3V9.22h-0.05l0,0.09c0,0.01,0.01,0.02,0.02,0.02
								h0.19c0.01,0,0.02-0.01,0.02-0.02L12.49,9.23L12.49,9.23L12.49,9.23z"/>
							<path d="M12.46,9.35h-0.19c-0.02,0-0.03-0.01-0.03-0.03l0-0.1h0.08v0.04h0.02V9.21l0.08,0v0.04h0.02V9.21l0.07,0l0.01,0
								l0,0.09C12.5,9.33,12.48,9.35,12.46,9.35z M12.26,9.24l0,0.08c0,0.01,0.01,0.01,0.01,0.01h0.19c0.01,0,0.01-0.01,0.01-0.01
								l0-0.08l-0.03,0v0.04h-0.06V9.24l-0.03,0v0.04h-0.06V9.24H12.26z"/>
						</g>
						<g>
							<path class="st4" d="M12.29,9.34l-0.01,0.28l0.19,0l-0.01-0.28L12.29,9.34"/>
							<path d="M12.27,9.63l0.01-0.3l0.18,0l0.01,0.3L12.27,9.63z M12.3,9.35l-0.01,0.26l0.16,0l-0.01-0.26L12.3,9.35z"/>
						</g>
						<g>
							<path class="st4" d="M12.52,9.47l-0.01,0.15l0.18,0l-0.01-0.15L12.52,9.47L12.52,9.47L12.52,9.47z"/>
							<path d="M12.7,9.63l-0.2,0l0.01-0.17h0.19L12.7,9.63z M12.52,9.61l0.16,0l0-0.13h-0.15L12.52,9.61z"/>
						</g>
						<g>
							<g>
								<path class="st4" d="M12.06,9.47l-0.01,0.15l0.18,0l-0.01-0.15L12.06,9.47L12.06,9.47L12.06,9.47z"/>
								<path d="M12.24,9.63l-0.2,0l0.01-0.17h0.19L12.24,9.63z M12.06,9.61l0.16,0l0-0.13h-0.15L12.06,9.61z"/>
							</g>
						</g>
						<g>
							<path class="st4" d="M12.72,9.36l-0.05,0V9.4h-0.04V9.36l-0.05,0V9.4h-0.04V9.36l-0.05,0l0,0.09c0,0.01,0.01,0.02,0.02,0.02
								h0.19c0.01,0,0.02-0.01,0.02-0.02L12.72,9.36L12.72,9.36L12.72,9.36z"/>
							<path d="M12.69,9.48h-0.19c-0.02,0-0.03-0.01-0.03-0.03l0-0.1l0.07,0v0.04h0.02V9.35l0.07,0v0.04h0.02V9.35l0.07,0l0.01,0.01
								l0,0.09C12.73,9.47,12.71,9.48,12.69,9.48z M12.49,9.37l0,0.08c0,0.01,0.01,0.01,0.01,0.01h0.19c0.01,0,0.01-0.01,0.01-0.01
								l0-0.08l-0.03,0v0.04h-0.06V9.37l-0.03,0v0.04h-0.06V9.37L12.49,9.37z"/>
						</g>
						<g>
							<g>
								<path class="st4" d="M12.26,9.36l-0.05,0V9.4h-0.04V9.36l-0.05,0V9.4h-0.04V9.36l-0.05,0l0,0.09c0,0.01,0.01,0.02,0.02,0.02
									h0.19c0.01,0,0.02-0.01,0.02-0.02L12.26,9.36L12.26,9.36L12.26,9.36z"/>
								<path d="M12.23,9.48h-0.19c-0.02,0-0.03-0.01-0.03-0.03l0-0.1l0.07,0v0.04h0.02V9.35l0.07,0v0.04h0.02V9.35l0.07,0
									l0.01,0.01l0,0.09C12.27,9.47,12.25,9.48,12.23,9.48z M12.03,9.37l0,0.08c0,0.01,0.01,0.01,0.01,0.01h0.19
									c0.01,0,0.01-0.01,0.01-0.01l0-0.08l-0.03,0v0.04h-0.06V9.37l-0.03,0v0.04h-0.06V9.37L12.03,9.37z"/>
							</g>
						</g>
						<g>
							<path d="M12.39,9.43c0-0.03-0.04-0.03-0.04,0V9.5h0.04L12.39,9.43"/>
						</g>
						<g>
							<path d="M12.62,9.53c0-0.03-0.04-0.03-0.04,0v0.05h0.04L12.62,9.53"/>
						</g>
						<g>
							<g>
								<path d="M12.16,9.53c0-0.03-0.04-0.03-0.04,0v0.05h0.04L12.16,9.53"/>
							</g>
						</g>
					</g>
				</g>
				<g transform="matrix(0.70460892,-0.70959585,0.70959585,0.70460892,-35.341459,275.10898)">
					<g>
						<g>
							<path class="st4" d="M11.77,12.12c0.17-0.17,0.09-0.33,0.09-0.33c0,0-0.17-0.09-0.34,0.08L11.77,12.12"/>
						</g>
						<g>
							<path class="st4" d="M12.08,12.02l-0.17,0.21l-0.13-0.13c0.16-0.16,0.07-0.31,0.06-0.31c0,0-0.16-0.09-0.31,0.06l-0.13-0.13
								l0.22-0.17L12.08,12.02L12.08,12.02L12.08,12.02z"/>
							<path d="M11.9,12.25l-0.14-0.14l0.01-0.01c0.16-0.16,0.06-0.3,0.06-0.3l0,0c0,0-0.15-0.08-0.3,0.06l-0.01,0.01l-0.14-0.14
								l0.24-0.19l0.47,0.48l-0.01,0.01L11.9,12.25z M11.79,12.1l0.11,0.11l0.16-0.2l-0.2-0.2c0.01,0.02,0.01,0.04,0.02,0.06
								C11.88,11.94,11.87,12.02,11.79,12.1z M11.42,11.73l0.11,0.11c0.08-0.07,0.16-0.09,0.21-0.08c0.03,0,0.06,0.01,0.08,0.02
								l-0.2-0.2L11.42,11.73z"/>
						</g>
						<g>
							<path class="st4" d="M11.91,12.24l-0.52-0.52c-0.01-0.01-0.03-0.01-0.04,0c-0.01,0.01-0.02,0.03,0,0.04l0.52,0.52
								c0.01,0.01,0.03,0.01,0.04,0C11.92,12.27,11.92,12.25,11.91,12.24z"/>
							<path d="M11.88,12.31c-0.01,0-0.02,0-0.03-0.01l-0.52-0.52c-0.01-0.01-0.01-0.02-0.01-0.03c0-0.01,0.01-0.02,0.01-0.03
								c0.01-0.01,0.02-0.01,0.03-0.01c0.01,0,0.02,0,0.03,0.01l0.52,0.52c0.02,0.02,0.01,0.04,0,0.06
								C11.9,12.3,11.89,12.31,11.88,12.31z M11.38,11.72C11.37,11.72,11.37,11.72,11.38,11.72c-0.01,0-0.01,0-0.02,0.01
								c-0.01,0.01-0.01,0.01-0.01,0.02c0,0,0,0.01,0,0.01l0.52,0.52c0.01,0.01,0.02,0,0.03,0c0.01-0.01,0.01-0.02,0-0.03
								l-0.52-0.52C11.38,11.72,11.38,11.72,11.38,11.72z"/>
						</g>
						<g>
							<path class="st4" d="M11.72,12.05c0.1-0.1,0.06-0.2,0.06-0.2c0,0-0.1-0.04-0.2,0.06L11.72,12.05"/>
							<path d="M11.72,12.07l-0.16-0.16l0.01-0.01c0.1-0.1,0.21-0.06,0.21-0.06c0.01,0.01,0.01,0.04,0.01,0.04
								C11.81,11.93,11.8,11.99,11.72,12.07L11.72,12.07z M11.6,11.91l0.13,0.13c0.08-0.08,0.06-0.16,0.05-0.18
								C11.76,11.85,11.68,11.83,11.6,11.91z"/>
						</g>
						<g>
							<path class="st4" d="M12.18,11.95l-0.5-0.5c-0.01-0.01-0.03-0.01-0.04,0c-0.01,0.01-0.01,0.03,0,0.04l0.5,0.5
								c0.01,0.01,0.03,0.01,0.04,0C12.19,11.98,12.19,11.97,12.18,11.95z"/>
							<path d="M12.15,12.02c-0.01,0-0.02,0-0.03-0.01l-0.5-0.5c-0.01-0.01-0.01-0.04,0-0.06c0.01-0.01,0.02-0.01,0.03-0.01
								c0.01,0,0.02,0,0.03,0.01l0.5,0.5v0c0.01,0.01,0.01,0.02,0.01,0.03c0,0.01-0.01,0.02-0.01,0.03
								C12.17,12.01,12.16,12.02,12.15,12.02z M11.66,11.46C11.66,11.46,11.66,11.46,11.66,11.46c-0.01,0-0.01,0-0.01,0.01
								c-0.01,0.01-0.01,0.02,0,0.03l0.5,0.5c0.01,0.01,0.02,0.01,0.03,0c0,0,0.01-0.01,0.01-0.01c0,0,0-0.01,0-0.01v0l-0.5-0.5
								C11.67,11.46,11.67,11.46,11.66,11.46z"/>
						</g>
						<g>
							<path class="st4" d="M12.12,11.99l-0.47-0.48c-0.01-0.01-0.03-0.01-0.04,0c-0.01,0.01-0.01,0.03,0,0.04l0.47,0.48
								c0.01,0.01,0.03,0.01,0.04,0C12.13,12.02,12.13,12,12.12,11.99z"/>
							<path d="M12.1,12.05c-0.01,0-0.02,0-0.02-0.01l-0.47-0.48c-0.01-0.01-0.01-0.02-0.01-0.02c0-0.01,0-0.02,0.01-0.03
								c0.02-0.02,0.04-0.02,0.06,0l0.47,0.48c0.01,0.01,0.01,0.04,0,0.06C12.12,12.04,12.11,12.05,12.1,12.05z M11.63,11.51
								c-0.01,0-0.01,0-0.02,0.01c0,0-0.01,0.01-0.01,0.02c0,0,0,0.01,0,0.01l0.47,0.48c0.01,0.01,0.02,0,0.02,0
								c0.01-0.01,0.01-0.02,0-0.02L11.63,11.51C11.64,11.52,11.63,11.51,11.63,11.51z"/>
						</g>
						<g>
							<path class="st4" d="M12.3,11.51l-0.04-0.04l-0.03,0.03l-0.03-0.03l0.03-0.03l-0.04-0.04l-0.03,0.03l-0.03-0.03l0.03-0.03
								l-0.04-0.04l-0.06,0.06c-0.01,0.01-0.01,0.02,0,0.03l0.13,0.14c0.01,0.01,0.02,0.01,0.03,0L12.3,11.51L12.3,11.51L12.3,11.51
								z"/>
							<path d="M12.22,11.59c-0.01,0-0.02,0-0.03-0.01l-0.13-0.14c-0.01-0.01-0.01-0.03,0-0.05l0.07-0.07l0.05,0.05l-0.03,0.03
								l0.01,0.01l0.03-0.03l0.05,0.05l-0.03,0.03l0.01,0.01l0.03-0.03l0.05,0.05l-0.07,0.07C12.24,11.58,12.23,11.59,12.22,11.59z
								 M12.13,11.35l-0.05,0.05c-0.01,0.01,0,0.01,0,0.02l0.13,0.14c0.01,0.01,0.01,0.01,0.02,0l0.05-0.05l-0.02-0.02l-0.03,0.03
								l-0.04-0.04l0.03-0.03l-0.02-0.02l-0.03,0.03l-0.04-0.04l0.03-0.03L12.13,11.35z"/>
						</g>
						<g>
							<path class="st4" d="M12.07,11.45l-0.21,0.19L12,11.77l0.19-0.21L12.07,11.45"/>
							<path d="M12,11.79l-0.15-0.15l0.22-0.2l0.13,0.13L12,11.79z M11.88,11.64L12,11.75l0.18-0.19l-0.1-0.1L11.88,11.64z"/>
						</g>
						<g>
							<path class="st4" d="M12.14,11.7l-0.11,0.1l0.13,0.13l0.1-0.11L12.14,11.7L12.14,11.7L12.14,11.7z"/>
							<path d="M12.15,11.95l-0.14-0.14l0.13-0.12l0.13,0.13L12.15,11.95z M12.04,11.81l0.11,0.11l0.09-0.09l-0.1-0.1L12.04,11.81z"
								/>
						</g>
						<g>
							<g>
								<path class="st4" d="M11.82,11.38l-0.11,0.1l0.13,0.13l0.1-0.11L11.82,11.38L11.82,11.38L11.82,11.38z"/>
								<path d="M11.83,11.62l-0.14-0.14l0.13-0.12l0.13,0.13L11.83,11.62z M11.72,11.48l0.11,0.11l0.09-0.09l-0.1-0.1L11.72,11.48z
									"/>
							</g>
						</g>
						<g>
							<path class="st4" d="M12.36,11.77l-0.04-0.04l-0.03,0.03l-0.03-0.03l0.03-0.03l-0.04-0.04l-0.03,0.03l-0.03-0.03l0.03-0.03
								l-0.04-0.04l-0.06,0.06c-0.01,0.01-0.01,0.02,0,0.03l0.13,0.13c0.01,0.01,0.02,0.01,0.03,0L12.36,11.77L12.36,11.77
								L12.36,11.77z"/>
							<path d="M12.28,11.85c-0.01,0-0.02,0-0.03-0.01l-0.13-0.13c-0.01-0.01-0.01-0.03,0-0.05l0.07-0.07l0.05,0.05l-0.03,0.03
								l0.01,0.01l0.03-0.03l0.05,0.05l-0.03,0.03l0.01,0.01l0.03-0.03l0.05,0.05l0,0.01l-0.07,0.06
								C12.3,11.84,12.29,11.85,12.28,11.85z M12.19,11.62l-0.05,0.05c-0.01,0.01,0,0.01,0,0.02l0.13,0.13c0,0,0.01,0.01,0.02,0
								l0.05-0.05l-0.02-0.02l-0.03,0.03l-0.04-0.04l0.03-0.03l-0.02-0.02l-0.03,0.03l-0.04-0.04l0.03-0.03L12.19,11.62z"/>
						</g>
						<g>
							<g>
								<path class="st4" d="M12.03,11.44L12,11.41l-0.03,0.03l-0.03-0.03l0.03-0.03l-0.04-0.04l-0.03,0.03l-0.03-0.03l0.03-0.03
									l-0.04-0.04l-0.06,0.06c-0.01,0.01-0.01,0.02,0,0.03l0.13,0.13c0.01,0.01,0.02,0.01,0.03,0L12.03,11.44L12.03,11.44
									L12.03,11.44z"/>
								<path d="M11.96,11.52c-0.01,0-0.02,0-0.03-0.01l-0.13-0.13c-0.01-0.01-0.01-0.03,0-0.05l0.07-0.07l0.05,0.05l-0.03,0.03
									l0.01,0.01l0.03-0.03l0.05,0.05l-0.03,0.03l0.01,0.01L12,11.39l0.05,0.05l0,0.01l-0.07,0.06
									C11.97,11.52,11.97,11.52,11.96,11.52z M11.87,11.29l-0.05,0.05c-0.01,0.01,0,0.01,0,0.02l0.13,0.13c0,0,0.01,0.01,0.02,0
									l0.05-0.05L12,11.42l-0.03,0.03l-0.04-0.04l0.03-0.03l-0.02-0.02l-0.03,0.03l-0.04-0.04l0.03-0.03L11.87,11.29z"/>
							</g>
						</g>
						<g>
							<path d="M12.08,11.58c0.02-0.02-0.01-0.05-0.03-0.03L12,11.6l0.03,0.03L12.08,11.58"/>
						</g>
						<g>
							<path d="M12.17,11.81c0.02-0.02-0.01-0.04-0.03-0.03l-0.04,0.04l0.03,0.03L12.17,11.81"/>
						</g>
						<g>
							<g>
								<path d="M11.85,11.49c0.02-0.02-0.01-0.04-0.03-0.03l-0.04,0.04l0.03,0.03L11.85,11.49"/>
							</g>
						</g>
					</g>
				</g>
			</g>
		</g>
		<g id="quina">
			<g>
				<path class="st5" d="M10.08,10.1L10.08,10.1c0,0.1,0.04,0.18,0.1,0.25c0.06,0.06,0.14,0.1,0.23,0.1c0.09,0,0.17-0.04,0.23-0.1
					c0.06-0.06,0.1-0.15,0.1-0.25V9.64l-0.65,0L10.08,10.1"/>
			</g>
			<g>
				<circle class="st3" cx="10.23" cy="9.81" r="0.06"/>
			</g>
			<g>
				<circle class="st3" cx="10.59" cy="9.81" r="0.06"/>
			</g>
			<g>
				<circle class="st3" cx="10.41" cy="9.99" r="0.06"/>
			</g>
			<g>
				<circle class="st3" cx="10.23" cy="10.17" r="0.06"/>
			</g>
			<g>
				<circle class="st3" cx="10.59" cy="10.17" r="0.06"/>
			</g>
		</g>
		<g>
			<g>
				<g>
					<path class="st5" d="M10.08,8.97L10.08,8.97c0,0.1,0.04,0.18,0.1,0.25c0.06,0.06,0.14,0.1,0.23,0.1c0.09,0,0.17-0.04,0.23-0.1
						c0.06-0.06,0.1-0.15,0.1-0.25V8.51l-0.65,0L10.08,8.97"/>
				</g>
				<g>
					<circle class="st3" cx="10.23" cy="8.68" r="0.06"/>
				</g>
				<g>
					<circle class="st3" cx="10.59" cy="8.69" r="0.06"/>
				</g>
				<g>
					<circle class="st3" cx="10.41" cy="8.86" r="0.06"/>
				</g>
				<g>
					<circle class="st3" cx="10.23" cy="9.04" r="0.06"/>
				</g>
				<g>
					<circle class="st3" cx="10.59" cy="9.04" r="0.06"/>
				</g>
			</g>
		</g>
		<g>
			<g>
				<g>
					<path class="st5" d="M9.18,10.1L9.18,10.1c0,0.1,0.04,0.18,0.1,0.25c0.06,0.06,0.14,0.1,0.23,0.1c0.09,0,0.17-0.04,0.23-0.1
						c0.06-0.06,0.1-0.15,0.1-0.25V9.64l-0.65,0L9.18,10.1"/>
				</g>
				<g>
					<circle class="st3" cx="9.33" cy="9.81" r="0.06"/>
				</g>
				<g>
					<circle class="st3" cx="9.69" cy="9.81" r="0.06"/>
				</g>
				<g>
					<circle class="st3" cx="9.51" cy="9.99" r="0.06"/>
				</g>
				<g>
					<circle class="st3" cx="9.33" cy="10.17" r="0.06"/>
				</g>
				<g>
					<circle class="st3" cx="9.69" cy="10.17" r="0.06"/>
				</g>
			</g>
		</g>
		<g>
			<g>
				<g>
					<path class="st5" d="M10.98,10.1L10.98,10.1c0,0.1,0.04,0.18,0.1,0.25c0.06,0.06,0.14,0.1,0.23,0.1c0.09,0,0.17-0.04,0.23-0.1
						c0.06-0.06,0.1-0.15,0.1-0.25V9.64l-0.65,0L10.98,10.1"/>
				</g>
				<g>
					<circle class="st3" cx="11.13" cy="9.81" r="0.06"/>
				</g>
				<g>
					<circle class="st3" cx="11.49" cy="9.81" r="0.06"/>
				</g>
				<g>
					<circle class="st3" cx="11.31" cy="9.99" r="0.06"/>
				</g>
				<g>
					<circle class="st3" cx="11.13" cy="10.17" r="0.06"/>
				</g>
				<g>
					<circle class="st3" cx="11.49" cy="10.17" r="0.06"/>
				</g>
			</g>
		</g>
		<g>
			<g>
				<g>
					<path class="st5" d="M10.08,11.22L10.08,11.22c0,0.1,0.04,0.18,0.1,0.25c0.06,0.06,0.14,0.1,0.23,0.1
						c0.09,0,0.17-0.04,0.23-0.1c0.06-0.06,0.1-0.15,0.1-0.25v-0.47l-0.65,0L10.08,11.22"/>
				</g>
				<g>
					<circle class="st3" cx="10.23" cy="10.93" r="0.06"/>
				</g>
				<g>
					<circle class="st3" cx="10.59" cy="10.93" r="0.06"/>
				</g>
				<g>
					<circle class="st3" cx="10.41" cy="11.1" r="0.06"/>
				</g>
				<g>
					<circle class="st3" cx="10.23" cy="11.28" r="0.06"/>
				</g>
				<g>
					<circle class="st3" cx="10.59" cy="11.28" r="0.06"/>
				</g>
			</g>
		</g>
	</g>
</g>
</svg>
