<?xml version="1.0" encoding="utf-8"?>
<!-- Generator: Adobe Illustrator 23.1.0, SVG Export Plug-In . SVG Version: 6.00 Build 0)  -->
<svg version="1.1" id="Layer_1" xmlns="http://www.w3.org/2000/svg" xmlns:xlink="http://www.w3.org/1999/xlink" x="0px" y="0px"
	 viewBox="0 0 26 20" style="enable-background:new 0 0 26 20;" xml:space="preserve">
<style type="text/css">
	.st0{fill:#FFFFFF;}
	.st1{fill:#0B4EA2;}
	.st2{fill:#EE1C25;}
	.st3{clip-path:url(#SVGID_2_);}
</style>
<g transform="scale(1200)">
	<g>
		<path class="st0" d="M0,0h0.02v0.02H0V0z"/>
	</g>
	<g>
		<path class="st1" d="M0,0.01h0.02v0.01H0V0.01z"/>
	</g>
	<g>
		<path class="st2" d="M0,0.01h0.02v0.01L0,0.01L0,0.01z"/>
	</g>
</g>
<g>
	<g id="s">
		<path class="st2" d="M11.99,4.85c0,0,0.16,1.56,0.16,4.67c-0.02,3.18-2.4,4.79-4.15,5.64c-1.75-0.85-4.13-2.46-4.15-5.64
			c0-3.12,0.16-4.67,0.16-4.67H11.99z"/>
	</g>
</g>
<g>
	<path class="st0" d="M7.65,13.33v-3.9c-1.32,0-1.69,0.12-2.09,0.24c0.04-0.4,0.04-0.8,0-1.2c0.39,0.12,0.77,0.24,2.09,0.24V7.63
		c-0.42,0-0.99,0.02-1.65,0.24c0.04-0.4,0.04-0.8,0-1.2c0.66,0.22,1.24,0.24,1.65,0.24c0-0.31-0.1-0.99-0.22-1.55
		c0.38,0.03,0.76,0.03,1.14,0C8.45,5.92,8.35,6.59,8.35,6.91c0.42,0,0.99-0.02,1.65-0.24c-0.04,0.4-0.04,0.8,0,1.2
		C9.34,7.64,8.77,7.63,8.35,7.63v1.08c1.32,0,1.69-0.12,2.09-0.24c-0.04,0.4-0.04,0.8,0,1.2c-0.39-0.12-0.77-0.24-2.09-0.24v3.9
		H7.65z"/>
</g>
<g>
	<defs>
		<path id="SVGID_1_" d="M11.99,4.85c0,0,0.16,1.56,0.16,4.67c-0.02,3.18-2.4,4.79-4.15,5.64c-1.75-0.85-4.13-2.46-4.15-5.64
			c0-3.12,0.16-4.67,0.16-4.67H11.99z"/>
	</defs>
	<clipPath id="SVGID_2_">
		<use xlink:href="#SVGID_1_"  style="overflow:visible;"/>
	</clipPath>
	<g class="st3">
		<path class="st1" d="M5.84,16.4c-0.78,0-1.41-1.08-1.41-2.41c0-1.33,0.63-2.41,1.41-2.41c0.32,0,0.63,0.19,0.89,0.54
			c0.56-1.3,1.58-1.53,2.28-0.49c0.1,0.14,0.19,0.31,0.27,0.49c0.6-0.84,1.49-0.68,1.98,0.36s0.4,2.55-0.21,3.39
			c-0.25,0.35-0.56,0.54-0.89,0.54H5.84z"/>
	</g>
</g>
<g>
	<g>
		<path class="st0" d="M8,15.33L7.93,15.3c-1.18-0.57-2.08-1.22-2.77-1.98c-0.96-1.07-1.46-2.35-1.47-3.8
			c0-3.09,0.15-4.68,0.16-4.69L3.87,4.7h8.26l0.01,0.14c0,0.02,0.16,1.6,0.16,4.69c-0.01,1.45-0.5,2.73-1.47,3.8
			c-0.69,0.76-1.59,1.41-2.77,1.98L8,15.33z M4.14,5C4.11,5.44,4,6.96,4,9.52c0.02,2.37,1.33,4.16,4,5.47
			c2.67-1.32,3.98-3.11,4-5.48c0-2.56-0.11-4.08-0.14-4.52H4.14z"/>
	</g>
</g>
</svg>
