<?xml version="1.0" encoding="utf-8"?>
<!-- Generator: Adobe Illustrator 23.1.0, SVG Export Plug-In . SVG Version: 6.00 Build 0)  -->
<svg version="1.1" id="Layer_1" xmlns="http://www.w3.org/2000/svg" xmlns:xlink="http://www.w3.org/1999/xlink" x="0px" y="0px"
	 viewBox="0 0 26 20" style="enable-background:new 0 0 26 20;" xml:space="preserve">
<style type="text/css">
	.st0{fill:#012169;}
	.st1{fill:#FFFFFF;}
	.st2{fill:none;stroke:#000000;stroke-width:0;stroke-linecap:round;stroke-linejoin:round;}
	.st3{fill:#C8102E;}
</style>
<polygon class="st0" points="26,17.87 26,17.87 26,17.87 "/>
<polygon class="st0" points="0,1.87 0,1.87 0,1.87 "/>
<polygon class="st0" points="26,1.87 26,1.87 26,1.87 "/>
<polygon class="st0" points="26,0 15.6,0 15.6,6.4 "/>
<polygon class="st0" points="10.4,0 0,0 10.4,6.4 "/>
<polygon class="st0" points="0,12.54 0,16 5.63,12.54 "/>
<polygon class="st0" points="0,3.73 0,7.2 5.63,7.2 "/>
<polygon class="st0" points="26,1.87 26,1.87 26,1.87 "/>
<polygon class="st0" points="0,1.87 0,1.87 0,1.87 "/>
<polygon class="st0" points="26,17.87 26,17.87 26,17.87 "/>
<polygon class="st0" points="26,7.2 26,3.73 20.37,7.2 "/>
<polygon class="st0" points="26,16 26,12.54 20.37,12.54 "/>
<polygon class="st1" points="0,1.87 0,1.87 0,1.87 0,1.87 "/>
<rect x="26" y="1.87" class="st1" width="0" height="0"/>
<rect x="0" y="1.87" transform="matrix(0.4381 -0.8989 0.8989 0.4381 -1.6778 1.0487)" class="st1" width="0" height="0"/>
<line class="st2" x1="26" y1="1.87" x2="26" y2="1.87"/>
<line class="st2" x1="26" y1="1.87" x2="26" y2="1.87"/>
<line class="st2" x1="26" y1="17.87" x2="26" y2="17.87"/>
<line class="st2" x1="0" y1="1.87" x2="0" y2="1.87"/>
<line class="st2" x1="0" y1="1.87" x2="0" y2="1.87"/>
<polygon class="st3" points="15.6,7.2 17.33,7.2 26,1.87 26,1.87 26,0.62 15.6,7.02 "/>
<polygon class="st3" points="10.4,12.54 8.67,12.54 0,17.87 0,17.87 0,19.12 10.4,12.71 "/>
<polygon class="st3" points="10.4,7.2 8.67,7.2 0,1.87 0,1.87 0,0.62 10.4,7.02 "/>
<polygon class="st3" points="15.6,12.54 17.33,12.54 26,17.87 26,17.87 26,19.12 15.6,12.71 "/>
<polygon class="st3" points="14.56,11.47 26,11.47 26,8.27 14.56,8.27 14.56,0 11.44,0 11.44,8.27 0,8.27 0,11.47 11.44,11.47 
	11.44,20 13,20 14.56,20 "/>
<polygon class="st0" points="0,20 10.4,20 10.4,13.34 0,19.74 "/>
<polygon class="st0" points="15.6,13.34 15.6,20 26,20 26,19.74 "/>
</svg>
